<svg xmlns="http://www.w3.org/2000/svg" viewBox="0 0 351 247.5"><path d="M113.5 67.7c57.7 5.9 132-53.7 160.1 36.5 28.1 90.2-65.4 161.6-140.6 139.2C57.8 221-8.5 151.8.9 95.1 16.8-1.7 74.7 63.7 113.5 67.7" fill="#f3f7f8"/><g fill="#003a52"><path d="M156.8 161.5h-6.9l-2.7-7.1h-12.6l-2.6 7.1h-6.7l12.3-31.5h6.7l12.5 31.5zM145.1 149l-4.3-11.7-4.2 11.7h8.5zM159.9 161.5V130h6v11.3c1.9-2.1 4.1-3.2 6.6-3.2 2.8 0 5.1 1 6.9 3 1.8 2 2.7 4.9 2.7 8.7 0 3.9-.9 6.9-2.8 9s-4.1 3.2-6.7 3.2c-1.3 0-2.6-.3-3.9-1-1.3-.7-2.4-1.6-3.3-2.9v3.3h-5.5zm6-11.9c0 2.4.4 4.1 1.1 5.2 1 1.6 2.4 2.4 4.2 2.4 1.3 0 2.5-.6 3.4-1.7.9-1.1 1.4-2.9 1.4-5.4 0-2.6-.5-4.5-1.4-5.6s-2.2-1.7-3.6-1.7-2.6.6-3.6 1.7-1.5 2.8-1.5 5.1zM184.9 155l6.1-.9c.3 1.2.8 2.1 1.6 2.7.8.6 1.9.9 3.3.9 1.6 0 2.7-.3 3.5-.9.5-.4.8-.9.8-1.6 0-.5-.1-.8-.4-1.1-.3-.3-1-.6-2-.8-4.9-1.1-7.9-2.1-9.2-2.9-1.8-1.2-2.7-2.9-2.7-5.1 0-2 .8-3.6 2.3-5 1.6-1.3 4-2 7.3-2 3.1 0 5.4.5 7 1.5 1.5 1 2.6 2.5 3.1 4.5l-5.7 1.1c-.2-.9-.7-1.6-1.4-2-.7-.5-1.6-.7-2.9-.7-1.6 0-2.7.2-3.4.7-.5.3-.7.7-.7 1.2 0 .4.2.8.6 1.1.5.4 2.4 1 5.6 1.7 3.2.7 5.5 1.6 6.7 2.7 1.3 1.1 1.9 2.6 1.9 4.5 0 2.1-.9 3.9-2.6 5.4s-4.3 2.3-7.7 2.3c-3.1 0-5.6-.6-7.4-1.9-2-1.6-3.2-3.3-3.7-5.4zM231.3 145.4l-5.9 1.1c-.2-1.2-.7-2.1-1.4-2.7-.7-.6-1.6-.9-2.8-.9-1.5 0-2.7.5-3.6 1.6s-1.3 2.8-1.3 5.2c0 2.7.5 4.6 1.4 5.7.9 1.1 2.1 1.7 3.7 1.7 1.1 0 2.1-.3 2.8-1 .7-.7 1.2-1.8 1.5-3.4l5.9 1c-.6 2.7-1.8 4.8-3.5 6.2s-4.1 2.1-7 2.1c-3.3 0-6-1.1-8-3.2s-3-5-3-8.7c0-3.8 1-6.7 3-8.8 2-2.1 4.7-3.1 8.1-3.1 2.8 0 5 .6 6.6 1.8 1.6 1.2 2.8 3 3.5 5.4zM241.9 130v11.6c1.9-2.3 4.3-3.4 7-3.4 1.4 0 2.6.3 3.8.8 1.1.5 2 1.2 2.5 2 .6.8 1 1.7 1.2 2.7s.3 2.5.3 4.5v13.4h-6v-12c0-2.4-.1-3.9-.3-4.5-.2-.6-.6-1.2-1.2-1.5-.6-.4-1.3-.6-2.2-.6-1 0-1.9.2-2.7.7s-1.4 1.2-1.7 2.2c-.4 1-.5 2.4-.5 4.3v11.4h-6V130h5.8zM262.8 161.5V130h6v31.5h-6zM290 161.5v-3.4c-.8 1.2-1.9 2.2-3.3 2.9-1.4.7-2.8 1.1-4.3 1.1s-2.9-.3-4.1-1c-1.2-.7-2.1-1.6-2.6-2.8-.5-1.2-.8-2.9-.8-5v-14.4h6v10.5c0 3.2.1 5.2.3 5.9.2.7.6 1.3 1.2 1.7.6.4 1.3.6 2.2.6 1 0 2-.3 2.8-.8.8-.6 1.4-1.3 1.7-2.1s.5-2.9.5-6.1V139h6v22.8H290zM299.7 155l6.1-.9c.3 1.2.8 2.1 1.6 2.7.8.6 1.9.9 3.3.9 1.6 0 2.7-.3 3.5-.9.5-.4.8-.9.8-1.6 0-.5-.1-.8-.4-1.1-.3-.3-1-.6-2-.8-4.9-1.1-7.9-2.1-9.3-2.9-1.8-1.2-2.7-2.9-2.7-5.1 0-2 .8-3.6 2.3-5s4-2 7.3-2c3.1 0 5.4.5 7 1.5 1.5 1 2.6 2.5 3.1 4.5l-5.7 1.1c-.2-.9-.7-1.6-1.4-2-.7-.5-1.6-.7-2.9-.7-1.6 0-2.7.2-3.4.7-.5.3-.7.7-.7 1.2 0 .4.2.8.6 1.1.5.4 2.4 1 5.6 1.7s5.5 1.6 6.7 2.7c1.3 1.1 1.9 2.6 1.9 4.5 0 2.1-.9 3.9-2.6 5.4s-4.3 2.3-7.7 2.3c-3.1 0-5.6-.6-7.4-1.9-1.9-1.6-3.1-3.3-3.6-5.4zM324.1 155l6.1-.9c.3 1.2.8 2.1 1.6 2.7.8.6 1.9.9 3.3.9 1.6 0 2.7-.3 3.5-.9.5-.4.8-.9.8-1.6 0-.5-.1-.8-.4-1.1-.3-.3-1-.6-2-.8-4.9-1.1-7.9-2.1-9.3-2.9-1.8-1.2-2.7-2.9-2.7-5.1 0-2 .8-3.6 2.3-5s4-2 7.3-2c3.1 0 5.4.5 7 1.5 1.5 1 2.6 2.5 3.1 4.5l-5.7 1.1c-.2-.9-.7-1.6-1.4-2-.7-.5-1.6-.7-2.9-.7-1.6 0-2.7.2-3.4.7-.5.3-.7.7-.7 1.2 0 .4.2.8.6 1.1.5.4 2.4 1 5.6 1.7s5.5 1.6 6.7 2.7c1.3 1.1 1.9 2.6 1.9 4.5 0 2.1-.9 3.9-2.6 5.4s-4.3 2.3-7.7 2.3c-3.1 0-5.6-.6-7.4-1.9-1.8-1.6-3-3.3-3.6-5.4z"/></g><path d="M109.2 94.5c13.3-6.3 25.6-9.7 37.1-10.7V65.4c-11.7 1-24 4.8-37.1 11.3v17.8zM146.3 25.2c-11.1.4-23.4 4.5-37.1 12v18.1c13.9-7.1 26.2-10.8 37.1-11.2V25.2zM198.1 97.3c7.7 0 17.3-2.9 28.4-8.9V70.7c-15.1 7.5-27.6 9.8-37.1 6.9v18.1c2.6 1 5.6 1.6 8.7 1.6" fill="#ff4141"/><path d="M189.1 37.3v18.8c-1.4-.4-2.6-.8-3.7-1.4-.4-.2-1.4-.6-3.2-1.6-1.8-.8-3-1.4-3.4-1.6-.4-.2-1.4-.6-3-1.4-1.6-.8-2.8-1.4-3.4-1.6-.6-.2-1.8-.6-3.1-1.2-1.6-.6-2.8-1-3.6-1.2-.8-.2-2-.4-3.4-.8s-2.6-.6-3.7-.8c-1-.2-2.4-.2-3.7-.4-1.4-.2-2.8-.2-4.2-.2-1.6 0-3.2 0-4.8.2v21.4h1.8c6.5 0 12.9 1 18.6 2.8 5.7 2 12.1 4.6 19 7.9 1.2.6 2.6 1 3.7 1.4V56.1c9.5 2.6 21.8-.2 37-8.7v-18c-10.9 5.7-20.8 8.7-29.5 8.7-2.8 0-5.2-.2-7.4-.8" fill="#ff4141"/><path d="M229.8 12.9c2-1 4-1 5.9.2 2.2 1.2 3.1 3 3.4 5.4v73.6c0 2.6-1.2 4.3-3.4 5.5-.6.2-1.2.6-1.6.8-14 7.3-25.9 11.1-35.6 11.1-5.7 0-10.7-1.2-15.2-3.4l-2.8-1.4c-4.2-2-7.3-3.6-9.5-4.5-2.2-1-5.1-1.8-8.7-2.8-3.6-1-7.1-1.4-10.9-1.4-6.5 0-14.2 1.2-22.8 4.2-8.5 3-15.8 6.1-21.9 9.9-1 .6-2 .8-3.2.8-1.2 0-2.2-.2-3.2-.8-2.2-1.2-3.1-3-3.1-5.4V33.3c0-2.4 1-4.2 3-5.4 2.2-1.4 4.8-2.8 7.5-4.2 2.8-1.4 6.3-3 10.9-4.9 4.5-2 9.3-3.6 14.6-4.8 5.1-1.2 10.1-1.8 14.8-1.8 7.3 0 14 1 20.2 3 6.3 2 13.1 4.8 20.2 8.3 2.4 1.2 5.1 1.8 8.5 1.8 7.9 0 17.8-3.7 29.9-10.9 1.4-.7 2.4-1.1 3-1.5zm-120.4 24c13.7-7.5 25.9-11.7 37-12.1v19c-10.9.4-23.1 4.2-37 11.3V36.9zm76.3 39.2c1.2.6 2.6 1 3.7 1.4V55.9c9.5 2.6 21.7-.2 37-8.7v-18c-10.9 5.7-20.8 8.7-29.5 8.7-3 0-5.4-.2-7.5-.8v18.8c-1.4-.4-2.6-.8-3.7-1.4-.4-.2-1.4-.6-3.1-1.6-1.8-.8-3-1.4-3.4-1.6-.4-.2-1.4-.6-3-1.4s-2.8-1.4-3.4-1.6c-.6-.2-1.8-.6-3.2-1.2-1.6-.6-2.8-1-3.6-1.2s-2-.4-3.4-.8-2.6-.6-3.7-.8c-1-.2-2.4-.2-3.7-.4-1.4-.2-2.8-.2-4.2-.2-1.6 0-3.1 0-4.8.2v21.4h1.8c6.5 0 12.8 1 18.6 2.8 5.9 2 12.2 4.6 19.1 8zm-76.3 18.6c13.2-6.3 25.5-9.7 37-10.7V65.6c-11.7 1-23.9 4.8-37 11.3v17.8zm117.1-24.2c-15 7.5-27.5 9.9-37 6.9v18.2c2.6 1 5.5 1.6 8.7 1.6 7.7 0 17.2-3 28.3-8.9V70.5zM189.6 77.5z" fill="#ff4141"/><path d="M85 0c-3.4 0-6.3 1.2-8.6 3.6-2.4 2.4-3.6 5.3-3.6 8.7 0 2.2.6 4.3 1.8 6.1 1.2 1.8 2.6 3.4 4.5 4.3v147h12.2V23c1.8-1.2 3.4-2.6 4.5-4.3 1.2-1.8 1.8-4 1.8-6.1-.4-3.6-1.6-6.3-3.9-8.9C91.3 1.2 88.4 0 85 0z" fill="#003a52"/><path d="M189.4 37.3c2.2.6 4.6.8 7.5.8 8.7 0 18.7-3 29.6-8.7v18c-15.3 8.5-27.6 11.3-37.1 8.7v21.6M189.4 77.7c-1.2-.4-2.6-.8-3.7-1.4-6.9-3.4-13.2-5.9-19-7.9-5.7-1.8-12-2.8-18.6-2.8h-1.8V44.2c1.6-.2 3.1-.2 4.7-.2 1.4 0 2.8 0 4.2.2 1.4.2 2.8.2 3.7.4 1.2.2 2.4.4 3.7.8 1.4.4 2.6.6 3.4.8.8.2 2 .6 3.6 1.2 1.4.6 2.6 1 3.1 1.2.6.2 1.8.8 3.4 1.6 1.6.8 2.6 1.2 3 1.4.4.2 1.6.8 3.4 1.6 1.8 1 2.8 1.4 3.2 1.6 1.2.6 2.4 1 3.7 1.4" fill="#fff"/><path d="M189.4 77.6c9.5 2.9 22 .6 37.1-6.9v17.7c-11.1 5.9-20.6 8.9-28.4 8.9-3.2 0-6.2-.6-8.7-1.6V77.6M146.3 83.8c-11.5 1-23.8 4.3-37.1 10.7V76.7c13.1-6.5 25.4-10.3 37.1-11.3v18.4zM109.2 37.2c13.7-7.5 26-11.6 37.1-12v18.9c-10.9.4-23.2 4.1-37.1 11.2V37.2z" fill="#fff"/><path d="M232.6 12.2c-.9 0-1.9.2-2.8.7-.6.4-1.6.8-3 1.6-12.1 7.1-21.9 10.9-29.9 10.9-3.4 0-6.1-.6-8.5-1.8-7.1-3.6-13.8-6.3-20.2-8.3-6.1-2-12.8-3-20.2-3-4.8 0-9.7.6-14.8 1.8-5.3 1.2-10 2.8-14.6 4.8-4.5 2-8.1 3.6-10.9 4.9-2.8 1.4-5.3 2.8-7.5 4.2-2 1.2-3 3-3 5.4v71.5c0 2.4 1 4.2 3.2 5.4 1 .6 2 .8 3.2.8 1.2 0 2.2-.2 3.2-.8 6.1-3.7 13.4-6.9 21.9-9.9 8.5-3 16.2-4.2 22.8-4.2 3.7 0 7.3.4 10.9 1.4 3.6 1 6.5 1.8 8.7 2.8 2.2 1 5.4 2.6 9.5 4.6l2.8 1.4c4.6 2.2 9.5 3.4 15.2 3.4 9.7 0 21.6-3.7 35.6-11.1.4-.2 1-.6 1.6-.8 2.2-1.2 3.4-3 3.4-5.5V18.5c-.2-2.4-1.2-4.2-3.4-5.4-1.1-.6-2.1-.9-3.2-.9m-84.4 12.5c6 0 11.5.8 16.3 2.4h.2c5.7 1.8 11.8 4.3 18.3 7.6 4.2 2.1 8.8 3.1 14 3.1 8.6 0 18.1-2.9 29.7-9v59.5c-11.5 5.8-21 8.8-28.1 8.8-3.6 0-6.8-.7-9.8-2.1l-2.7-1.3h-.1l-.1-.1c-1.7-.8-3.3-1.6-4.7-2.2-2-.9-3.6-1.8-5-2.4-2.9-1.3-6.1-2.2-9.7-3.2l-.8-.2c-4.4-1.2-9.1-1.8-14.2-1.8-8.6 0-17.6 1.6-26.8 4.9-5.7 2-10.6 4-14.9 6V36.8c1.1-.6 2.3-1.2 3.6-1.9 2.5-1.3 5.9-2.8 10.3-4.7 4-1.8 8-3 12.4-4 4.2-1 8.3-1.5 12.1-1.5" fill="#003a52"/></svg>