<?xml version="1.0" encoding="utf-8"?>
<!-- Generator: Adobe Illustrator 21.1.0, SVG Export Plug-In . SVG Version: 6.00 Build 0)  -->
<svg version="1.1" id="Ebene_1" xmlns="http://www.w3.org/2000/svg" xmlns:xlink="http://www.w3.org/1999/xlink" x="0px" y="0px"
	 viewBox="0 0 347 356.4" style="enable-background:new 0 0 347 356.4;" xml:space="preserve">
<path style="fill:#F3F7F8;" d="M233.2,209.1c-39.1,56.2-20,166.9-129.3,144.4S-25.4,193.6,40.7,128.8
	c66.1-64.9,175.5-93.6,228.7-51.6C360.2,149,259.5,171.3,233.2,209.1"/>
<path style="fill:none;stroke:#000000;stroke-miterlimit:10;" d="M311.7,169.7"/>
<path style="fill:none;stroke:#000000;stroke-miterlimit:10;" d="M311.7,169.7"/>
<path style="fill:none;stroke:#000000;stroke-miterlimit:10;" d="M159.7,42.2c53.4-14,105.3-10.7,138.8,15.7
	c68.5,54.2,46.9,85.1,13.2,111.8"/>
<g>
	<path style="fill:#003A52;" d="M179.6,184.3h13c2.6,0,4.5,0.1,5.8,0.3s2.4,0.7,3.4,1.3c1,0.7,1.8,1.6,2.5,2.7s1,2.4,1,3.8
		c0,1.5-0.4,2.9-1.2,4.2s-1.9,2.2-3.3,2.9c2,0.6,3.5,1.6,4.6,3s1.6,3,1.6,4.9c0,1.5-0.3,2.9-1,4.3s-1.6,2.5-2.8,3.4
		c-1.2,0.8-2.7,1.4-4.4,1.5c-1.1,0.1-3.7,0.2-7.9,0.2h-11.1v-32.5L179.6,184.3z M186.1,189.7v7.5h4.3c2.6,0,4.2,0,4.8-0.1
		c1.1-0.1,2-0.5,2.7-1.2c0.6-0.6,1-1.5,1-2.5s-0.3-1.8-0.8-2.5c-0.6-0.6-1.4-1-2.5-1.1c-0.7-0.1-2.5-0.1-5.6-0.1L186.1,189.7
		L186.1,189.7z M186.1,202.6v8.7h6.1c2.4,0,3.9-0.1,4.5-0.2c1-0.2,1.8-0.6,2.4-1.3c0.6-0.7,0.9-1.6,0.9-2.8c0-1-0.2-1.8-0.7-2.5
		s-1.2-1.2-2.1-1.5c-0.9-0.3-2.8-0.5-5.8-0.5h-5.3L186.1,202.6z M226.1,209.3l6.2,1c-0.8,2.3-2.1,4-3.8,5.2s-3.9,1.8-6.5,1.8
		c-4.1,0-7.1-1.3-9.1-4c-1.6-2.2-2.3-4.9-2.3-8.1c0-3.9,1-7,3.1-9.2c2-2.2,4.6-3.3,7.8-3.3c3.5,0,6.3,1.2,8.3,3.5s3,5.9,2.9,10.7
		H217c0,1.9,0.5,3.3,1.5,4.3s2.2,1.5,3.6,1.5c1,0,1.8-0.3,2.5-0.8C225.2,211.4,225.7,210.5,226.1,209.3L226.1,209.3z M226.4,203
		c0-1.8-0.5-3.2-1.4-4.1c-0.9-0.9-2-1.4-3.2-1.4c-1.4,0-2.5,0.5-3.4,1.5s-1.3,2.3-1.3,4H226.4L226.4,203z M237.2,218.4l7.1,0.9
		c0.1,0.8,0.4,1.4,0.8,1.7c0.6,0.4,1.5,0.7,2.8,0.7c1.6,0,2.9-0.2,3.7-0.7c0.5-0.3,1-0.9,1.2-1.6c0.2-0.5,0.3-6.4,0.3-6.4
		c-1.9,2.6-4.2,3.8-7.1,3.8c-3.2,0-5.7-1.3-7.5-4c-1.5-2.1-2.2-4.8-2.2-7.9c0-4,1-7,2.9-9.1s4.3-3.1,7.1-3.1c2.9,0,5.3,1.3,7.2,3.8
		v-3.3h5.9v21.2c0,2.8-0.2,4.9-0.7,6.3s-1.1,2.5-1.9,3.2c-0.8,0.8-1.9,1.4-3.3,1.8c-1.4,0.4-3.1,0.7-5.3,0.7c-4,0-6.8-0.7-8.5-2.1
		c-1.7-1.4-2.5-3.1-2.5-5.2C237.1,219,237.1,218.7,237.2,218.4L237.2,218.4z M242.7,204.6c0,2.5,0.5,4.3,1.5,5.5s2.2,1.7,3.6,1.7
		c1.5,0,2.8-0.6,3.9-1.8c1.1-1.2,1.6-3,1.6-5.3c0-2.4-0.5-4.3-1.5-5.5s-2.3-1.8-3.8-1.8s-2.7,0.6-3.7,1.7
		C243.2,200.4,242.7,202.2,242.7,204.6L242.7,204.6z M265.6,190v-5.8h6.3v5.8H265.6z M265.6,216.9v-23.6h6.3v23.6H265.6z
		 M299.7,216.9h-6.3v-12.1c0-2.6-0.1-4.2-0.4-4.9s-0.7-1.3-1.3-1.7c-0.6-0.4-1.3-0.6-2.2-0.6c-1.1,0-2.1,0.3-2.9,0.9
		c-0.9,0.6-1.4,1.4-1.8,2.4c-0.3,1-0.5,2.8-0.5,5.4V217H278v-23.6h5.8v3.5c2.1-2.7,4.7-4,7.8-4c1.4,0,2.6,0.2,3.8,0.7
		c1.1,0.5,2,1.1,2.6,1.9c0.6,0.8,1,1.6,1.2,2.6s0.3,2.4,0.3,4.2v14.6H299.7z M327.6,216.9h-6.3v-12.1c0-2.6-0.1-4.2-0.4-4.9
		s-0.7-1.3-1.3-1.7c-0.6-0.4-1.3-0.6-2.2-0.6c-1.1,0-2.1,0.3-2.9,0.9c-0.9,0.6-1.4,1.4-1.8,2.4c-0.3,1-0.5,2.8-0.5,5.4V217H306
		v-23.6h5.8v3.5c2.1-2.7,4.7-4,7.8-4c1.4,0,2.6,0.2,3.8,0.7c1.1,0.5,2,1.1,2.6,1.9c0.6,0.8,1,1.6,1.2,2.6s0.3,2.4,0.3,4.2v14.6
		H327.6z"/>
</g>
<path style="fill:#FF4141;" d="M64.1,226.1L64.1,226.1c-3.6,0-6.4,2.9-6.4,6.4v39.9c-0.2,3.5,2.5,6.5,6,6.6c3.5,0.2,6.5-2.5,6.6-6
	v-40.5C70.4,229.1,67.6,226.2,64.1,226.1 M93.8,193.5h-0.2c-3.5,0.1-6.3,2.9-6.2,6.4v36c-0.2,3.5,2.5,6.4,6,6.6
	c3.5,0.2,6.5-2.5,6.6-6v-36.6C100.1,196.4,97.3,193.5,93.8,193.5 M93.8,253.7h-0.2c-3.5,0.1-6.3,2.9-6.2,6.4v6.2
	c-0.2,3.5,2.5,6.5,6,6.6c3.5,0.2,6.5-2.5,6.6-6v-6.8C100.1,256.6,97.3,253.7,93.8,253.7 M123.6,217.4h-0.2c-3.5,0.1-6.3,2.9-6.2,6.4
	v24.8c-0.2,3.5,2.5,6.4,6,6.6s6.5-2.5,6.6-6v-25.4C129.9,220.3,127.1,217.5,123.6,217.4"/>
<path style="fill:#003A52;" d="M93.7,109.3c-8.5,0-15.4-6.9-15.4-15.3s6.9-15.3,15.4-15.3s15.4,6.9,15.4,15.3
	S102.2,109.3,93.7,109.3 M146.8,145.4c-2.4-8.9-9.4-21.9-19.3-24.3c1.5-7.1,2.3-14.3,2.3-21.5c0-30.7-13.2-60-36.2-80.5
	c-22.8,20.5-36,49.8-36,80.5c0,7.2,0.8,14.4,2.2,21.5c-9.8,2.5-16.7,15.4-19.1,24.3c-3.2,11.8,1,36.8,5.6,54.1
	c11.1-11,17.8-18.2,23.3-24.3c7.4,4.1,15.7,6.3,24.1,6.3s16.7-2.2,24.1-6.3c5.5,6.1,12.2,13.3,23.4,24.3
	C145.8,182.3,150,157.3,146.8,145.4"/>
</svg>
