<?xml version="1.0" encoding="utf-8"?>
<!-- Generator: Adobe Illustrator 21.1.0, SVG Export Plug-In . SVG Version: 6.00 Build 0)  -->
<svg version="1.1" id="Ebene_1" xmlns="http://www.w3.org/2000/svg" xmlns:xlink="http://www.w3.org/1999/xlink" x="0px" y="0px"
	 viewBox="0 0 385.5 250.9" style="enable-background:new 0 0 385.5 250.9;" xml:space="preserve">
<path style="fill:#F4F7F8;" d="M156.4,208.8c60.7-18.1,157.4,26.7,162.7-70.8c5.3-97.5-115.5-150.2-190.4-111.7
	C53.7,64.9,1.4,149.1,27.2,204.7C71.3,299.6,115.6,221,156.4,208.8"/>
<path style="fill:#00587A;" d="M96.2,20.5c-1.8,0.1-3.8-0.1-5.9,0c0.6,2,0.9,4.3,0.8,6.8C104.4,27.9,107.1,19.9,96.2,20.5"/>
<path style="fill:#003A52;" d="M75.5,30.5c0,5.5-3.9,9.9-8.7,9.9c-4.8,0-8.7-4.4-8.7-9.9s3.9-9.9,8.7-9.9
	C71.6,20.5,75.5,25,75.5,30.5"/>
<path style="fill:#003A52;" d="M73.2,28.8c-0.1-0.2-0.2-0.3-0.3-0.4c-4.7-3.4-16.6-9.5-21.3,4.4c-3.2,9.7,0.4,14.4-1.2,22.7
	c-0.2,0.9,0.8,1.6,1.6,1.1c3-1.7,10.1-2.9,10.7-12.4c1-16.4,6.7-16.7,10.9-11.9C76.5,35.7,73.8,30.1,73.2,28.8"/>
<path style="fill:#EDC4B9;" d="M72.9,61.4L72.9,61.4c2.8-0.1,5-2.5,5-5.3l-0.5-17.2L67,39.3l0.5,17.1C67.6,59.2,70,61.5,72.9,61.4"
	/>
<path style="fill:#FFD5C6;" d="M78.5,52.8h0.4C85.8,52.6,91.2,46.9,91,40l-0.4-15l-25.3,0.6l0.4,15C65.9,47.5,71.6,52.9,78.5,52.8"
	/>
<path style="fill:#003A52;" d="M64,35.1l2.8,4c0,0,3.2,2,3-4.3c-0.1-5.3,3.8-5,3.8-5s14.5,7.8,21-0.1c5.2-6.2-7.7-13-19.2-13.6
	l-11.9,7.2L64,35.1z"/>
<path style="fill:#FFD5C6;" d="M68.3,39.1c0.1,2.3-1.7,4.2-4,4.3c-2.3,0.1-4.2-1.7-4.3-4c-0.1-2.3,1.7-4.2,4-4.3
	C66.3,35,68.2,36.8,68.3,39.1"/>
<path style="fill:#00587A;" d="M90.4,22.4c-1.1-0.7-2-0.2-6.6,0.1c-5.2,0.4-10.4,1.5-14.6,3.1c-4.2,1.6-7.4,3.7-8.2,5.9
	c-0.4,0.4-1.4-3.8-1.7-6.8c0-0.2,0-0.3,0-0.5c-0.1-1.2,0-2.4,0.2-3.6c1-5,4.9-9.6,12.4-11.3c0,0,0.1,0,0.1,0
	c0.8-0.2,1.7-0.4,2.7-0.5c0.3,0,0.7-0.1,1-0.1c2-0.1,3.8,0,5.3,0.4c0.1,0,0.2,0.1,0.3,0.1c4,1.2,6.6,3.9,8,6.6
	C91,19.1,91.1,22.3,90.4,22.4"/>
<path style="fill:#00587A;" d="M100.2,20.8c-4.3-0.1-5.8,1.9-14.9,4.9c-6.9,2.3-13.6-0.1-18.4-1.2c1.6-1.5,18.2-4,27.3-4.1
	C96.6,20.4,99.8,20.7,100.2,20.8"/>
<path style="fill:#FFB287;" d="M79.1,51C79.1,51,79.1,51,79.1,51"/>
<path style="fill:#003A52;" d="M121.3,98.1c0.9,0,1.6-0.7,1.6-1.6V66.3l19.7-6.2c1.1-0.3,1.9-1.4,1.9-2.6v-6c0-1.3-1.1-2.4-2.4-2.4
	h-41c-0.9,0-1.6,0.7-1.6,1.6c0,0.9,0.7,1.6,1.6,1.6h40.2v4.9l-19.7,6.2c-1.1,0.3-1.9,1.4-1.9,2.6v30.5
	C119.7,97.4,120.5,98.1,121.3,98.1"/>
<path style="fill:none;stroke:#F4F7F8;stroke-width:4;" d="M121.3,98.1c0.9,0,1.6-0.7,1.6-1.6V66.3l19.7-6.2
	c1.1-0.3,1.9-1.4,1.9-2.6v-6c0-1.3-1.1-2.4-2.4-2.4h-41c-0.9,0-1.6,0.7-1.6,1.6c0,0.9,0.7,1.6,1.6,1.6h40.2v4.9l-19.7,6.2
	c-1.1,0.3-1.9,1.4-1.9,2.6v30.5C119.7,97.4,120.5,98.1,121.3,98.1z"/>
<path style="fill:#FFD5C6;" d="M122.8,90.1c-0.1-0.2-0.2-0.4-0.3-0.6c0.3-0.2,0.5-0.4,0.5-0.4c-0.2-0.1-0.3-6-0.3-6
	c-2.7,0-6.3-0.5-7.8,5.8l-1,0.4c-0.1,0-0.1,0.1-0.1,0.1c-0.1,0-0.2,0.1-0.3,0.1l-10.8,4l-7.4-21.5c-0.7-2.1-3-3.2-5.1-2.5
	c-2.1,0.7-3.2,3-2.5,5.1l8,23c0.6,1.7,1.7,2.9,3.3,3.7c0.9,0.4,1.8,0.6,2.7,0.6c0.8,0,1.5-0.1,2.2-0.4l12.4-4.6
	c0.2-0.1,0.3-0.1,0.5-0.2l3.7-1.4C122.6,94.5,123.6,92.2,122.8,90.1"/>
<path style="fill:#FF4141;" d="M90.3,123.2c-0.1,0.2-0.2,0.4-0.2,0.4S90.4,123.4,90.3,123.2"/>
<path style="fill:#ACC0C7;" d="M92,87.8l7.7-2.6l-2-6.1c-0.9-2.8-2.3-6.7-4.7-12.7c-0.5-1.2-4.1-8-6-9.2c-1.2-0.8-2.5-1.3-4-1.4
	c-0.2,0-0.5,0-0.8,0l-22.5,0.6c-0.2,0-1.5-0.1-1.8,0c-10.1,2.8-4.7,4.4-4.7,10.4v68.3c0,0,7-13.2,24.6-13.3
	c10.8-0.1,12.4,0.9,12.4,1.4c0.1-0.3-0.7-0.7-0.7-0.9c0.1-2.2,2-18.4,2.3-33C92,88.8,92,88.3,92,87.8"/>
<path style="fill:#16569B;" d="M76.8,149.7L81,142l-6.3,2.3L76.8,149.7z"/>
<path style="fill:#00587A;" d="M84.2,237.7c0-1.6-7.9-2.6-7.9-2.6s-3.4-2.4-5-4.3c-0.2-0.3-0.4-0.6-0.6-1c-0.3-0.8-0.8-2.3-1-3.1
	c-0.1-0.3-0.1-0.6-0.1-0.9v-3.4c0-1.7-0.5-3-2.1-3h-8.9c-1.7,0-3,1.3-3,3v5.6c0,0.8-0.3,1.4-0.8,2c-0.3,0.4-0.7,1-0.8,1.9
	c-0.1,0.6-0.2,4.4-0.3,7.2c-0.1,1.7,1.3,3.1,3,3.1c7,0.1,23.4,0.2,25.1,0.2c0.9,0,2.3-3.5,2.3-3.7C84.1,238.4,84.1,237.7,84.2,237.7
	"/>
<path style="fill:#00587A;" d="M109.1,237.6c-4.1-3.4-16.4-7.4-16.7-7.9v-10.1H80.2c0,0-0.2,9.6-0.2,9.7c0,0,0,0,0,0
	c0-0.1-1.4,9.1-1.4,10.1l0,0l0.2,3c0,0,26,0.2,28.2,0.2c4.1,0,3.1-3.3,2.6-4.4C109.5,238,109.3,237.8,109.1,237.6"/>
<path style="fill:#EAE3C3;" d="M70.5,94.9c1.3,0.3,3.8,0.8,5.3,0.8c1.4,0,1.3,1.1,1.3,2.3c0,2-2.1,3.7-2.1,3.7s-3.5,0.1-3.8-0.2
	c-0.3-0.3-2.5-1.1-2.3-1.9s1-2.4,1.3-2.7C70.7,96.7,70.5,94.9,70.5,94.9"/>
<path style="fill:#00587A;" d="M91.7,135.4c0,0,0.4-21.3,0.5-30.3c0.4-6.6,0.1-24.9-2.9-32.2c-0.2-6.8-1.8-17-7.5-17h-2.8h-0.2
	c5.5,1.6,6,12.8,6,18.6c-0.4,0.6-1.7,1.3-5.9,1.3c-5.4,0-6.4-1.4-6.6-1.9c0-6.6-1.5-18-7.6-18l-5.4,0.6c0.1,0,0.2,0,0.2,0
	c0.6,0,1.1,0.1,1.6,0.3c5.3,1.9,5.7,11,5.7,17l0,0c0,1.5-1.2,29.3-3.2,30.5l0,0c-0.1,0-6.8-0.2-6.8-0.2l-1.4-19.3l-2.2-2
	c0,0,0.1,42.4,0.1,45.5c-0.5,1.7-1.2,3.8-1.6,7.1c-0.5,4-0.2,10.3,1.6,14.9c-0.2,24.3-0.8,47.7,0,60.3c0,6.2,0.6,9.5,2.4,10.4
	c0,0,15-0.1,15.2-0.2c5-2.2,3.3-40.7,3.5-52.7c1.2,16.7,2.3,34.1,2.9,46c0.1,2.9,1.1,4.5,2.3,5.4c0.2,0.3,0.5,0.6,0.8,0.7
	c1.6,0.7,11.3,1.5,13,0c0.6-0.3,1.4-0.6,2-2.7c0.1-0.4,0.2-0.8,0.3-1.3C98.5,201.8,93.1,161.3,91.7,135.4"/>
<path style="fill:#ACC0C7;" d="M104.3,45.7c-1.1,0-2,0.9-2,2v6.6c0,1.1,0.9,2,2,2h33.8c1.1,0,2-0.9,2-2v-6.6c0-1.1-0.9-2-2-2
	L104.3,45.7L104.3,45.7z"/>
<path style="fill:#FF4141;" d="M137.9,45.7V53c0,0.3-0.2,0.6-0.6,0.6h-1c-0.3,0-0.6-0.3-0.6-0.6v-1.6c-0.1,0.2-0.3,0.3-0.5,0.3h-0.7
	v2.4c0,0.4-0.3,0.7-0.7,0.7h-1.2c-0.4,0-0.7-0.3-0.7-0.7v-2.4h-1v4.5h-9.7v-2.2h-3.2v2.2h-7.9v-0.7c-0.1,0-0.1,0-0.2,0H109
	c-0.4,0-0.7-0.3-0.7-0.7v-5H107v4c0,0.4-0.3,0.7-0.7,0.7h-1.2c-0.4,0-0.7-0.3-0.7-0.7v-8.3L137.9,45.7L137.9,45.7z"/>
<path style="fill:#FFE536;" d="M125.7,89.7H123H125.7z"/>
<path style="fill:#FFFFFF;" d="M11.8,226.4C11.8,226.4,11.8,226.4,11.8,226.4c0.5,0,0.9-0.4,0.9-1c-0.1-3.2,2-7.5,5.7-12.1
	c0.3-0.4,0.3-1-0.1-1.3c-0.4-0.3-1-0.3-1.3,0.1c-4.1,4.9-6.2,9.7-6.2,13.3C10.9,226,11.3,226.4,11.8,226.4"/>
<path style="fill:#ACC0C7;" d="M54.7,209.5l-40.3,0c-0.8,0-1.4,0.6-1.4,1.4v0.7v0.2v2.1c0,0.1,0,0.1,0,0.1c0,0.1,0,0.2,0,0.2v25.8
	c0,1.5,1.3,2.8,2.8,2.8h37.5c1.5,0,2.8-1.3,2.8-2.8v-25.8c0-0.1,0-0.1,0-0.2c0-0.1,0-0.1,0-0.1v-2.1v-0.2v-0.7
	C56.1,210.1,55.5,209.5,54.7,209.5"/>
<path style="fill:#FF4141;" d="M50,209.5V232c0,0.8-0.6,1.4-1.4,1.4H47c-0.8,0-1.4-0.6-1.4-1.4v-7.9c0-0.8-0.6-1.4-1.4-1.4h-3.5
	c-0.8,0-1.4,0.6-1.4,1.4v2.8c0,0.8-0.6,1.4-1.4,1.4h-3.1c-0.8,0-1.4,0.6-1.4,1.4v6.4c0,0.8-0.6,1.4-1.4,1.4H29
	c-0.8,0-1.4-0.6-1.4-1.4v-6.4c0-0.8-0.6-1.4-1.4-1.4h-3.9c-0.8,0-1.4,0.6-1.4,1.4v7.5c0,0.8-0.6,1.4-1.4,1.4h-5.1
	c-0.8,0-1.4-0.6-1.4-1.4v-27.8H50z"/>
<path style="fill:#003A52;" d="M19.1,232.2c9.5,0,24.5-8.6,33.4-19.2c0.3-0.4,0.3-1-0.1-1.3c-0.4-0.3-1-0.3-1.3,0.1
	c-8.5,10.2-22.9,18.5-32,18.5c-2.9,0-6.3-0.8-6.4-4.9c0-0.5-0.4-0.9-1-0.9c-0.5,0-0.9,0.5-0.9,1C10.9,227.5,11.8,232.2,19.1,232.2"
	/>
<path style="fill:#FFD5C6;" d="M76.5,100.2c0.9-0.1,1.6-1,1.5-1.9c-0.1-0.9-1-1.6-1.9-1.5c-3.7,0.5-7.3-0.3-10-0.9l-0.3-6.4
	c0,0-0.5,0.2-0.8,0.3c-1.2,0.6-1.3,3.9-3.5,4.9l-4,3.2l2,6.2l2.1,0.2c0.7,0.2,1.5,0.4,2.4,0.8c2.2,0.8,4.9,1.7,7.7,1.7
	c0.5,0,1,0,1.5-0.1c0.9-0.1,1.6-1,1.5-1.9c0-0.4-0.2-0.7-0.4-0.9c0.3,0,0.5,0,0.8-0.1c0.9-0.1,1.6-1,1.5-1.9c-0.1-0.9-1-1.6-1.9-1.5
	C72.4,100.7,75.6,100.3,76.5,100.2"/>
<path style="fill:#FFD5C6;" d="M39.6,101.4c-1.3-1.7-1.7-4-1.1-6.1l7-25.1c0.7-2.3,3-3.7,5.3-3c2.3,0.7,3.7,3,3,5.3l-4.4,23
	l14.1,2.5c2.4,0,4.4-0.5,4.4,1.9s3.5,6.8,1.1,6.8l-23.8-2C42.9,104.6,40.9,103.1,39.6,101.4L39.6,101.4z"/>
<path style="fill:#ACC0C7;" d="M56.6,83.1l-5.8,11l-11.3-4.7c0,0,4.3-15.2,6.4-22.1c1.5-4.9,4.5-9.4,10.4-10.3
	c0.6,0,1.1,0.2,1.7,0.4C59.8,60.4,56.6,83.1,56.6,83.1"/>
<path style="fill:#003A52;" d="M122.1,106.5h-1.3c-0.8,0-1.5-0.7-1.5-1.5V81.7c0-0.8,0.7-1.5,1.5-1.5h1.3c0.8,0,1.5,0.7,1.5,1.5V105
	C123.5,105.8,122.9,106.5,122.1,106.5"/>
<path style="fill:#FFD5C6;" d="M128,89.7c0-0.9-0.5-1.7-1.3-2c-0.1-0.8-0.5-1.4-0.9-1.9c-0.2-1-1.1-1.8-2.2-1.8h-2.7
	c-1.3,0-2.3,1-2.3,2.3c0,0.4,0.1,0.8,0.3,1.1c-0.7,0.4-1.2,1.1-1.2,2c0,1.3,1,2.3,2.3,2.3h0.1v0.1c0,2,1.5,3.7,3.3,3.7
	s3.3-1.7,3.3-3.7v-0.1C127.5,91.3,128,90.6,128,89.7"/>
<path style="fill:#E5AEA9;" d="M79.1,44.3c0,0.1,0,0.2,0.1,0.3c1.4,1.5,7.6,1.7,7.7,1.1c0.1-0.2,0.1-0.4,0.2-0.5l0,0
	c0.1-0.2-0.1-0.4-0.2-0.4c-0.8,0.1-2.7,0.2-4,0c-1.6-0.2-2.8-0.6-3.4-0.9C79.2,43.9,79.1,44.1,79.1,44.3"/>
<g style="enable-background:new    ;">
	<path style="fill:#003A52;" d="M108.1,150.1v-24h8.7c2.7,0,4.7,0.5,6.2,1.5c1.4,1,2.2,2.4,2.2,4.2c0,1.3-0.4,2.4-1.3,3.4
		c-0.9,1-2,1.6-3.4,2v0.1c1.7,0.2,3.1,0.8,4.1,1.9c1,1,1.5,2.3,1.5,3.8c0,2.2-0.8,3.9-2.4,5.2c-1.6,1.3-3.7,1.9-6.4,1.9H108.1z
		 M113.5,130.1v5.7h2.4c1.1,0,2-0.3,2.6-0.8c0.6-0.5,1-1.3,1-2.2c0-1.8-1.3-2.6-4-2.6H113.5z M113.5,139.8v6.3h2.9
		c1.3,0,2.2-0.3,2.9-0.9c0.7-0.6,1.1-1.4,1.1-2.4c0-1-0.3-1.7-1-2.3c-0.7-0.5-1.7-0.8-2.9-0.8H113.5z"/>
	<path style="fill:#003A52;" d="M145,143h-11.2c0.2,2.5,1.7,3.7,4.7,3.7c1.9,0,3.5-0.4,5-1.3v3.8c-1.6,0.8-3.6,1.3-6.2,1.3
		c-2.8,0-4.9-0.8-6.4-2.3c-1.5-1.5-2.3-3.7-2.3-6.4c0-2.8,0.8-5.1,2.5-6.8c1.7-1.7,3.7-2.5,6.1-2.5c2.5,0,4.4,0.7,5.8,2.2
		s2.1,3.5,2.1,6V143z M140.1,139.8c0-2.5-1-3.7-3-3.7c-0.8,0-1.6,0.4-2.2,1.1c-0.6,0.7-1,1.6-1.1,2.6H140.1z"/>
	<path style="fill:#003A52;" d="M159.3,137.7c-0.6-0.3-1.4-0.5-2.2-0.5c-1.2,0-2,0.4-2.7,1.3c-0.6,0.8-1,2-1,3.4v8.2h-5.3V133h5.3
		v3.2h0.1c0.8-2.3,2.3-3.5,4.5-3.5c0.6,0,1,0.1,1.3,0.2V137.7z"/>
	<path style="fill:#003A52;" d="M178.2,150.1h-5.3v-2.6h-0.1c-1.3,2-3.1,3-5.2,3c-4,0-6-2.4-6-7.2V133h5.3v9.9c0,2.4,1,3.6,2.9,3.6
		c0.9,0,1.7-0.3,2.3-1c0.6-0.7,0.9-1.6,0.9-2.7V133h5.3V150.1z"/>
	<path style="fill:#003A52;" d="M193.8,128.8c-0.7-0.3-1.3-0.4-2-0.4c-1.7,0-2.5,0.9-2.5,2.8v1.8h3.9v3.9h-3.9v13.2H184v-13.2h-2.9
		V133h2.9v-2.1c0-2,0.6-3.5,1.9-4.7c1.3-1.2,3-1.8,5.2-1.8c1.1,0,2,0.1,2.7,0.3V128.8z"/>
	<path style="fill:#003A52;" d="M194.6,149.7v-4.3c0.9,0.5,1.7,0.9,2.6,1.2c0.9,0.3,1.7,0.4,2.5,0.4c0.9,0,1.7-0.1,2.2-0.4
		c0.5-0.3,0.8-0.6,0.8-1.2c0-0.3-0.1-0.6-0.4-0.8c-0.2-0.2-0.6-0.4-0.9-0.6c-0.4-0.2-0.8-0.3-1.3-0.5c-0.5-0.1-0.9-0.3-1.3-0.5
		c-0.7-0.3-1.3-0.5-1.8-0.8c-0.5-0.3-1-0.6-1.3-1c-0.4-0.4-0.6-0.8-0.8-1.4c-0.2-0.5-0.3-1.1-0.3-1.8c0-1,0.2-1.8,0.6-2.5
		c0.4-0.7,1-1.3,1.7-1.7c0.7-0.4,1.5-0.8,2.4-1c0.9-0.2,1.8-0.3,2.8-0.3c0.8,0,1.5,0.1,2.3,0.2c0.8,0.1,1.6,0.3,2.3,0.5v4.1
		c-0.7-0.4-1.4-0.7-2.2-0.9c-0.8-0.2-1.5-0.3-2.3-0.3c-0.3,0-0.7,0-1,0.1c-0.3,0.1-0.6,0.2-0.8,0.3c-0.2,0.1-0.4,0.3-0.6,0.5
		c-0.1,0.2-0.2,0.4-0.2,0.6c0,0.3,0.1,0.6,0.3,0.8c0.2,0.2,0.5,0.4,0.8,0.6c0.3,0.2,0.7,0.3,1.1,0.4c0.4,0.1,0.8,0.3,1.2,0.4
		c0.7,0.2,1.3,0.5,1.9,0.8c0.6,0.3,1.1,0.6,1.5,1c0.4,0.4,0.7,0.8,0.9,1.4c0.2,0.5,0.3,1.2,0.3,1.9c0,1-0.2,1.9-0.7,2.6
		c-0.4,0.7-1,1.3-1.8,1.8c-0.7,0.5-1.6,0.8-2.5,1c-1,0.2-1.9,0.3-3,0.3C198,150.5,196.2,150.2,194.6,149.7z"/>
	<path style="fill:#003A52;" d="M225.1,150.1h-5v-2.5H220c-1.2,1.9-2.9,2.9-5.1,2.9c-1.7,0-3-0.5-3.9-1.4c-1-0.9-1.4-2.2-1.4-3.8
		c0-3.3,2-5.2,5.9-5.8l4.7-0.6c0-1.9-1-2.8-3-2.8c-2,0-4,0.6-5.8,1.8v-4c0.7-0.4,1.7-0.7,3-1c1.3-0.3,2.4-0.4,3.5-0.4
		c4.9,0,7.3,2.4,7.3,7.3V150.1z M220.2,143.1V142l-3.1,0.4c-1.7,0.2-2.6,1-2.6,2.3c0,0.6,0.2,1.1,0.6,1.5s1,0.6,1.7,0.6
		c1,0,1.8-0.3,2.4-1C219.8,145.1,220.2,144.2,220.2,143.1z"/>
	<path style="fill:#003A52;" d="M245.6,150.1h-5.3v-2.6h-0.1c-1.3,2-3.1,3-5.2,3c-4,0-6-2.4-6-7.2V133h5.3v9.9c0,2.4,1,3.6,2.9,3.6
		c0.9,0,1.7-0.3,2.3-1c0.6-0.7,0.9-1.6,0.9-2.7V133h5.3V150.1z"/>
	<path style="fill:#003A52;" d="M248.9,149.7v-4.3c0.9,0.5,1.7,0.9,2.6,1.2c0.9,0.3,1.7,0.4,2.5,0.4c0.9,0,1.7-0.1,2.2-0.4
		c0.5-0.3,0.8-0.6,0.8-1.2c0-0.3-0.1-0.6-0.4-0.8c-0.2-0.2-0.6-0.4-0.9-0.6c-0.4-0.2-0.8-0.3-1.3-0.5c-0.5-0.1-0.9-0.3-1.3-0.5
		c-0.7-0.3-1.3-0.5-1.8-0.8c-0.5-0.3-1-0.6-1.3-1c-0.4-0.4-0.6-0.8-0.8-1.4c-0.2-0.5-0.3-1.1-0.3-1.8c0-1,0.2-1.8,0.6-2.5
		c0.4-0.7,1-1.3,1.7-1.7c0.7-0.4,1.5-0.8,2.4-1c0.9-0.2,1.8-0.3,2.8-0.3c0.8,0,1.5,0.1,2.3,0.2c0.8,0.1,1.6,0.3,2.3,0.5v4.1
		c-0.7-0.4-1.4-0.7-2.2-0.9c-0.8-0.2-1.5-0.3-2.3-0.3c-0.3,0-0.7,0-1,0.1c-0.3,0.1-0.6,0.2-0.8,0.3c-0.2,0.1-0.4,0.3-0.6,0.5
		c-0.1,0.2-0.2,0.4-0.2,0.6c0,0.3,0.1,0.6,0.3,0.8c0.2,0.2,0.5,0.4,0.8,0.6c0.3,0.2,0.7,0.3,1.1,0.4c0.4,0.1,0.8,0.3,1.2,0.4
		c0.7,0.2,1.3,0.5,1.9,0.8c0.6,0.3,1.1,0.6,1.5,1c0.4,0.4,0.7,0.8,0.9,1.4c0.2,0.5,0.3,1.2,0.3,1.9c0,1-0.2,1.9-0.7,2.6
		c-0.4,0.7-1,1.3-1.8,1.8c-0.7,0.5-1.6,0.8-2.5,1c-1,0.2-1.9,0.3-3,0.3C252.3,150.5,250.6,150.2,248.9,149.7z"/>
	<path style="fill:#003A52;" d="M270.5,148.1L270.5,148.1l-0.1,2h-5.3v-25.4h5.3v10.8h0.1c1.3-2,3.2-3,5.6-3c2.2,0,3.9,0.8,5.1,2.3
		c1.2,1.5,1.8,3.6,1.8,6.2c0,2.9-0.7,5.2-2.1,6.9c-1.4,1.7-3.3,2.6-5.6,2.6C273.2,150.5,271.6,149.7,270.5,148.1z M270.4,140.9v1.8
		c0,1.1,0.3,2,1,2.7c0.6,0.7,1.5,1.1,2.4,1.1c1.2,0,2.1-0.5,2.8-1.4c0.7-0.9,1-2.3,1-4c0-1.4-0.3-2.5-0.9-3.3
		c-0.6-0.8-1.5-1.2-2.6-1.2c-1.1,0-1.9,0.4-2.6,1.2C270.7,138.6,270.4,139.6,270.4,140.9z"/>
	<path style="fill:#003A52;" d="M289.1,130.2c-0.9,0-1.6-0.3-2.2-0.8c-0.6-0.5-0.9-1.2-0.9-2c0-0.8,0.3-1.4,0.9-1.9
		c0.6-0.5,1.3-0.8,2.2-0.8c0.9,0,1.6,0.3,2.2,0.8c0.6,0.5,0.8,1.2,0.8,1.9c0,0.8-0.3,1.5-0.8,2C290.7,130,290,130.2,289.1,130.2z
		 M291.7,150.1h-5.3V133h5.3V150.1z"/>
	<path style="fill:#003A52;" d="M301.5,150.1h-5.3v-25.4h5.3V150.1z"/>
	<path style="fill:#003A52;" d="M322.7,150.1h-5.3v-2.4h-0.1c-1.2,1.9-3,2.8-5.3,2.8c-2.1,0-3.9-0.8-5.2-2.3c-1.3-1.5-2-3.6-2-6.3
		c0-2.8,0.7-5.1,2.2-6.8c1.4-1.7,3.3-2.6,5.7-2.6c2.2,0,3.8,0.8,4.6,2.4h0.1v-10.2h5.3V150.1z M317.5,141.8v-1.3c0-1.1-0.3-2-1-2.8
		c-0.6-0.7-1.5-1.1-2.5-1.1c-1.2,0-2.1,0.5-2.7,1.4c-0.7,0.9-1,2.2-1,3.8c0,1.5,0.3,2.7,1,3.5c0.6,0.8,1.5,1.2,2.6,1.2
		c1.1,0,1.9-0.4,2.6-1.3C317.2,144.3,317.5,143.2,317.5,141.8z"/>
	<path style="fill:#003A52;" d="M343.5,150.1h-5.3v-2.6h-0.1c-1.3,2-3.1,3-5.2,3c-4,0-6-2.4-6-7.2V133h5.3v9.9c0,2.4,1,3.6,2.9,3.6
		c0.9,0,1.7-0.3,2.3-1c0.6-0.7,0.9-1.6,0.9-2.7V133h5.3V150.1z"/>
	<path style="fill:#003A52;" d="M364.5,150.1h-5.3v-9.5c0-2.7-0.9-4-2.8-4c-0.9,0-1.7,0.4-2.3,1.1c-0.6,0.7-0.9,1.6-0.9,2.7v9.8
		h-5.3V133h5.3v2.7h0.1c1.3-2.1,3.1-3.1,5.5-3.1c3.8,0,5.7,2.4,5.7,7.1V150.1z"/>
	<path style="fill:#003A52;" d="M385.5,148.2c0,3.2-0.9,5.6-2.8,7.4c-1.8,1.7-4.5,2.6-8,2.6c-2.3,0-4.1-0.3-5.5-1v-4.5
		c1.8,1,3.5,1.5,5.3,1.5c1.8,0,3.2-0.5,4.2-1.4c1-0.9,1.5-2.2,1.5-3.8v-1.4h-0.1c-1.2,1.9-3,2.9-5.3,2.9c-2.2,0-3.9-0.8-5.2-2.3
		c-1.3-1.5-1.9-3.6-1.9-6.2c0-2.9,0.7-5.2,2.1-6.9c1.4-1.7,3.3-2.6,5.6-2.6c2.1,0,3.7,0.8,4.7,2.4h0.1v-2h5.3V148.2z M380.3,141.9
		v-1.4c0-1.1-0.3-2-1-2.8c-0.6-0.8-1.5-1.1-2.5-1.1c-1.2,0-2.1,0.5-2.8,1.4s-1,2.2-1,3.9c0,1.4,0.3,2.6,1,3.4
		c0.6,0.8,1.5,1.2,2.6,1.2c1.1,0,2-0.4,2.7-1.3C379.9,144.4,380.3,143.3,380.3,141.9z"/>
</g>
</svg>
