<svg xmlns="http://www.w3.org/2000/svg" viewBox="0 0 365.1 236.2"><path d="M167 184.1c-48.1-26.6-134.8-2.2-125.8-91.2 9-88.9 116.9-116.3 174.1-69s89.2 132.2 60 178.1c-49.9 78.3-76-.1-108.3-17.9" fill="#f3f7f8"/><g fill="#003a52"><path d="M2 147.1v-24.3h4.7v8.7c1.4-1.6 3.1-2.5 5.1-2.5 2.1 0 3.9.8 5.3 2.3 1.4 1.6 2.1 3.8 2.1 6.7 0 3-.7 5.3-2.1 6.9-1.4 1.6-3.2 2.4-5.2 2.4-1 0-2-.3-3-.8s-1.8-1.2-2.5-2.2v2.6H2zm4.6-9.2c0 1.8.3 3.2.9 4 .8 1.2 1.9 1.9 3.2 1.9 1 0 1.9-.4 2.6-1.3.7-.9 1.1-2.3 1.1-4.1 0-2-.4-3.5-1.1-4.3-.7-.9-1.7-1.3-2.8-1.3-1.1 0-2 .4-2.8 1.3-.7.7-1.1 2-1.1 3.8zM33.1 141.5l4.6.8c-.6 1.7-1.5 3-2.8 3.9-1.3.9-2.9 1.3-4.8 1.3-3.1 0-5.3-1-6.8-3-1.2-1.6-1.7-3.6-1.7-6.1 0-2.9.8-5.2 2.3-6.8 1.5-1.6 3.4-2.5 5.8-2.5 2.6 0 4.7.9 6.2 2.6 1.5 1.7 2.2 4.4 2.2 7.9H26.3c0 1.4.4 2.5 1.1 3.2.7.8 1.6 1.2 2.7 1.2.7 0 1.3-.2 1.8-.6.6-.4.9-1.1 1.2-1.9zm.3-4.7c0-1.3-.4-2.4-1-3.1-.7-.7-1.5-1.1-2.4-1.1-1 0-1.9.4-2.5 1.1-.7.7-1 1.7-1 3h6.9zM40.1 142l4.7-.7c.2.9.6 1.6 1.2 2.1s1.5.7 2.5.7c1.2 0 2.1-.2 2.7-.7.4-.3.6-.7.6-1.2 0-.4-.1-.6-.3-.9-.2-.2-.8-.4-1.6-.6-3.8-.8-6.1-1.6-7.1-2.3-1.4-.9-2.1-2.3-2.1-4 0-1.5.6-2.8 1.8-3.8 1.2-1 3.1-1.6 5.6-1.6 2.4 0 4.2.4 5.4 1.2 1.2.8 2 1.9 2.4 3.5l-4.4.8c-.2-.7-.5-1.2-1.1-1.6-.5-.4-1.3-.5-2.2-.5-1.2 0-2.1.2-2.6.5-.4.2-.5.6-.5.9 0 .3.2.6.5.8.4.3 1.9.7 4.3 1.3 2.5.6 4.2 1.3 5.2 2.1s1.5 2 1.5 3.5c0 1.6-.7 3-2 4.2-1.3 1.2-3.3 1.7-6 1.7-2.4 0-4.3-.5-5.7-1.5-1.4-.9-2.3-2.2-2.8-3.9zM59.5 138c0-1.5.4-3 1.1-4.5.8-1.4 1.8-2.5 3.2-3.3 1.4-.8 3-1.1 4.7-1.1 2.7 0 4.8.9 6.5 2.6 1.7 1.7 2.5 3.9 2.5 6.5 0 2.7-.9 4.9-2.6 6.6-1.7 1.7-3.9 2.6-6.5 2.6-1.6 0-3.1-.4-4.6-1.1-1.5-.7-2.6-1.8-3.3-3.2-.6-1.4-1-3.1-1-5.1zm4.8.3c0 1.7.4 3.1 1.2 4 .8.9 1.8 1.4 3.1 1.4 1.2 0 2.2-.5 3.1-1.4.8-.9 1.2-2.3 1.2-4 0-1.7-.4-3-1.2-4-.8-.9-1.8-1.4-3.1-1.4-1.2 0-2.2.5-3.1 1.4-.8.9-1.2 2.2-1.2 4zM97.3 147.1h-4.7v-9c0-1.9-.1-3.1-.3-3.7-.2-.6-.5-1-1-1.3-.4-.3-1-.5-1.6-.5-.8 0-1.5.2-2.2.7-.6.4-1.1 1-1.3 1.8-.2.7-.4 2.1-.4 4v8h-4.7v-17.6h4.3v2.6c1.5-2 3.5-3 5.8-3 1 0 2 .2 2.8.6.8.4 1.5.8 1.9 1.4.4.6.7 1.2.9 2 .2.7.3 1.8.3 3.1v10.9zM118.2 147.1h-4.3v-2.6c-.7 1-1.6 1.8-2.5 2.2-1 .5-2 .7-3 .7-2 0-3.7-.8-5.2-2.4-1.4-1.6-2.2-3.9-2.2-6.8 0-3 .7-5.2 2.1-6.8 1.4-1.6 3.2-2.3 5.3-2.3 2 0 3.7.8 5.1 2.5v-8.7h4.7v24.2zm-12.4-9.2c0 1.9.3 3.2.8 4.1.8 1.2 1.8 1.8 3.1 1.8 1.1 0 2-.5 2.7-1.4.8-.9 1.1-2.3 1.1-4.1 0-2-.4-3.5-1.1-4.4-.7-.9-1.7-1.3-2.8-1.3-1.1 0-2 .4-2.8 1.3-.7.9-1 2.2-1 4zM132.9 141.5l4.6.8c-.6 1.7-1.5 3-2.8 3.9-1.3.9-2.9 1.3-4.8 1.3-3.1 0-5.3-1-6.8-3-1.2-1.6-1.7-3.6-1.7-6.1 0-2.9.8-5.2 2.3-6.8 1.5-1.6 3.4-2.5 5.8-2.5 2.6 0 4.7.9 6.2 2.6 1.5 1.7 2.2 4.4 2.2 7.9h-11.7c0 1.4.4 2.5 1.1 3.2.7.8 1.6 1.2 2.7 1.2.7 0 1.3-.2 1.8-.6.5-.4.9-1.1 1.1-1.9zm.3-4.7c0-1.3-.4-2.4-1-3.1-.7-.7-1.5-1.1-2.4-1.1-1 0-1.9.4-2.5 1.1-.7.7-1 1.7-1 3h6.9zM146.1 147.1h-4.7v-17.6h4.3v2.5c.7-1.2 1.4-2 2-2.3.6-.4 1.3-.6 2-.6 1.1 0 2.1.3 3.1.9l-1.4 4.1c-.8-.5-1.5-.8-2.2-.8-.7 0-1.2.2-1.7.5-.5.4-.8 1-1.1 1.9-.3.9-.4 2.9-.4 5.9v5.5zM165 141.5l4.6.8c-.6 1.7-1.5 3-2.8 3.9-1.3.9-2.9 1.3-4.8 1.3-3.1 0-5.3-1-6.8-3-1.2-1.6-1.7-3.6-1.7-6.1 0-2.9.8-5.2 2.3-6.8 1.5-1.6 3.4-2.5 5.8-2.5 2.6 0 4.7.9 6.2 2.6 1.5 1.7 2.2 4.4 2.2 7.9h-11.7c0 1.4.4 2.5 1.1 3.2.7.8 1.6 1.2 2.7 1.2.7 0 1.3-.2 1.8-.6.5-.4.8-1.1 1.1-1.9zm.3-4.7c0-1.3-.4-2.4-1-3.1-.7-.7-1.5-1.1-2.4-1.1-1 0-1.9.4-2.5 1.1-.7.7-1 1.7-1 3h6.9z"/></g><g fill="#003a52"><path d="M2.4 181.3v-24.1h4.9v20h12.2v4.1H2.4zM33.1 175.7l4.6.8c-.6 1.7-1.5 3-2.8 3.9-1.3.9-2.9 1.3-4.8 1.3-3.1 0-5.3-1-6.8-3-1.2-1.6-1.7-3.6-1.7-6.1 0-2.9.8-5.2 2.3-6.8 1.5-1.6 3.4-2.5 5.8-2.5 2.6 0 4.7.9 6.2 2.6 1.5 1.7 2.2 4.4 2.2 7.9H26.3c0 1.4.4 2.5 1.1 3.2.7.8 1.6 1.2 2.7 1.2.7 0 1.3-.2 1.8-.6.6-.3.9-1 1.2-1.9zm.3-4.7c0-1.3-.4-2.4-1-3.1-.7-.7-1.5-1.1-2.4-1.1-1 0-1.9.4-2.5 1.1-.7.7-1 1.7-1 3h6.9zM41.6 181.3V157h4.7v8.7c1.4-1.6 3.1-2.5 5.1-2.5 2.1 0 3.9.8 5.3 2.3 1.4 1.6 2.1 3.8 2.1 6.7 0 3-.7 5.3-2.1 6.9-1.4 1.6-3.2 2.4-5.2 2.4-1 0-2-.3-3-.8s-1.8-1.2-2.5-2.2v2.6h-4.4zm4.6-9.1c0 1.8.3 3.2.9 4 .8 1.2 1.9 1.9 3.2 1.9 1 0 1.9-.4 2.6-1.3.7-.9 1.1-2.3 1.1-4.1 0-2-.4-3.5-1.1-4.3-.7-.9-1.7-1.3-2.8-1.3-1.1 0-2 .4-2.8 1.3-.7.7-1.1 2-1.1 3.8zM72.7 175.7l4.6.8c-.6 1.7-1.5 3-2.8 3.9-1.3.9-2.9 1.3-4.8 1.3-3.1 0-5.3-1-6.8-3-1.2-1.6-1.7-3.6-1.7-6.1 0-2.9.8-5.2 2.3-6.8 1.5-1.6 3.4-2.5 5.8-2.5 2.6 0 4.7.9 6.2 2.6 1.5 1.7 2.2 4.4 2.2 7.9H65.9c0 1.4.4 2.5 1.1 3.2.7.8 1.6 1.2 2.7 1.2.7 0 1.3-.2 1.8-.6.5-.3.9-1 1.2-1.9zm.2-4.7c0-1.3-.4-2.4-1-3.1-.7-.7-1.5-1.1-2.4-1.1-1 0-1.9.4-2.5 1.1-.7.7-1 1.7-1 3h6.9zM97.3 181.3h-4.7v-9c0-1.9-.1-3.1-.3-3.7-.2-.6-.5-1-1-1.3-.4-.3-1-.5-1.6-.5-.8 0-1.5.2-2.2.7-.6.4-1.1 1-1.3 1.8s-.4 2.1-.4 4v8h-4.7v-17.6h4.3v2.6c1.5-2 3.5-3 5.8-3 1 0 2 .2 2.8.6.8.4 1.5.8 1.9 1.4.4.6.7 1.2.9 2 .2.7.3 1.8.3 3.1v10.9zM100.4 176.3l4.7-.7c.2.9.6 1.6 1.2 2.1s1.5.7 2.5.7c1.2 0 2.1-.2 2.7-.7.4-.3.6-.7.6-1.2 0-.4-.1-.6-.3-.9-.2-.2-.8-.4-1.6-.6-3.8-.8-6.1-1.6-7.1-2.3-1.4-.9-2.1-2.3-2.1-4 0-1.5.6-2.8 1.8-3.8 1.2-1 3.1-1.6 5.6-1.6 2.4 0 4.2.4 5.4 1.2 1.2.8 2 1.9 2.4 3.5l-4.4.8c-.2-.7-.5-1.2-1.1-1.6-.5-.4-1.3-.5-2.2-.5-1.2 0-2.1.2-2.6.5-.4.2-.5.6-.5.9 0 .3.2.6.5.8.4.3 1.9.7 4.3 1.3 2.5.6 4.2 1.3 5.2 2.1s1.5 2 1.5 3.5c0 1.6-.7 3-2 4.2-1.3 1.2-3.3 1.7-6 1.7-2.4 0-4.3-.5-5.7-1.5-1.5-.9-2.4-2.2-2.8-3.9zM132.5 181.3v-2.6c-.6.9-1.5 1.7-2.5 2.2-1 .5-2.1.8-3.3.8-1.2 0-2.2-.3-3.2-.8-.9-.5-1.6-1.2-2-2.2-.4-.9-.6-2.2-.6-3.9v-11.1h4.7v8.1c0 2.5.1 4 .3 4.5.2.6.5 1 .9 1.3.5.3 1 .5 1.7.5.8 0 1.5-.2 2.1-.7.6-.4 1.1-1 1.3-1.6.2-.6.3-2.2.3-4.7v-7.4h4.7v17.6h-4.4zM141.3 163.8h4.3v2.4c1.5-1.9 3.4-2.8 5.5-2.8 1.1 0 2.1.2 2.9.7.8.5 1.5 1.2 2 2.1.8-.9 1.6-1.6 2.5-2.1.9-.5 1.8-.7 2.9-.7 1.3 0 2.4.3 3.3.8.9.5 1.6 1.3 2 2.3.3.8.5 2 .5 3.6v11.2h-4.7v-10c0-1.7-.2-2.9-.5-3.4-.4-.7-1.1-1-2-1-.7 0-1.3.2-1.8.6-.6.4-1 1-1.2 1.7-.3.8-.4 2-.4 3.6v8.4h-4.7v-9.6c0-1.7-.1-2.8-.2-3.3-.2-.5-.4-.9-.8-1.1-.3-.2-.8-.4-1.4-.4-.7 0-1.4.2-1.9.6-.6.4-1 .9-1.2 1.7-.2.7-.4 1.9-.4 3.6v8.5h-4.7v-17.4zM170.1 176.3l4.7-.7c.2.9.6 1.6 1.2 2.1s1.5.7 2.5.7c1.2 0 2.1-.2 2.7-.7.4-.3.6-.7.6-1.2 0-.4-.1-.6-.3-.9-.2-.2-.8-.4-1.6-.6-3.8-.8-6.1-1.6-7.1-2.3-1.4-.9-2.1-2.3-2.1-4 0-1.5.6-2.8 1.8-3.8 1.2-1 3.1-1.6 5.6-1.6 2.4 0 4.2.4 5.4 1.2 1.2.8 2 1.9 2.4 3.5l-4.4.8c-.2-.7-.5-1.2-1.1-1.6-.5-.4-1.3-.5-2.2-.5-1.2 0-2.1.2-2.6.5-.4.2-.5.6-.5.9 0 .3.2.6.5.8.4.3 1.9.7 4.3 1.3 2.5.6 4.2 1.3 5.2 2.1s1.5 2 1.5 3.5c0 1.6-.7 3-2 4.2s-3.3 1.7-6 1.7c-2.4 0-4.3-.5-5.7-1.5-1.4-.9-2.4-2.2-2.8-3.9zM198.7 163.8v3.7h-3.2v7.1c0 1.4 0 2.3.1 2.5.1.2.2.4.4.6.2.2.5.2.8.2.4 0 1.1-.1 1.9-.4l.4 3.6c-1.1.5-2.3.7-3.7.7-.8 0-1.6-.1-2.3-.4-.7-.3-1.2-.6-1.5-1.1-.3-.4-.5-1.1-.7-1.8-.1-.5-.1-1.6-.1-3.3v-7.7h-2.1v-3.7h2.1v-3.5l4.7-2.7v6.2h3.2zM205.4 169.1l-4.2-.8c.5-1.7 1.3-3 2.5-3.8 1.2-.8 2.9-1.2 5.2-1.2 2.1 0 3.6.2 4.6.7 1 .5 1.7 1.1 2.1 1.9.4.8.6 2.1.6 4.2v5.4c0 1.5.1 2.7.2 3.4.1.7.4 1.5.8 2.4h-4.6c-.1-.3-.3-.8-.4-1.4-.1-.3-.1-.5-.2-.5-.8.8-1.6 1.4-2.5 1.7-.9.4-1.9.6-2.9.6-1.8 0-3.2-.5-4.3-1.5-1-1-1.6-2.2-1.6-3.7 0-1 .2-1.9.7-2.7.5-.8 1.1-1.4 2-1.8.9-.4 2.1-.8 3.7-1.1 2.2-.4 3.7-.8 4.5-1.1v-.5c0-.9-.2-1.5-.7-1.9-.4-.4-1.3-.6-2.5-.6-.8 0-1.5.2-1.9.5-.5.4-.8 1-1.1 1.8zm-2-8.5v-4h4v4h-4zm8.2 12.3c-.6.2-1.5.4-2.8.7-1.3.3-2.1.5-2.5.8-.6.4-.9 1-.9 1.6 0 .7.2 1.2.7 1.7.5.5 1.1.7 1.9.7.8 0 1.6-.3 2.4-.8.6-.4.9-.9 1.1-1.5.1-.4.2-1.2.2-2.3v-.9zm-1.1-12.3v-4h4v4h-4zM236.8 181.3h-4.7v-9c0-1.9-.1-3.1-.3-3.7-.2-.6-.5-1-1-1.3-.4-.3-1-.5-1.6-.5-.8 0-1.5.2-2.2.7-.6.4-1.1 1-1.3 1.8s-.4 2.1-.4 4v8h-4.7v-17.6h4.3v2.6c1.5-2 3.5-3 5.8-3 1 0 2 .2 2.8.6.8.4 1.5.8 1.9 1.4.4.6.7 1.2.9 2 .2.7.3 1.8.3 3.1v10.9zM257.6 181.3h-4.3v-2.6c-.7 1-1.6 1.8-2.5 2.2-1 .5-2 .7-3 .7-2 0-3.7-.8-5.2-2.4-1.4-1.6-2.2-3.9-2.2-6.8 0-3 .7-5.2 2.1-6.8 1.4-1.6 3.2-2.3 5.3-2.3 2 0 3.7.8 5.1 2.5v-8.7h4.7v24.2zm-12.4-9.1c0 1.9.3 3.2.8 4.1.8 1.2 1.8 1.8 3.1 1.8 1.1 0 2-.5 2.7-1.4.8-.9 1.1-2.3 1.1-4.1 0-2-.4-3.5-1.1-4.4-.7-.9-1.7-1.3-2.8-1.3-1.1 0-2 .4-2.8 1.3-.6.9-1 2.2-1 4zM272.4 175.7l4.6.8c-.6 1.7-1.5 3-2.8 3.9-1.3.9-2.9 1.3-4.8 1.3-3.1 0-5.3-1-6.8-3-1.2-1.6-1.7-3.6-1.7-6.1 0-2.9.8-5.2 2.3-6.8 1.5-1.6 3.4-2.5 5.8-2.5 2.6 0 4.7.9 6.2 2.6 1.5 1.7 2.2 4.4 2.2 7.9h-11.7c0 1.4.4 2.5 1.1 3.2.7.8 1.6 1.2 2.7 1.2.7 0 1.3-.2 1.8-.6.4-.3.8-1 1.1-1.9zm.2-4.7c0-1.3-.4-2.4-1-3.1-.7-.7-1.5-1.1-2.4-1.1-1 0-1.9.4-2.5 1.1-.7.7-1 1.7-1 3h6.9z"/></g><path d="M333.8 63.9c.1.1.1.2.2.4l31.2 85.5h-11l-13.8-37.9H324l-12.4 37.9h-11.4l12.3-37.9h-82.6l13.8 37.9h-11.6l-24-65.8-21.5 65.8H175l27.8-85.3c.1-.3.2-.6.4-.9l.1-.1c.1-.1.2-.3.3-.4.1-.1.2-.2.4-.3.1-.1.2-.2.4-.3.1-.1.3-.2.5-.2.1-.1.3-.1.4-.1.2 0 .4-.1.6-.1h125.2c.2 0 .3 0 .5.1.1 0 .3.1.5.1.1.1.3.1.4.2s.3.2.4.3l.3.3c.1.1.2.2.2.3.1.1.2.3.3.4v.1c0-.1.1 0 .1 0zm1.4 41.5h7l-3.1-8.5h.1l-4.1-11-6.2-17.1H210.4l3.9 10.5 4 10.7 5.8 15.5h111.1z" fill="#003a52"/><path d="M218.4 90l22.2 15.5h11.3l-37.5-26.2 4 10.7zM226.6 68.8l52.2 36.7h.4L227 68.8h-.4zM267.5 105.5h.1l-52.4-36.7 52.3 36.7z" fill="#ff4141"/><path d="M215.5 68.8l52.2 36.7h11.2l-52.2-36.7h-11.2zM254.1 68.8l52.4 36.7h.2l-52.3-36.7h-.3z" fill="#ff4141"/><path d="M243 68.8l52.2 36.7h11.2l-52.2-36.7H243zM271.4 68.8l52.3 36.7h.3l-52.4-36.7h-.2zM271.7 68.8l52.3 36.7h11.2L283 68.8h-11.3zM310.6 69h-.1l24.6 17-24.5-17z" fill="#ff4141"/><path d="M339.2 96.4l.1.4.1.1-4.1-11-24.6-17.1h-11.3l39.8 27.6z" fill="#ff4141"/></svg>