<?xml version="1.0" encoding="utf-8"?>
<!-- Generator: Adobe Illustrator 21.1.0, SVG Export Plug-In . SVG Version: 6.00 Build 0)  -->
<svg version="1.1" id="Ebene_1" xmlns="http://www.w3.org/2000/svg" xmlns:xlink="http://www.w3.org/1999/xlink" x="0px" y="0px"
	 viewBox="0 0 339.9 231.4" style="enable-background:new 0 0 339.9 231.4;" xml:space="preserve">
<path style="fill:#F4F7F8;" d="M220.6,69.2C163.3,62.2,99-10.5,59,68.8c-40,79.3,41.5,167.3,118.1,162.6
	c76.6-4.7,150.9-55.9,149.7-111.6C324.6,24.6,259,73.9,220.6,69.2"/>
<path style="fill:#003A52;" d="M79.2,143.1H29.3c-9.9,0-18.1-7.4-19.2-17.2L2.9,51l-0.7,0.1L9.4,126c1.1,10.1,9.7,17.8,19.9,17.8h21
	v52.8H51v-52.8h28.2V143.1z"/>
<path style="fill:#FFD5C6;" d="M53.9,62.5L65,90l0.2,0.6c0.7,1.6,2.2,2.6,3.9,2.6l31.7-0.2c1.3,0,2.3-1.1,2.3-2.3
	c0-1.2-0.9-2.1-2-2.3l-31.3-4.6l4.2,3.2l-7.5-28.6c-0.9-3.6-4.6-5.7-8.1-4.8c-3.6,0.9-5.7,4.6-4.8,8.1C53.7,62,53.8,62.3,53.9,62.5"
	/>
<path style="fill:#FFD5C6;" d="M97.4,87.8l10.8-0.2c2.7,0,4.8,2.4,4.8,5.4l0,0H97.2L97.4,87.8z"/>
<path style="fill:#F75543;" d="M54.1,70.1l-2.8-15.4c-0.8-4.1,2.1-8.1,6.4-8.7c3.6-0.5,7,1.5,8.3,4.8"/>
<path style="fill:#003A52;" d="M62.9,0.9c0,0-14.8-5-22.6,9c-0.5,0.8-0.9,1.6-1.6,2.3c-1.6,1.9-4.9,5.3-8.5,6.4
	C15.8,23,6.6,50.3,35.4,52.7c35.9,3,46.2-4,41-18.4C72.7,24.2,76,16.9,76,16.9L62.9,0.9z"/>
<path style="fill:#FF4141;" d="M51,37.5l7.7,3.4c4.6,2,7.5,6.6,7.4,11.6C66,62.5,63.8,87.5,55.2,97.1H29.3
	c-4-17.7-1.7-44.9-1.7-44.9c-0.3-6.7,4.7-12.4,11.3-13.2L51,37.5z"/>
<path style="fill:#EDC4B9;" d="M50.3,45.7L50.3,45.7c2.7,0.3,5.2-1.6,5.5-4.3L57.9,25l-9.9-1.1L46,40.2
	C45.6,42.9,47.6,45.4,50.3,45.7"/>
<path style="fill:#FFD5C6;" d="M58,38.2l0.4,0.1C65,39.1,71,34.5,71.9,27.9l1.9-14.4l-24.2-3.2l-1.9,14.4
	C46.8,31.3,51.4,37.3,58,38.2"/>
<path style="fill:#003A52;" d="M47.3,18.3l2.1,4.3c0,0,2.8,2.4,3.5-3.6c0.7-5.1,4.3-4.2,4.3-4.2s12.6,9.5,20,3
	c5.8-5.2-3.6-14.6-14.4-16.9L48.7,7.1L47.3,18.3z"/>
<path style="fill:#FFD5C6;" d="M50.8,22.7c-0.3,2.2-2.3,3.8-4.5,3.5c-2.2-0.3-3.8-2.3-3.5-4.5c0.3-2.2,2.3-3.8,4.5-3.5
	C49.5,18.6,51.1,20.5,50.8,22.7"/>
<path style="fill:#FFD5C6;" d="M92.8,92.8c0-3-2.2-5.5-4.8-5.5l-10.5,0.2l-23.7-4l-7.4-25.9c-0.9-3.6-4.6-5.8-8.2-4.8
	c-3.6,0.9-5.8,4.6-4.8,8.2c0.1,0.3,0.2,0.6,0.3,0.8l11.1,28l0.2,0.6c0.7,1.7,2.3,2.7,3.9,2.7L77,92.8l0,0H92.8z"/>
<path style="fill:#003A52;" d="M129.3,212.9c-0.3-0.9-1.1-1.7-2.1-1.9l-8.5-2.1c-0.3-0.1-0.7-0.3-0.9-0.5l-5.2-4.3
	c-0.5-0.5-1.2-1.5-1.8-1.2c-0.1,0-0.2,0-0.2-0.1v-1c0,0,0,0,0,0l3.9-67c0.3-5.6-2.7-10.8-7.7-13.4l-49-22.9l-2.3-1.4
	c-0.1-0.1-0.3-0.1-0.4-0.1H29.7c-0.3,0-0.5,0.1-0.7,0.4c-1.6,2.6-10.5,17.9,0.2,29.9c6.8,7.6,32.5,9.8,47,10.5c0.5,0,0.9,0.5,0.7,1
	l-16.9,68.9l-0.6,2c-0.1,0.3,0.1,0.6-0.3,0.6c0,0,0,0,0,0c-0.3,0-0.6,0.3-0.7,0.6l-2.6,7.7c-0.1,0.9,0.7,1.8,1.6,1.8l28.8,0.7
	c0.7,0,1.1-0.6,1.3-1.4l-0.2-0.8c-0.4-1.2-1.4-1.8-2.6-2.3l-7.3-1.8c-0.1,0-0.7-0.8-1.4-1l-3.8-2.8c-0.2-0.2-0.9-1.1-2-1.2
	c-0.6,0-0.5-1.1-0.2-1.6l24.4-56.2l7.7,51.3l0.3,1.4c0,0.1-0.1,0.2-0.2,0.1L102,205c-0.1,0-0.2,0.1-0.2,0.2l-1,7.7
	c-0.1,1,0.7,1.9,1.7,1.9l25.7,0.5c0.7,0,1.1-0.5,1.4-1.4L129.3,212.9z"/>
<polygon style="fill:#003A52;" points="200.9,96.8 42.2,96.8 42.2,99.2 126.6,99.2 126.6,194.7 127.3,194.7 127.3,99.2 200.9,99.2 
	"/>
<path style="fill:#ACC0C7;" d="M162.4,54.3h-44.8L103.1,93h0H73.8c-1,0-1.9,0.8-1.9,1.9c0,1,0.8,1.9,1.9,1.9h29.3h1.3H147
	c1.9,0,3.4-1.5,3.4-3.4V93h0.1L164,56.5C164.4,55.4,163.6,54.3,162.4,54.3z"/>
<path style="fill:#E5AEA9;" d="M59.4,31.2c0,0.1,0,0.2-0.1,0.3c0.6,1.8,5.4,3,5.6,2.4c0.1-0.2,0.2-0.4,0.3-0.5c0,0,0,0,0,0
	c0.1-0.2,0.1-0.4,0-0.4c-0.6-0.1-2.2-0.2-3.2-0.6c-1.2-0.5-2-1.1-2.3-1.4C59.7,30.8,59.5,31,59.4,31.2"/>
<g style="enable-background:new    ;">
	<path style="fill:#003A52;" d="M123.2,163.6v-8.8c1.6,1.3,3.3,2.3,5.2,3c1.9,0.7,3.8,1,5.7,1c1.1,0,2.1-0.1,2.9-0.3
		c0.8-0.2,1.5-0.5,2.1-0.8c0.6-0.4,1-0.8,1.3-1.3c0.3-0.5,0.4-1,0.4-1.6c0-0.8-0.2-1.5-0.7-2.1c-0.4-0.6-1-1.2-1.8-1.7
		c-0.8-0.5-1.7-1-2.7-1.5s-2.2-1-3.4-1.5c-3.1-1.3-5.4-2.8-6.9-4.7s-2.3-4.1-2.3-6.7c0-2.1,0.4-3.8,1.2-5.3c0.8-1.5,1.9-2.7,3.4-3.6
		c1.4-1,3.1-1.7,4.9-2.1c1.9-0.4,3.8-0.7,5.9-0.7c2.1,0,3.9,0.1,5.5,0.4c1.6,0.2,3,0.6,4.4,1.1v8.2c-0.7-0.5-1.4-0.9-2.2-1.2
		c-0.8-0.3-1.6-0.6-2.4-0.9s-1.6-0.4-2.5-0.5c-0.8-0.1-1.6-0.2-2.3-0.2c-1,0-1.9,0.1-2.7,0.3c-0.8,0.2-1.5,0.5-2.1,0.8
		c-0.6,0.3-1,0.8-1.3,1.3c-0.3,0.5-0.5,1-0.5,1.6c0,0.7,0.2,1.3,0.5,1.8c0.3,0.5,0.8,1,1.5,1.5c0.6,0.5,1.4,0.9,2.3,1.4
		c0.9,0.4,2,0.9,3.1,1.4c1.6,0.7,3,1.4,4.2,2.1c1.3,0.7,2.3,1.6,3.2,2.5c0.9,0.9,1.6,2,2.1,3.2c0.5,1.2,0.7,2.6,0.7,4.2
		c0,2.2-0.4,4-1.3,5.5c-0.8,1.5-2,2.7-3.4,3.6c-1.4,0.9-3.1,1.6-5,2c-1.9,0.4-3.9,0.6-6,0.6c-2.2,0-4.2-0.2-6.2-0.6
		C126.3,164.9,124.6,164.3,123.2,163.6z"/>
	<path style="fill:#003A52;" d="M171.3,164.8c-1.3,0.7-3.2,1-5.8,1c-6.1,0-9.2-3.2-9.2-9.5v-12.9h-4.6v-6.4h4.6v-6.1l8.7-2.5v8.6
		h6.3v6.4H165v11.4c0,2.9,1.2,4.4,3.5,4.4c0.9,0,1.9-0.3,2.8-0.8V164.8z"/>
	<path style="fill:#003A52;" d="M203,165.1h-8.7v-4.3h-0.1c-2.1,3.3-5,5-8.6,5c-6.5,0-9.8-3.9-9.8-11.8v-17h8.7v16.2
		c0,4,1.6,6,4.7,6c1.6,0,2.8-0.5,3.7-1.6c0.9-1.1,1.4-2.6,1.4-4.4v-16.1h8.7V165.1z"/>
	<path style="fill:#003A52;" d="M237.8,165.1h-8.7v-3.9H229c-2,3-4.9,4.6-8.7,4.6c-3.5,0-6.4-1.2-8.5-3.7c-2.1-2.5-3.2-6-3.2-10.4
		c0-4.7,1.2-8.4,3.5-11.2c2.4-2.8,5.5-4.2,9.3-4.2c3.6,0,6.2,1.3,7.6,3.9h0.1v-16.7h8.7V165.1z M229.3,151.4v-2.1
		c0-1.8-0.5-3.4-1.6-4.6c-1.1-1.2-2.4-1.8-4.2-1.8c-1.9,0-3.4,0.8-4.5,2.3c-1.1,1.5-1.6,3.6-1.6,6.2c0,2.5,0.5,4.4,1.6,5.7
		c1,1.3,2.5,2,4.3,2c1.8,0,3.2-0.7,4.3-2.1S229.3,153.7,229.3,151.4z"/>
	<path style="fill:#003A52;" d="M249.5,132.5c-1.5,0-2.7-0.4-3.6-1.3c-0.9-0.9-1.4-1.9-1.4-3.2c0-1.3,0.5-2.4,1.4-3.2
		s2.1-1.2,3.6-1.2c1.5,0,2.7,0.4,3.6,1.2c0.9,0.8,1.4,1.9,1.4,3.2c0,1.3-0.5,2.4-1.4,3.2C252.2,132.1,251,132.5,249.5,132.5z
		 M253.8,165.1h-8.7v-28.2h8.7V165.1z"/>
	<path style="fill:#003A52;" d="M287.9,165.1h-8.7v-4.3h-0.1c-2.1,3.3-5,5-8.6,5c-6.5,0-9.8-3.9-9.8-11.8v-17h8.7v16.2
		c0,4,1.6,6,4.7,6c1.6,0,2.8-0.5,3.7-1.6c0.9-1.1,1.4-2.6,1.4-4.4v-16.1h8.7V165.1z"/>
	<path style="fill:#003A52;" d="M339.9,165.1h-8.7V149c0-4.1-1.5-6.1-4.5-6.1c-1.4,0-2.6,0.6-3.5,1.8c-0.9,1.2-1.3,2.8-1.3,4.6v15.8
		h-8.7v-16.2c0-4-1.5-6-4.4-6c-1.5,0-2.7,0.6-3.6,1.8c-0.9,1.2-1.3,2.8-1.3,4.8v15.6h-8.7v-28.2h8.7v4.4h0.1
		c0.9-1.5,2.2-2.7,3.8-3.7c1.6-0.9,3.4-1.4,5.3-1.4c4,0,6.7,1.8,8.2,5.3c2.1-3.5,5.3-5.3,9.5-5.3c6.1,0,9.2,3.8,9.2,11.3V165.1z"/>
</g>
</svg>
