<?xml version="1.0" encoding="utf-8"?>
<!-- Generator: Adobe Illustrator 21.1.0, SVG Export Plug-In . SVG Version: 6.00 Build 0)  -->
<svg version="1.1" id="Ebene_1" xmlns="http://www.w3.org/2000/svg" xmlns:xlink="http://www.w3.org/1999/xlink" x="0px" y="0px"
	 viewBox="0 0 331.1 290" style="enable-background:new 0 0 331.1 290;" xml:space="preserve">
<path style="fill:#F3F7F8;" d="M80.4,135.6c26.8-51.5-1-142.5,93.1-135.2S299.2,121,250.7,182.6s-137.4,97.5-186.5,67.8
	C-19.8,199.7,62.4,170.2,80.4,135.6"/>
<path style="fill:none;stroke:#000000;stroke-miterlimit:10;" d="M270.8,193c-3.5,4.5-7.3,8.9-11.1,13.1
	C199.8,271.9,102.3,307.9,47,274.4C-0.2,245.9-3.7,223,8.2,202.5"/>
<path style="fill:none;stroke:#000000;stroke-width:2;stroke-miterlimit:10;" d="M66.5,136.6"/>
<g style="enable-background:new    ;">
	<path style="fill:#003A52;" d="M33.2,127.8L22,96.3h6.9l8,23.3l7.7-23.3h6.7L40,127.8H33.2z"/>
	<path style="fill:#003A52;" d="M65.3,120.5l6,1c-0.8,2.2-2,3.9-3.7,5c-1.7,1.2-3.8,1.7-6.3,1.7c-4,0-6.9-1.3-8.8-3.9
		c-1.5-2.1-2.3-4.7-2.3-7.9c0-3.8,1-6.7,3-8.9c2-2.1,4.5-3.2,7.5-3.2c3.4,0,6.1,1.1,8,3.4c2,2.2,2.9,5.7,2.8,10.3h-15
		c0,1.8,0.5,3.2,1.5,4.2c0.9,1,2.1,1.5,3.5,1.5c0.9,0,1.7-0.3,2.4-0.8C64.5,122.5,64.9,121.7,65.3,120.5z M65.6,114.4
		c0-1.7-0.5-3.1-1.4-4s-1.9-1.4-3.1-1.4c-1.3,0-2.4,0.5-3.3,1.4c-0.9,1-1.3,2.3-1.3,3.9L65.6,114.4L65.6,114.4z"/>
	<path style="fill:#003A52;" d="M82.3,127.8h-6V105h5.6v3.2c1-1.5,1.8-2.5,2.6-3c0.8-0.5,1.6-0.7,2.6-0.7c1.4,0,2.7,0.4,4,1.1
		l-1.9,5.3c-1-0.7-2-1-2.8-1s-1.6,0.2-2.1,0.7c-0.6,0.5-1,1.3-1.4,2.5c-0.3,1.2-0.5,3.8-0.5,7.6L82.3,127.8L82.3,127.8z"/>
	<path style="fill:#003A52;" d="M93.6,127.8V96.3h6v31.5H93.6z"/>
	<path style="fill:#003A52;" d="M110.3,112l-5.5-1c0.6-2.2,1.7-3.8,3.2-4.9s3.7-1.6,6.7-1.6c2.7,0,4.7,0.3,6,1
		c1.3,0.6,2.2,1.4,2.8,2.4c0.5,1,0.8,2.8,0.8,5.4l-0.1,7c0,2,0.1,3.5,0.3,4.4c0.2,1,0.6,2,1.1,3.1h-6c-0.2-0.4-0.4-1-0.6-1.8
		c-0.1-0.4-0.2-0.6-0.2-0.7c-1,1-2.1,1.8-3.3,2.3c-1.2,0.5-2.4,0.8-3.8,0.8c-2.3,0-4.2-0.6-5.5-1.9c-1.4-1.3-2-2.9-2-4.8
		c0-1.3,0.3-2.4,0.9-3.4s1.5-1.8,2.6-2.3s2.7-1,4.8-1.4c2.8-0.5,4.8-1,5.9-1.5v-0.6c0-1.2-0.3-2-0.9-2.5s-1.7-0.7-3.2-0.7
		c-1.1,0-1.9,0.2-2.5,0.6C111.2,110.2,110.7,110.9,110.3,112z M118.4,116.9c-0.8,0.3-2,0.6-3.7,0.9c-1.7,0.4-2.8,0.7-3.3,1.1
		c-0.8,0.6-1.2,1.3-1.2,2.1c0,0.8,0.3,1.6,0.9,2.2s1.4,0.9,2.4,0.9c1.1,0,2.1-0.4,3.1-1.1c0.7-0.5,1.2-1.2,1.4-2
		c0.2-0.5,0.2-1.5,0.2-2.9v-1.2H118.4z"/>
	<path style="fill:#003A52;" d="M145.3,127.8v-3.4c-0.8,1.2-1.9,2.2-3.3,2.9c-1.4,0.7-2.8,1.1-4.3,1.1s-2.9-0.3-4.1-1
		c-1.2-0.7-2.1-1.6-2.6-2.8c-0.5-1.2-0.8-2.9-0.8-5V105h6v10.5c0,3.2,0.1,5.2,0.3,5.9c0.2,0.7,0.6,1.3,1.2,1.7
		c0.6,0.4,1.3,0.6,2.2,0.6c1,0,2-0.3,2.8-0.8c0.8-0.6,1.4-1.3,1.7-2.1c0.3-0.8,0.5-2.9,0.5-6.1V105h6v22.8H145.3z"/>
	<path style="fill:#003A52;" d="M154.5,105h3.3v-1.7c0-1.9,0.2-3.3,0.6-4.3c0.4-0.9,1.2-1.7,2.3-2.3c1.1-0.6,2.5-0.9,4.2-0.9
		s3.4,0.3,5,0.8l-0.8,4.2c-1-0.2-1.9-0.3-2.8-0.3c-0.9,0-1.5,0.2-1.9,0.6s-0.6,1.2-0.6,2.3v1.6h4.5v4.7h-4.5v18h-6v-18h-3.3V105z"/>
</g>
<path style="fill:#003A52;" d="M287.4,109.5l-63.2-0.5l0,0c-14-0.1-25.2-11.6-25.1-25.5c0.1-13.9,11.4-25.1,25.3-25.1H282
	c2.8-0.2,4.9-2.3,5.1-5.1c0.2-3-2.1-5.6-5.1-5.7h-57.6c-19.8,0-36,16-36.2,35.9l0,0c-0.1,19.9,15.9,36.3,35.9,36.4l63.2,0.5
	c12,0.1,21.6,9.9,21.6,21.9v6.9c-0.1,11.9-9.8,21.6-21.7,21.6H287l-61-0.7c-0.1,0-0.2,0-0.4,0c-2.9,0.1-5.1,2.5-5.1,5.4v0.1
	c0,3,2.3,5.5,5.4,5.5l61,0.7h0.3c17.9,0,32.5-14.4,32.7-32.3v-6.9C319.9,124.3,305.4,109.6,287.4,109.5z"/>
<path style="fill:#FF4141;" d="M322,31.6l9.1-7.7h-30.6c-2.8,0-5,2.2-5,4.9l0,0v26.9c0,3.7,11,3.7,11,0V39.4H331L322,31.6z"/>
<path style="fill:#FF4141;" d="M186.1,165.6c-8.5-8.4-8.5-22.1,0-30.6c8.5-8.4,22.2-8.4,30.7,0s8.5,22.1,0,30.6l-15.4,15.3
	L186.1,165.6z M189,149.2c0,6.8,5.6,12.3,12.4,12.3c6.8,0,12.4-5.5,12.4-12.3l0,0c0-6.8-5.6-12.3-12.4-12.3S189,142.4,189,149.2z"/>
</svg>
