<?xml version="1.0" encoding="utf-8"?>
<!-- Generator: Adobe Illustrator 21.1.0, SVG Export Plug-In . SVG Version: 6.00 Build 0)  -->
<svg version="1.1" id="Ebene_1" xmlns="http://www.w3.org/2000/svg" xmlns:xlink="http://www.w3.org/1999/xlink" x="0px" y="0px"
	 viewBox="0 0 333.7 201.5" style="enable-background:new 0 0 333.7 201.5;" xml:space="preserve">
<path style="fill:#F3F7F8;" d="M143.3,155.3c-40.9-22.5-114.7-1.9-107-77.3c7.6-75.5,99.4-98.7,148.1-58.5
	c48.6,40.2,75.8,112.2,51,151.1C193,237,170.8,170.4,143.3,155.3"/>
<path style="fill:#003A52;" d="M108.2,181.7C108.2,181.7,108.2,181.7,108.2,181.7c-0.7-3.4-3.7-6-7.3-6h-13v-33.7h0h-0.6h0v33.7h-13
	c-3.6,0-6.6,2.6-7.3,6c-1.7,0.2-3,1.6-3,3.3c0,1.8,1.5,3.3,3.4,3.3c1.9,0,3.4-1.5,3.4-3.3c0-1.8-1.4-3.2-3.2-3.3
	c0.6-3.1,3.4-5.4,6.7-5.4h12.9v5.4c-1.7,0.2-3,1.6-3,3.3c0,1.8,1.5,3.3,3.4,3.3c1.9,0,3.4-1.5,3.4-3.3c0-1.7-1.3-3.1-3-3.3v-5.4
	h12.9c3.3,0,6.1,2.3,6.7,5.4c-1.6,0.3-2.7,1.6-2.7,3.3c0,1.8,1.5,3.3,3.4,3.3c1.9,0,3.4-1.5,3.4-3.3S110,181.7,108.2,181.7z"/>
<path style="fill:#00587A;" d="M103.1,112.5l-2.5-48.2c0,0-12.6-0.7-16.3-0.7c-2,0-5.5,1-8.3,1.8c-2.6,0.8-4.7,0.7-6,3.1l-20.6,38.9
	l12.7,1.2l4.2-4.8l-2.1-3.2l7.7-17.9l-0.1,30.3L103.1,112.5z"/>
<path style="fill:#FFFFFF;" d="M125.7,109.9H84.9v-2.9h40.7c0.8,0,1.5,0.7,1.5,1.5C127.2,109.2,126.5,109.9,125.7,109.9"/>
<path style="fill:#00587A;" d="M100.6,64.3l1.7,35.9l-16.8,3.4l2.3,4.3l19.1,0.3l1.7-34.4c-0.3-3.7-2.6-6.9-5.9-8.5L100.6,64.3z"/>
<path style="fill:#00587A;" d="M69.9,119.1l-28,7c-0.9,0.2-1.4,1.1-1.2,2l12.6,48c0.2,0.9-0.3,1.8-1.2,2l-12,5c-1.1,0.9-1.3,2-1,2.9
	c0.2,0.7,0.9,1.2,1.7,1.2l18-1.3c0.8-0.1,1.4-0.7,1.5-1.5l0.4-5l-4.3-46c-0.1-0.8,0.4-1.5,1.1-1.7l11.1-3.4c1.9-0.6,3,2,1.3,3
	l-1.6,0.9c-0.5,0.3-0.8,0.8-0.8,1.4L66.4,178c0,0.2,0,0.4-0.1,0.6c0,0-1.8,3.6-2.1,3.8l-8.7,7.6c-0.9,1-0.7,4.1,0.6,4.3l0.5,0.1
	c0.4,0,1.2,0,1.6-0.1l13-5.7c0.6-0.2,1-1.9,1.1-2.6l0.2-7.9c0,0,13.1-44.3,14.4-44.3c0.9,0,12.2-7.3,18.7-11.5c1.4-0.9,0.7-3-0.9-3
	L70.3,119C70.1,119,70,119.1,69.9,119.1"/>
<path style="fill:#003A52;" d="M195.8,107.7H0v6.2h9.4v87.6h1.7V145h172.2v56.5h1.7V145h0.2v-31.1h10.6V107.7z"/>
<path style="fill:#E5AEA9;" d="M91.8,57.4c0,0,0.7,12.9-1.9,11c-2.7-1.9-5.5,0.2-6.2-0.6c-0.7-0.8-0.5-8.7-0.3-10.1
	C83.5,56.8,91.8,57.4,91.8,57.4"/>
<path style="fill:#FF4141;" d="M87.6,68.5l2,1.9c0.3,0.3,0.3,0.7,0.1,1l-1.6,2.5c-0.1,0.2-0.2,0.5,0,0.8l0.8,1.5
	c0.1,0.1,0.1,0.3,0.1,0.4L88,102.8c0,0.2-0.1,0.4-0.3,0.6l-3.2,2.7c-0.3,0.3-0.7,0.3-1,0l-2.7-2.5c-0.2-0.2-0.3-0.4-0.2-0.7
	l3.6-26.3c0-0.2,0.1-0.3,0.2-0.4l1.4-1.5c0.3-0.3,0.3-0.8,0-1.1l-1.6-1.7c-0.3-0.3-0.3-0.8,0-1.1l2.4-2.3
	C86.8,68.2,87.3,68.2,87.6,68.5"/>
<path style="fill:#FFFFFF;" d="M94.3,62.8c0,0,0.1,0.9,0.2,1.2c0.1,0.3-4.1,7.8-4.1,7.8l-3.4-3.6l-3.8,3.7L81,63.3l2.2-0.1l3.9,3.8
	l4.9-4.1L94.3,62.8z"/>
<path style="fill:#FFD5C6;" d="M82.5,103.8c-0.5-0.2-4.8-2.6-7.9-2.6c-3.2,0-7.1,3.3-7.1,3.3s-0.5,1.7,1.6,1.4
	c2.1-0.3,3.5-0.5,3.5-0.5s-3.7,1.9-1.2,2.3c2.5,0.3,12.9,0,12.9,0L82.5,103.8z"/>
<path style="fill:#FFFFFF;" d="M82.5,102.8l3.4,0.3l3,4.9l-5.6,0.4L82.5,102.8z"/>
<path style="fill:#ACC0C7;" d="M64.1,76.3L76,107.8H37.3l-11-29.7c-0.3-0.9,0.3-1.8,1.3-1.8H64.1z"/>
<path style="fill:#FFD5C6;" d="M101.2,45.6c-0.8-0.3-2.3,0.3-3.1,0.8c0-2.2-0.1-4.3-0.1-4.3c0-4.6-3.4-8.4-7.6-8.4h-6.1
	c-4.2,0-7.6,3.8-7.6,8.4c0,0-0.2,3.9-0.3,5.9c-0.4,7.2,4.4,12.7,9.5,12.7c0.7,0,1.6,0.2,2.9,0c4.1-0.7,8.1-3.7,9.1-8.9
	c1,0,1.5-0.2,2.4-0.8c1.1-0.7,1.8-1.8,2-3.1C102.4,47,102,45.9,101.2,45.6z"/>
<path style="fill:#003A52;" d="M76.1,47.5c0-0.2,0-0.3,0-0.5l-1.2-1.7l0.3-0.8c0,0,3.7-0.2,5.5-0.2c1.8,0,3.9,0.4,4.8,1.5l0,0
	c0.5,0.2,0.9,0.3,1.3,0.3c0.4,0,0.8-0.1,1.3-0.4l0,0c0.9-1.1,3-1.6,4.8-1.6c1.8,0,6.2,0.4,6.2,0.4l0.3,1.1l-1.8,1c0,0.2,0,0.3,0,0.5
	c-0.1,2.3-2.5,3.6-4.7,3.6c-0.1,0-0.1,0-0.2,0c-0.4,0-0.8-0.1-1.2-0.1c-1.7-0.4-3-1.5-3.7-3.1c-0.1-0.2-0.1-0.4-0.1-0.6
	C87.5,47,87.2,47,86.9,47c-0.3,0-0.6,0-0.9-0.1c0,0.2,0,0.4-0.1,0.7c-0.6,1.6-1.9,2.8-3.6,3.2c-0.4,0.1-0.8,0.2-1.2,0.2
	c-0.1,0-0.1,0-0.2,0C78.7,51,76.3,49.9,76.1,47.5z M89,46.4c0.5-0.7,2.2-1.3,4.1-1.3c1.5,0,2.8,0.3,3.4,0.9c0.3,0.3,0.4,0.7,0.4,1.1
	c-0.1,1.8-2,2.7-3.7,2.7l-0.2,0c-0.3,0-0.7,0-1-0.1c-1.4-0.3-2.5-1.2-3-2.5C88.8,46.9,88.8,46.7,89,46.4z M77.1,47.5
	c0-0.4,0.1-0.8,0.4-1.1c0.6-0.6,1.8-1,3.3-1c1.8,0,3.6,0.5,4.1,1.2c0.2,0.2,0.2,0.5,0.1,0.8c-0.5,1.3-1.6,2.3-2.9,2.6
	c-0.3,0.1-0.7,0.1-1,0.2l-0.2,0C79.1,50.1,77.2,49.2,77.1,47.5z"/>
<path style="fill:#003A52;" d="M98.3,44.5c-0.2,0.9-0.4,1.7-0.4,2.6c0,0-0.1-12.9-5.3-10.5c-0.8,0.4-1.5,0.9-2.2,1.3
	c-2.2,1.1-4.9,1-7-0.2c-1.2-0.7-3.1-2.3-4.3-0.9c-2.9,3.2-2.1,9.3-2.4,8.4c-0.5-1.6-0.5-3.1-0.6-4.7c0-1.6-0.5-3.4,0-5
	c1.1-3.1,5.3-4.7,8.2-5.2c3.1-0.6,6.6-0.3,9.6,0.8c1.2,0.4,3.2,1.1,4,2.2c0.9,1.1,0.9,3.1,1.1,4.5C99.3,39.9,98.8,42.3,98.3,44.5"/>
<path style="fill:#E5AEA9;" d="M83.9,54.8c0,0.1,0,0.1,0.1,0.2c1.3,1,6.1,0.6,6.1,0.1c0-0.2,0.1-0.3,0.1-0.4c0,0,0,0,0,0
	c0-0.2-0.1-0.3-0.2-0.3c-0.6,0.1-2.1,0.4-3.1,0.4c-1.3,0-2.3-0.2-2.7-0.3C83.9,54.4,83.8,54.6,83.9,54.8"/>
<g style="enable-background:new    ;">
	<path style="fill:#003A52;" d="M149.1,74.5l-6,22.7h-5.7l-3.8-14.5c-0.2-0.8-0.3-1.6-0.4-2.5h-0.1c-0.1,1-0.2,1.9-0.4,2.5L129,97.1
		h-5.9l-6-22.7h5.6l3.2,15.1c0.1,0.6,0.2,1.5,0.3,2.6h0.1c0-0.8,0.2-1.7,0.5-2.7l4.1-15h5.5l3.7,15.2c0.1,0.6,0.3,1.4,0.4,2.4h0.1
		c0-0.8,0.2-1.7,0.3-2.5l3.1-15.1H149.1z"/>
	<path style="fill:#003A52;" d="M165.2,90.4h-10.6c0.2,2.3,1.6,3.5,4.4,3.5c1.8,0,3.3-0.4,4.7-1.3v3.6c-1.5,0.8-3.4,1.2-5.8,1.2
		c-2.6,0-4.6-0.7-6.1-2.2c-1.4-1.4-2.2-3.5-2.2-6.1c0-2.7,0.8-4.8,2.3-6.4c1.6-1.6,3.5-2.4,5.8-2.4c2.4,0,4.2,0.7,5.5,2.1
		c1.3,1.4,1.9,3.3,1.9,5.7V90.4z M160.5,87.4c0-2.3-0.9-3.5-2.8-3.5c-0.8,0-1.5,0.3-2.1,1c-0.6,0.7-0.9,1.5-1.1,2.5H160.5z"/>
	<path style="fill:#003A52;" d="M170.7,78.4c-0.8,0-1.5-0.3-2.1-0.8c-0.5-0.5-0.8-1.1-0.8-1.8c0-0.7,0.3-1.4,0.8-1.8
		c0.5-0.5,1.2-0.7,2.1-0.7c0.9,0,1.5,0.2,2.1,0.7c0.5,0.5,0.8,1.1,0.8,1.8c0,0.8-0.3,1.4-0.8,1.9C172.2,78.1,171.5,78.4,170.7,78.4z
		 M173.1,97.1h-5V80.9h5V97.1z"/>
	<path style="fill:#003A52;" d="M187.1,96.9c-0.7,0.4-1.8,0.6-3.3,0.6c-3.5,0-5.3-1.8-5.3-5.5v-7.4h-2.6v-3.7h2.6v-3.5l5-1.4v4.9
		h3.6v3.7h-3.6v6.5c0,1.7,0.7,2.5,2,2.5c0.5,0,1.1-0.2,1.6-0.5V96.9z"/>
	<path style="fill:#003A52;" d="M204.3,90.4h-10.6c0.2,2.3,1.6,3.5,4.4,3.5c1.8,0,3.3-0.4,4.7-1.3v3.6c-1.5,0.8-3.4,1.2-5.8,1.2
		c-2.6,0-4.6-0.7-6.1-2.2c-1.4-1.4-2.2-3.5-2.2-6.1c0-2.7,0.8-4.8,2.3-6.4c1.6-1.6,3.5-2.4,5.8-2.4c2.4,0,4.2,0.7,5.5,2.1
		c1.3,1.4,1.9,3.3,1.9,5.7V90.4z M199.7,87.4c0-2.3-0.9-3.5-2.8-3.5c-0.8,0-1.5,0.3-2.1,1c-0.6,0.7-0.9,1.5-1.1,2.5H199.7z"/>
	<path style="fill:#003A52;" d="M217.9,85.4c-0.6-0.3-1.3-0.5-2.1-0.5c-1.1,0-1.9,0.4-2.5,1.2c-0.6,0.8-0.9,1.9-0.9,3.2v7.7h-5V80.9
		h5v3h0.1c0.8-2.2,2.2-3.3,4.3-3.3c0.5,0,0.9,0.1,1.2,0.2V85.4z"/>
	<path style="fill:#003A52;" d="M225.2,95.2L225.2,95.2l-0.1,1.9h-5v-24h5v10.2h0.1c1.2-1.9,3-2.8,5.3-2.8c2.1,0,3.7,0.7,4.8,2.1
		c1.1,1.4,1.7,3.4,1.7,5.9c0,2.7-0.7,4.9-2,6.5c-1.3,1.6-3.1,2.4-5.3,2.4C227.8,97.5,226.3,96.7,225.2,95.2z M225.1,88.4v1.7
		c0,1,0.3,1.9,0.9,2.6c0.6,0.7,1.4,1,2.3,1c1.1,0,2-0.4,2.6-1.3c0.6-0.9,0.9-2.1,0.9-3.7c0-1.3-0.3-2.4-0.9-3.1
		c-0.6-0.8-1.4-1.1-2.5-1.1c-1,0-1.8,0.4-2.5,1.1C225.4,86.2,225.1,87.2,225.1,88.4z"/>
	<path style="fill:#003A52;" d="M242.8,78.4c-0.8,0-1.5-0.3-2.1-0.8c-0.5-0.5-0.8-1.1-0.8-1.8c0-0.7,0.3-1.4,0.8-1.8
		c0.5-0.5,1.2-0.7,2.1-0.7c0.9,0,1.5,0.2,2.1,0.7c0.5,0.5,0.8,1.1,0.8,1.8c0,0.8-0.3,1.4-0.8,1.9C244.3,78.1,243.6,78.4,242.8,78.4z
		 M245.2,97.1h-5V80.9h5V97.1z"/>
	<path style="fill:#003A52;" d="M254.4,97.1h-5v-24h5V97.1z"/>
	<path style="fill:#003A52;" d="M274.5,97.1h-5v-2.2h-0.1c-1.1,1.7-2.8,2.6-5,2.6c-2,0-3.6-0.7-4.9-2.1c-1.2-1.4-1.8-3.4-1.8-6
		c0-2.7,0.7-4.8,2-6.4c1.4-1.6,3.1-2.4,5.3-2.4c2.1,0,3.5,0.7,4.4,2.2h0.1v-9.6h5V97.1z M269.6,89.2V88c0-1.1-0.3-1.9-0.9-2.6
		c-0.6-0.7-1.4-1-2.4-1c-1.1,0-2,0.4-2.6,1.3c-0.6,0.9-0.9,2.1-0.9,3.6c0,1.4,0.3,2.5,0.9,3.3c0.6,0.8,1.4,1.2,2.5,1.2
		c1,0,1.8-0.4,2.5-1.2C269.2,91.7,269.6,90.6,269.6,89.2z"/>
	<path style="fill:#003A52;" d="M294,97.1h-5v-2.5H289c-1.2,1.9-2.9,2.9-4.9,2.9c-3.7,0-5.6-2.3-5.6-6.8v-9.8h5v9.3
		c0,2.3,0.9,3.4,2.7,3.4c0.9,0,1.6-0.3,2.1-0.9c0.5-0.6,0.8-1.5,0.8-2.6v-9.3h5V97.1z"/>
	<path style="fill:#003A52;" d="M313.9,97.1h-5v-9c0-2.5-0.9-3.8-2.7-3.8c-0.9,0-1.6,0.3-2.1,1c-0.6,0.7-0.8,1.5-0.8,2.5v9.2h-5
		V80.9h5v2.6h0.1c1.2-2,2.9-3,5.2-3c3.6,0,5.4,2.2,5.4,6.7V97.1z"/>
	<path style="fill:#003A52;" d="M333.7,95.3c0,3-0.9,5.3-2.6,7c-1.7,1.6-4.3,2.5-7.6,2.5c-2.2,0-3.9-0.3-5.2-0.9v-4.2
		c1.7,1,3.3,1.5,5,1.5c1.7,0,3-0.4,3.9-1.3c0.9-0.9,1.4-2.1,1.4-3.6v-1.3h-0.1c-1.1,1.8-2.8,2.7-5,2.7c-2.1,0-3.7-0.7-4.9-2.2
		s-1.8-3.4-1.8-5.8c0-2.7,0.7-4.9,2-6.5c1.3-1.6,3.1-2.4,5.3-2.4c2,0,3.4,0.8,4.4,2.3h0.1v-1.9h5V95.3z M328.7,89.3v-1.3
		c0-1-0.3-1.9-0.9-2.6c-0.6-0.7-1.4-1.1-2.4-1.1c-1.1,0-2,0.4-2.6,1.3c-0.6,0.9-0.9,2.1-0.9,3.6c0,1.3,0.3,2.4,0.9,3.2
		c0.6,0.8,1.4,1.2,2.5,1.2c1,0,1.9-0.4,2.5-1.2C328.4,91.7,328.7,90.6,328.7,89.3z"/>
</g>
<path style="fill:#E6EEF2;" d="M290.8,111.3c0.2,0,0.3,0,0.5,0c0-0.2-0.3-0.2-0.4-0.2C290.8,111.1,290.8,111.2,290.8,111.3
	L290.8,111.3z"/>
<path style="fill:#E6EEF2;" d="M291.3,111.1c0,0.1,0,0.2,0.1,0.2c0.1,0,0.2-0.1,0.2-0.2C291.5,111,291.5,111.1,291.3,111.1
	L291.3,111.1z"/>
<path style="fill:#E6EEF2;" d="M291.8,110.7c0.1,0,0.1,0.1,0.2,0.2c0.1,0,0.1,0,0.2,0c0-0.1-0.2-0.3,0.1-0.3c0.1,0,0.1,0.1,0.2,0.1
	c0.1-0.1,0-0.1-0.1-0.2c-0.1-0.1-0.2-0.2-0.4-0.1C291.9,110.4,291.9,110.5,291.8,110.7L291.8,110.7z"/>
<path style="fill:#E6EEF2;" d="M292.5,110.4c0,0.1,0.3,0.3,0.3,0.1C292.9,110.3,292.7,110.3,292.5,110.4L292.5,110.4z"/>
<path style="fill:#E6EEF2;" d="M292.6,110.2c0,0.3,0.9,0.1,1,0c-0.2,0-0.3-0.1-0.5-0.1C292.9,110.1,292.8,110.1,292.6,110.2
	L292.6,110.2z"/>
<path style="fill:#E6EEF2;" d="M293.8,109.7c0,0.2,0.2,0,0.4,0.1c0.2,0,0.3,0.1,0.4-0.1C294.3,109.6,294,109.6,293.8,109.7
	L293.8,109.7z"/>
<path style="fill:#E6EEF2;" d="M294.7,109.7c0,0,0,0.1-0.1,0.1c0.1,0,0.3,0.1,0.4-0.1C295,109.6,294.9,109.6,294.7,109.7
	L294.7,109.7z"/>
<path style="fill:#E6EEF2;" d="M295.2,109.7c0.2-0.2,0.5-0.1,0.7-0.1c0,0,0,0.1,0,0.1c-0.1,0-0.2,0-0.4,0c-0.2,0-0.2,0.1-0.3,0.2
	C295.3,109.8,295.3,109.8,295.2,109.7L295.2,109.7z"/>
<path style="fill:#E6EEF2;" d="M296.3,109.2c0,0-0.1,0.1-0.1,0.2c0.2-0.1,0.5,0,0.7-0.2C296.8,109.2,296.6,109.1,296.3,109.2
	L296.3,109.2z"/>
<path style="fill:#E6EEF2;" d="M297,109.1c0,0.1,0,0.1,0,0.2c0.1-0.1,0.2-0.1,0.3-0.1c0.1,0,0.3,0.2,0.3-0.1
	C297.4,109.1,297.3,109.1,297,109.1L297,109.1z"/>
<path style="fill:#E6EEF2;" d="M298.2,109.6c-0.1,0.1-0.2,0.3,0,0.3c0.1,0,0.3-0.2,0.3-0.3C298.4,109.6,298.3,109.6,298.2,109.6
	L298.2,109.6z"/>
<path style="fill:#E6EEF2;" d="M298.9,108.7c0,0.1,0.2,0.1,0.2,0.1c0,0,0-0.1,0-0.1C299,108.6,299,108.7,298.9,108.7L298.9,108.7z"
	/>
<path style="fill:#E6EEF2;" d="M299.4,108.2c0,0.1,0.2,0.2,0.2,0C299.6,108.2,299.5,108.2,299.4,108.2L299.4,108.2z"/>
<path style="fill:#E6EEF2;" d="M299.2,107.9c0,0.1-0.1,0.1-0.1,0.2c0.1,0,0.2,0,0.3-0.1c0,0,0-0.1,0-0.1
	C299.4,107.9,299.3,107.9,299.2,107.9L299.2,107.9z"/>
<path style="fill:#E6EEF2;" d="M300.1,107.2c0,0.1,0,0.2,0,0.2c0.1,0.1,0.2,0,0.2-0.1c0-0.1,0-0.2,0-0.2
	C300.3,107.1,300.1,107.1,300.1,107.2L300.1,107.2z"/>
<path style="fill:#E6EEF2;" d="M299.1,102.6c0-0.1,0.1-0.2,0.2-0.2c0.1,0,0.1,0,0.2,0c0.2,0,0.3,0,0.5,0.1c0.1,0,0.1,0.1,0.1,0.2
	c0,0.1,0,0.2,0,0.3s-0.1,0.1-0.2,0.1c-0.1,0-0.2,0-0.2,0C299.4,102.9,299.2,102.8,299.1,102.6L299.1,102.6z"/>
<path style="fill:#E6EEF2;" d="M299,102.9c0-0.1,0.1-0.2,0.1-0.3c-0.1,0.1-0.2,0.1-0.3,0.2c0,0.1,0,0.2,0.1,0.3c0,0,0.1,0.1,0.1,0.2
	c0,0,0.2-0.1,0.2-0.1c0.1-0.1,0-0.1,0-0.1C299.1,103,299,103,299,102.9L299,102.9z"/>
<path style="fill:#E6EEF2;" d="M300.2,104.1c0.1-0.1,0.2-0.2,0.3-0.2c0.1,0,0.2,0,0.3,0c0,0.1-0.1,0.2-0.1,0.3
	c-0.1,0.1-0.1,0.2-0.1,0.3c-0.1,0-0.2,0-0.2-0.1C300.2,104.3,300.2,104.2,300.2,104.1L300.2,104.1z"/>
<path style="fill:#E6EEF2;" d="M299.3,104.5c0,0.1,0,0.1,0.1,0.2c0,0,0.2,0.2,0.2,0.1c0,0,0-0.2,0-0.2
	C299.6,104.5,299.5,104.5,299.3,104.5L299.3,104.5z"/>
<path style="fill:#E6EEF2;" d="M318.9,103.7c0-0.2,0-0.4,0.1-0.6c0-0.1,0.1,0,0.1-0.1c0,0-0.1-0.1-0.1-0.1c0-0.1,0.1-0.2,0.1-0.1
	c0-0.1,0.1-0.3-0.1-0.2c-0.1,0-0.2,0.2-0.2,0.4c0,0.1,0,0.3,0,0.5C318.8,103.5,318.8,103.6,318.9,103.7L318.9,103.7z"/>
<path style="fill:#E6EEF2;" d="M321,103.4c0-0.2,0.3-0.3,0.3-0.5c0-0.2-0.2-0.2-0.4-0.2c-0.2,0-0.3,0.1-0.5,0.1
	c-0.1,0-0.4-0.1-0.4-0.2c-0.1-0.2,0.3-0.3,0.1-0.5c-0.2,0.1-0.5,0.2-0.7,0.2c0,0.1-0.2,0.2-0.2,0.4c0,0.1-0.1,0.2-0.1,0.3l0,0.1
	c0.1-0.1,0.2-0.2,0.2-0.3c0-0.1,0-0.1,0-0.2c0,0,0.1-0.1,0.1-0.2c0,0.1,0,0.2,0,0.2c0,0,0,0.1,0,0.1c0,0-0.1,0.1-0.1,0.1
	c0,0.1,0.2,0,0.2,0c0.1,0,0.1-0.2,0.2-0.2c0,0.1,0.1,0.1,0.1,0.1c0,0,0.1,0,0.1,0c0,0,0,0,0.1,0.1c0.1,0.1,0.2,0,0.3,0.1
	c0,0.1,0.1,0.1,0.1,0.2c0,0.1,0,0.1-0.1,0.1c-0.1,0-0.1,0.1-0.1,0.1c0,0-0.1,0.1-0.2,0c0-0.1,0.1-0.1,0-0.2c0-0.1-0.2-0.2-0.2-0.2
	c0,0.1,0.1,0.2-0.1,0.2c-0.1,0-0.1-0.1-0.1-0.2c0-0.1,0-0.2-0.1-0.1c-0.1,0.1,0,0.2,0,0.3c-0.1-0.1-0.2-0.2-0.3-0.1
	c-0.1,0-0.2,0-0.2,0c-0.1,0-0.1,0.1,0,0.1c0,0,0,0.1,0.1,0.1c0.1,0,0.1-0.1,0.2-0.1c0.1,0,0.2,0.1,0.2,0.2c0.1,0.1,0,0.1-0.1,0.1
	c-0.1,0.1-0.3,0.1-0.3,0.3c0.1,0,0.2,0,0.3,0c0.1,0,0.2,0.2,0.1,0.3c-0.1,0.1-0.3,0-0.4,0.1c-0.1,0-0.1,0.2,0,0.3l0,0.1
	c0,0,0,0.3-0.1,0.2l0.1,0c0.1,0,0.1-0.1,0.2,0c0,0,0,0,0,0.1c0,0,0,0,0.1,0c0,0,0.1,0,0.1,0c0.2,0,0.4,0.1,0.5,0.2
	c0.1,0,0.2,0.1,0.2,0c0.1-0.1,0-0.2-0.1-0.2c-0.1,0-0.2,0-0.1-0.1c0.1-0.1,0.1-0.1,0.2-0.2c0.1-0.1,0.1-0.2,0.3-0.3
	c0.1,0,0.2-0.1,0.3-0.1l0,0c0.1,0,0.1,0.1,0.2,0c0.1-0.1,0.1-0.2,0.2-0.1c0,0,0,0.1,0,0.1c0,0.1,0,0-0.1,0.1c-0.1,0-0.2,0.1-0.2,0.2
	c0.1,0,0.2,0,0.2-0.1c0,0,0.1-0.1,0.1-0.1c0,0,0,0.1,0,0.1c0,0-0.2,0.1-0.1,0.1c0,0,0.1,0,0.1,0c0,0,0,0.1,0.1,0.1
	c0.1,0,0.1-0.2,0.1-0.2c0-0.1,0-0.2,0-0.3c0-0.1-0.1-0.2-0.2-0.2c-0.1-0.1-0.1-0.2-0.2-0.1c0,0-0.1,0-0.1,0c0,0-0.1-0.1-0.1-0.2
	c0,0-0.1-0.1-0.1-0.1C320.9,103.6,321,103.5,321,103.4L321,103.4z"/>
<path style="fill:#E6EEF2;" d="M322.2,106.2c0,0.1-0.1,0.2-0.1,0.2c0,0.1,0.1,0.1,0.1,0c0.1-0.1,0.1-0.2,0.2-0.1c0,0.1,0,0.2,0,0.2
	c0.1,0,0.2-0.1,0.2-0.1c0-0.1,0-0.1,0-0.2c0.1-0.2,0.2,0,0.3,0c0.1,0.1,0.1,0.1,0.2,0.2c0,0,0.2,0.1,0.2,0.2c0,0.1,0,0.3-0.1,0.4
	c0,0,0-0.2-0.1-0.2c-0.1,0-0.1,0.2-0.1,0.2c0-0.1,0-0.3-0.1-0.3c-0.1,0-0.1,0-0.2,0.1c-0.1,0.1,0,0.1,0.1,0.2
	c0.1,0.1,0.1,0.3,0.1,0.4c0,0.1-0.3,0.1-0.3,0.3l0,0c0,0.1,0.2,0.1,0.2,0c0-0.1,0-0.1,0.1-0.1c0.1,0,0.1,0,0.1,0.1
	c0.2,0,0.4-0.2,0.6-0.3c0.2,0,0.5,0,0.7,0l0,0c0-0.1,0-0.1,0-0.2c0-0.1,0.1-0.1,0.1-0.2c-0.1-0.1-0.3-0.1-0.4-0.2
	c-0.2-0.1-0.5-0.3-0.7-0.5c-0.2-0.1-0.5-0.2-0.7-0.4c-0.1-0.1-0.2-0.1-0.2-0.2c-0.1-0.1-0.2-0.3-0.3-0.1c-0.1,0.1,0,0.2,0.1,0.3
	C322.2,105.9,322.2,106,322.2,106.2L322.2,106.2L322.2,106.2z"/>
<path style="fill:#E6EEF2;" d="M310.7,104.5c0,0.1,0,0.2,0.1,0.2c0.1,0,0.2,0,0.3,0c0,0,0-0.1,0.1-0.1c0,0,0.1,0,0.2,0
	c0.1,0,0.2,0,0.3,0.1c0-0.1-0.1-0.2-0.1-0.3c-0.1-0.1-0.1,0-0.1-0.2c0-0.2,0-0.1-0.1-0.2c0,0-0.1,0-0.1-0.1c0,0-0.1,0-0.1,0
	c0,0,0,0,0-0.1c-0.1-0.1-0.1-0.1-0.2-0.1c-0.1,0-0.1,0.1-0.2,0.1c-0.1,0-0.1,0-0.2,0.1c-0.1,0.1-0.1,0.2-0.1,0.3
	c0,0.1,0,0.2,0.1,0.2C310.5,104.5,310.5,104.4,310.7,104.5L310.7,104.5z"/>
</svg>
