<?xml version="1.0" encoding="utf-8"?>
<!-- Generator: Adobe Illustrator 21.1.0, SVG Export Plug-In . SVG Version: 6.00 Build 0)  -->
<svg version="1.1" id="Ebene_1" xmlns="http://www.w3.org/2000/svg" xmlns:xlink="http://www.w3.org/1999/xlink" x="0px" y="0px"
	 viewBox="0 0 1273.1 859.7" style="enable-background:new 0 0 1273.1 859.7;" xml:space="preserve">
<style type="text/css">
	.st0{fill:#F4F7F8;}
	.st1{fill:#003A52;}
	.st2{fill:#FFD5C6;}
	.st3{fill:#F75543;}
	.st4{fill:#FF4141;}
	.st5{fill:#EDC4B9;}
	.st6{fill:#ACC0C7;}
	.st7{fill:#E5AEA9;}
	.st8{font-family:'SegoeUI-Bold';}
	.st9{font-size:209.2134px;}
</style>
<path class="st0" d="M811.3,257.1c-212.8-26.1-451.5-296-600.1-1.4c-148.6,294.6,154.2,621.6,438.8,604
	c284.6-17.6,560.8-207.6,556.1-414.7C1198,91.3,954.1,274.6,811.3,257.1"/>
<path class="st1" d="M286.1,531.8H100.6c-36.7,0-67.3-27.5-71.3-63.9L2.5,189.5L0,189.7l26.8,278.4c4.1,37.7,35.9,66.1,73.8,66.1
	h78.2v196.4h2.5V534.3h104.9V531.8z"/>
<path class="st2" d="M191.9,232.3l41.3,102l0.9,2.3c2.5,6.1,8.4,9.7,14.5,9.7l117.7-0.8c4.8,0,8.6-3.9,8.6-8.7
	c0-4.3-3.2-7.9-7.4-8.5l-116.5-17l15.4,12l-27.8-106.5c-3.4-13.2-16.9-21.1-30.1-17.7c-13.2,3.4-21.1,16.9-17.7,30.1
	C191.2,230.2,191.6,231.3,191.9,232.3"/>
<path class="st2" d="M353.6,326.2l40.2-0.8c9.9,0,18,9,18,20l0,0h-58.7L353.6,326.2z"/>
<path class="st3" d="M192.7,260.4l-10.6-57.3c-2.8-15.4,7.9-30.1,23.7-32.3c13.3-1.9,26.1,5.6,30.7,18"/>
<path class="st1" d="M225.5,3.3c0,0-55.1-18.7-84,33.4c-1.7,3-3.5,5.9-5.8,8.6c-5.9,6.9-18.1,19.7-31.7,23.9
	C50.4,85.6,16.5,186.9,123.2,196c133.6,11.3,171.5-15,152.4-68.3c-13.6-38-1.5-64.9-1.5-64.9L225.5,3.3z"/>
<path class="st4" d="M181.5,139.3L210,152c17,7.5,27.9,24.4,27.6,43c-0.4,37.4-8.9,130.3-40.6,165.9h-96.4
	c-14.9-65.8-6.3-167-6.3-167c-1-24.8,17.3-46.2,41.9-49.1L181.5,139.3z"/>
<path class="st5" d="M178.8,170L178.8,170c10,1.2,19.2-6,20.4-16l7.8-61.2l-36.7-4.3l-7.8,60.8C161.4,159.5,168.6,168.8,178.8,170"
	/>
<path class="st2" d="M207.4,141.9l1.5,0.2c24.4,3.2,46.8-14,50-38.5l7-53.4l-90-11.7l-7,53.4C165.7,116.3,183,138.7,207.4,141.9"/>
<path class="st1" d="M167.7,68l7.7,15.9c0,0,10.2,8.8,13.1-13.4c2.5-18.8,16.1-15.6,16.1-15.6S251.5,90.3,279,66
	c21.7-19.2-13.4-54.3-53.6-62.8l-52.7,23L167.7,68z"/>
<path class="st2" d="M180.7,84.5c-1,8.2-8.4,14-16.6,13c-8.2-1-14-8.4-13-16.5c1-8.2,8.4-14,16.6-13
	C175.9,68.9,181.7,76.4,180.7,84.5"/>
<path class="st2" d="M336.6,344.9c0-11.3-8.1-20.4-18-20.4l-39,0.8l-88.2-15l-27.6-96.2c-3.4-13.3-17-21.4-30.3-18
	c-13.3,3.4-21.4,17-18,30.3c0.3,1,0.6,2.1,1,3l41.4,103.9l0.9,2.3c2.5,6.2,8.4,9.9,14.7,9.9l104.4-0.7l0,0H336.6z"/>
<path class="st1" d="M472.3,791c-1.2-3.5-4.2-6.2-7.8-7.1l-31.6-7.7c-1-0.5-2.5-1.2-3.4-1.7l-19.5-16c-1.8-1.8-4.6-5.5-6.7-4.3
	c-0.3,0.2-0.7,0-0.7-0.4v-3.6c0,0,0,0,0,0l14.4-249c1.2-20.8-10-40.3-28.6-49.7l-182.1-85l-8.6-5.2c-0.5-0.3-1-0.4-1.5-0.4h-93.9
	c-1,0-2,0.5-2.5,1.4c-6,9.5-39.1,66.5,0.9,111.1c25.3,28.2,120.7,36.6,174.8,39c1.9,0.1,3.2,1.9,2.8,3.7L215.5,772l-2.1,7.5
	c-0.3,1.2,0.3,2.1-1,2.2c0,0,0,0-0.1,0c-1.3,0.1-2.4,0.9-2.7,2.2l-9.7,28.7c-0.3,3.5,2.5,6.6,6,6.6l106.9,2.6
	c2.6,0.1,4.2-2.3,4.7-5.1l-0.6-3.1c-1.5-4.3-5.2-6.8-9.6-8.7l-27.2-6.6c-0.5-0.1-2.5-2.8-5.4-3.9L260.6,784
	c-0.7-0.7-3.3-4.1-7.3-4.3c-2.1-0.1-1.7-4-0.9-5.9L343,565l28.7,190.5l1,5.1c0.1,0.3-0.3,0.6-0.6,0.5l-1.5,0.6
	c-0.3-0.1-0.7,0.6-0.7,0.9l-3.8,28.8c-0.3,3.8,2.6,7,6.4,7.1l95.6,1.9c2.6,0.1,4-1.8,5.1-5.2L472.3,791z"/>
<polygon class="st1" points="738.4,359.5 148.5,359.5 148.5,368.6 462.3,368.6 462.3,723.5 464.8,723.5 464.8,368.6 738.4,368.6 "/>
<path class="st6" d="M595.4,201.7H429l-54.2,144h0H266c-3.9,0-7,3.1-7,6.9c0,3.8,3.1,6.9,7,6.9h108.8h5H538c7,0,12.6-5.7,12.6-12.6
	v-1.2h0.5L601.3,210C602.8,206,599.7,201.7,595.4,201.7z"/>
<path class="st7" d="M212.6,116c-0.1,0.3-0.2,0.7-0.2,1.1c2.2,6.5,20,11.2,21,8.8c0.4-0.7,0.8-1.4,1.1-1.9c0,0,0,0,0,0
	c0.4-0.7,0.4-1.6-0.1-1.6c-2.3-0.2-8.2-0.9-11.7-2.4c-4.4-1.8-7.4-4.1-8.7-5.3C213.5,114.4,212.8,115.1,212.6,116"/>
<text transform="matrix(1 0 0 1 439.5293 613.4509)" class="st1 st8 st9">Studium</text>
</svg>
