<?xml version="1.0" encoding="utf-8"?>
<!-- Generator: Adobe Illustrator 21.1.0, SVG Export Plug-In . SVG Version: 6.00 Build 0)  -->
<svg version="1.1" id="Ebene_1" xmlns="http://www.w3.org/2000/svg" xmlns:xlink="http://www.w3.org/1999/xlink" x="0px" y="0px"
	 viewBox="0 0 1572 1328" style="enable-background:new 0 0 1572 1328;" xml:space="preserve">
<path style="fill:#F3F7F8;" d="M773.8,1035.2c-168.3-92.7-471.9-7.8-440.5-318.3C364.7,406.5,742.4,310.8,942.5,476
	c200.2,165.3,312.1,461.5,210,621.6C978.2,1371.2,886.7,1097.4,773.8,1035.2"/>
<path style="fill:#003A52;" d="M475.6,1157.6c0,7.6-6.2,13.7-13.9,13.7c-7.7,0-13.9-6.1-13.9-13.7s6.2-13.7,13.9-13.7
	C469.3,1143.9,475.6,1150,475.6,1157.6"/>
<path style="fill:#003A52;" d="M643.1,1157.6c0,7.6-6.2,13.7-13.9,13.7c-7.7,0-13.9-6.1-13.9-13.7s6.2-13.7,13.9-13.7
	C636.9,1143.9,643.1,1150,643.1,1157.6"/>
<path style="fill:#003A52;" d="M558.3,1157.6c0,7.6-6.2,13.7-13.9,13.7c-7.7,0-13.9-6.1-13.9-13.7s6.2-13.7,13.9-13.7
	C552.1,1143.9,558.3,1150,558.3,1157.6"/>
<path style="fill:#003A52;" d="M599.2,1119.4h-53.3V980.9h-0.2h-2.3h-0.2v138.5h-53.3c-16.8,0-30.4,13.5-30.4,30v7.1h2.5v-7.1
	c0-15.2,12.5-27.5,27.9-27.5h53.1v34.5h3v-34.5h53.3c15.4,0,27.9,12.3,27.9,27.5v7.1h2.5v-7.1
	C629.6,1132.9,615.9,1119.4,599.2,1119.4z"/>
<path style="fill:#00587A;" d="M608.2,859.1l-10.3-198.3c0,0-51.7-3.1-67.1-3.1c-8.4,0-22.7,3.9-34,7.5
	c-10.6,3.4-19.5,3.1-24.6,12.8l-84.8,160.3l52.1,4.9l17.4-19.6l-8.8-13.2l31.7-73.7l-0.5,124.8L608.2,859.1z"/>
<path style="fill:#FFFFFF;" d="M701.2,848.1H533.5V836h167.6c3.4,0,6.1,2.7,6.1,6.1C707.3,845.4,704.6,848.1,701.2,848.1"/>
<path style="fill:#00587A;" d="M597.9,660.8l6.9,147.8l-69.3,13.9l9.5,17.9l78.5,1.1l7.1-141.5c-1.4-15.1-10.6-28.3-24.4-35
	L597.9,660.8z"/>
<path style="fill:#00587A;" d="M471.5,886.1L356.2,915c-3.6,0.9-5.8,4.6-4.9,8.2l51.9,197.5c0.9,3.7-1.3,7.4-5,8.2l-49.6,20.8
	c-4.5,3.6-5.2,8.3-4.1,12c0.9,3,3.8,5,6.9,4.8l74.2-5.2c3.3-0.2,5.9-2.8,6.2-6.1l1.5-20.7l-17.6-189.1c-0.3-3.1,1.7-6,4.7-7
	l45.8-14.2c7.7-2.4,12.3,8.2,5.3,12.2l-6.6,3.7c-2.1,1.2-3.4,3.4-3.4,5.8l-4.4,182.5c0,0.8-0.1,1.6-0.4,2.3c0,0-7.5,14.9-8.8,15.7
	l-35.8,31.3c-3.6,4-2.8,17,2.5,17.6l2.1,0.3c1.6,0.2,5,0,6.5-0.5l53.5-23.3c2.6-0.9,4.3-7.9,4.4-10.6l0.9-32.6
	c0,0,53.8-182.4,59.2-182.4c3.8,0,50.4-29.9,77.1-47.2c5.6-3.6,3-12.2-3.6-12.3l-141.5-0.9C472.6,885.9,472.1,885.9,471.5,886.1"/>
<path style="fill:#003A52;" d="M990,839.3H184v25.4h38.6v360.4h7V992.7h708.8v232.4h7V992.7h0.8v-128H990V839.3z"/>
<path style="fill:#E5AEA9;" d="M561.8,632.1c0,0,2.9,53-7.8,45.4c-11-7.8-22.5,0.9-25.4-2.4s-1.9-35.9-1.4-41.6
	C527.7,629.7,561.8,632.1,561.8,632.1"/>
<path style="fill:#FF4141;" d="M544.6,677.9l8.3,8c1.1,1.1,1.3,2.7,0.5,4l-6.5,10.4c-0.6,1-0.7,2.2-0.1,3.2l3.3,6.2
	c0.3,0.5,0.4,1.1,0.4,1.6L546,819c0,0.9-0.4,1.7-1.1,2.3l-13,11.3c-1.2,1.1-3.1,1-4.3,0l-11.3-10.2c-0.8-0.7-1.2-1.8-1-2.8
	l14.8-108.4c0.1-0.7,0.4-1.3,0.9-1.8l5.8-6c1.2-1.2,1.2-3.2,0-4.4l-6.4-6.8c-1.2-1.3-1.2-3.2,0.1-4.5l9.7-9.6
	C541.4,676.7,543.4,676.7,544.6,677.9"/>
<path style="fill:#FFFFFF;" d="M572.2,654.3c0,0,0.6,3.7,0.9,4.8c0.4,1.1-16.7,32-16.7,32l-14.1-14.7l-15.5,15l-9.6-35.1l9.1-0.4
	l16,15.8l20.1-17L572.2,654.3z"/>
<path style="fill:#FFD5C6;" d="M523.3,823.2c-2.2-0.7-19.6-10.7-32.7-10.7c-13.1,0-29,13.6-29,13.6s-2.2,7.2,6.5,5.7
	c8.7-1.4,14.5-2.1,14.5-2.1s-15.2,7.9-5.1,9.3c10.2,1.4,53,0,53,0L523.3,823.2z"/>
<path style="fill:#FFFFFF;" d="M523.3,819l13.8,1.4l12.3,20l-23.2,1.6L523.3,819z"/>
<path style="fill:#ACC0C7;" d="M447.9,709.9l49,129.9H337.6l-45.4-122.3c-1.4-3.7,1.4-7.5,5.3-7.5H447.9z"/>
<path style="fill:#FFD5C6;" d="M587.3,587.3c3.1-2.2,9.5-5,13.1-3.7c3.5,1.4,4.9,5.8,4.4,9.5c-0.6,5.2-3.9,9.9-8.2,12.8
	c-4.4,2.9-6,3.6-11.3,3.3L587.3,587.3z"/>
<path style="fill:#FFD5C6;" d="M537.4,646c3,0,6.5,0.8,11.8,0c18.4-2.9,35.7-17.2,38.1-41.8c0.8-8.7,0-34.8,0-34.8
	c0-19-14.1-34.5-31.4-34.5h-25.1c-17.3,0-31.4,15.5-31.4,34.5c0,0-0.7,16-1.1,24.2C496.6,623.4,516.5,646,537.4,646"/>
<path style="fill:#003A52;" d="M497.2,591.6c-0.1-0.7-0.1-1.3,0-1.9l-4.8-6.8l1.2-3.5c0,0,15.4-0.6,22.8-0.8
	c7.3-0.1,16.1,1.7,19.9,6l0.1-0.2c2.1,1,3.9,1.3,5.4,1.3c1.5,0,3.2-0.4,5.3-1.5l0.1,0.2c3.6-4.4,12.3-6.6,19.6-6.7
	c7.4-0.1,25.7,1.5,25.7,1.5l1.3,4.6l-7.4,4.2c0.1,0.6,0.1,1.3,0.1,1.9c-0.6,9.6-10.2,14.8-19.3,14.9c-0.3,0-0.5,0-0.7,0
	c-1.7,0-3.4-0.2-5-0.6c-6.9-1.6-12.5-6.2-15.3-12.7c-0.4-0.9-0.6-1.8-0.6-2.7c-1.3,0.4-2.5,0.6-3.6,0.6c-1.1,0-2.3-0.1-3.7-0.5
	c0,0.9-0.2,1.8-0.5,2.7c-2.6,6.6-8,11.4-14.8,13.2c-1.6,0.4-3.3,0.7-5,0.8c-0.2,0-0.5,0-0.8,0C507.9,606,498.1,601.2,497.2,591.6z
	 M550.1,587.1c2.1-3.1,9.2-5.4,16.7-5.5c6.2-0.1,11.4,1.3,13.9,3.7c1.3,1.2,1.8,2.7,1.7,4.5c-0.4,7.2-8.1,11.2-15.4,11.3l-0.6,0
	c-1.4,0-2.8-0.2-4.1-0.5c-5.7-1.3-10.2-5.1-12.5-10.4C549.3,589,549.4,588.1,550.1,587.1z M501.2,591.3c-0.2-1.8,0.3-3.3,1.5-4.5
	c2.4-2.5,7.5-4.1,13.8-4.3c7.6-0.1,14.7,1.9,16.9,4.9c0.7,1,0.8,2,0.4,3.1c-2.1,5.4-6.5,9.3-12.1,10.9c-1.3,0.4-2.7,0.6-4.1,0.6
	l-0.6,0C509.7,602.1,501.9,598.5,501.2,591.3z"/>
<path style="fill:#003A52;" d="M588.4,579.3c-0.9,3.5-1.5,7-1.6,10.6c0,0-0.3-53.3-21.8-43.3c-3.2,1.5-6,3.6-9.1,5.2
	c-8.9,4.6-20.1,4.3-28.8-0.8c-4.8-2.8-12.6-9.4-17.8-3.9c-12.1,13-8.8,38.4-9.9,34.4c-1.9-6.7-2.2-12.7-2.3-19.5
	c-0.1-6.6-2.1-13.9,0.2-20.4c4.5-12.7,21.9-19.1,33.9-21.3c12.9-2.4,27-1.1,39.4,3.2c5.1,1.8,13,4.6,16.5,9.1
	c3.5,4.5,3.6,12.7,4.4,18.3C592.8,560.4,590.7,570.2,588.4,579.3"/>
<path style="fill:#E5AEA9;" d="M529.1,621.4c0.1,0.3,0.2,0.6,0.3,0.9c5.2,4.2,25.3,2.4,25.3,0.3c0.1-0.7,0.2-1.3,0.3-1.8
	c0,0,0,0,0,0c0.1-0.7-0.3-1.3-0.9-1.2c-2.5,0.5-8.7,1.8-12.9,1.8c-5.3-0.1-9.3-0.9-11.2-1.3C529.4,620,528.9,620.7,529.1,621.4"/>
<text transform="matrix(1 0 0 1 665 795.6266)" style="fill:#003A52; font-family:'SegoeUI-Bold'; font-size:133.1494px;">Weiterbildung</text>
<path style="fill:#E6EEF2;" d="M1380.6,853.9c0.6,0,1.3,0,1.9,0c0.2-0.8-1.2-0.7-1.7-0.7c0,0.1-0.1,0.3,0,0.4L1380.6,853.9z"/>
<path style="fill:#E6EEF2;" d="M1383,853.2c0,0.5-0.1,0.8,0.4,0.7c0.4-0.1,0.7-0.6,0.7-0.9c-0.3-0.1-0.7-0.1-1-0.1L1383,853.2z"/>
<path style="fill:#E6EEF2;" d="M1385,851.8c0.4,0.2,0.6,0.5,0.9,0.7c0.3,0.2,0.6,0.1,0.9,0.1c-0.1-0.5-0.8-1.2,0.3-1.2
	c0.3,0,0.4,0.4,0.7,0.2c0.5-0.3,0-0.5-0.2-0.7c-0.4-0.3-1-0.6-1.5-0.6c-0.7,0.1-0.7,0.6-1,1.2L1385,851.8z"/>
<path style="fill:#E6EEF2;" d="M1387.8,850.3c0.2,0.5,1.1,1.1,1.3,0.4c0.3-0.7-0.7-0.8-1.1-0.6L1387.8,850.3z"/>
<path style="fill:#E6EEF2;" d="M1388,849.4c-0.2,1.1,3.6,0.4,4-0.1c-0.6,0.1-1.3-0.5-1.9-0.4c-0.6,0.1-1.2,0.3-1.9,0.3L1388,849.4z"
	/>
<path style="fill:#E6EEF2;" d="M1393,847.5c0.2,0.9,0.9,0.2,1.5,0.3c0.7,0.1,1.2,0.4,1.5-0.5c-0.9-0.4-2.1-0.4-2.9,0L1393,847.5z"/>
<path style="fill:#E6EEF2;" d="M1396.9,847.3c-0.1,0.1-0.1,0.3-0.2,0.4c0.6,0,1.4,0.4,1.6-0.5
	C1397.9,847.2,1397.4,847.2,1396.9,847.3L1396.9,847.3z"/>
<path style="fill:#E6EEF2;" d="M1399,847.3c0.7-0.9,2-0.3,3-0.3c0,0.1,0,0.4,0,0.6c-0.5,0-1-0.1-1.4,0c-0.6,0.1-0.8,0.4-1.3,0.7
	c-0.1-0.3,0-0.6-0.1-0.8L1399,847.3z"/>
<path style="fill:#E6EEF2;" d="M1403.5,845.3c-0.2,0.2-0.3,0.4-0.4,0.7c0.9-0.2,2.2,0,2.9-0.8c-0.7,0-1.5-0.1-2.2-0.1L1403.5,845.3z
	"/>
<path style="fill:#E6EEF2;" d="M1406.3,845.1c0,0.3,0,0.6,0,0.9c0.5-0.4,0.8-0.5,1.4-0.3c0.4,0.2,1.2,0.8,1.1-0.2
	c-0.8-0.3-1.3-0.6-2.2-0.6L1406.3,845.1z"/>
<path style="fill:#E6EEF2;" d="M1411.2,847c-0.3,0.4-1,1.1-0.1,1.1c0.6,0,1.2-0.7,1.2-1.2c-0.3,0-0.6-0.1-0.9-0.1L1411.2,847z"/>
<path style="fill:#E6EEF2;" d="M1414,843.4c-0.1,0.4,0.7,0.6,0.9,0.3c0.1-0.1,0-0.5-0.2-0.6c-0.2-0.1-0.4,0.1-0.6,0.1L1414,843.4z"
	/>
<path style="fill:#E6EEF2;" d="M1416.1,841.4c0,0.4,0.7,0.6,0.9,0.2c0.1-0.4-0.5-0.4-0.7-0.4L1416.1,841.4z"/>
<path style="fill:#E6EEF2;" d="M1415.2,840.2c0,0.3-0.3,0.5-0.3,0.7c0.3-0.1,0.9,0,1.1-0.2c0-0.1,0.1-0.5,0-0.6
	c-0.1-0.1-0.5,0-0.6,0L1415.2,840.2z"/>
<path style="fill:#E6EEF2;" d="M1419.1,837.2c0,0.3-0.1,0.8,0.1,1c0.4,0.4,0.6-0.1,0.7-0.4c0.1-0.3,0.2-0.8,0-0.9
	c-0.2-0.2-0.7-0.1-0.7,0.2L1419.1,837.2z"/>
<path style="fill:#E6EEF2;" d="M1415.1,818.3c0-0.3,0.5-0.7,0.7-0.9c0.2-0.2,0.5-0.2,0.8-0.2c0.7,0,1.3,0.1,1.9,0.3
	c0.4,0.1,0.4,0.2,0.5,0.7c0.1,0.5,0.1,0.7-0.2,1.1c-0.3,0.4-0.4,0.4-0.9,0.4c-0.3,0-0.6,0-0.9,0c-0.7-0.1-1.7-0.5-1.9-1.2
	L1415.1,818.3z"/>
<path style="fill:#E6EEF2;" d="M1414.3,819.3c-0.1-0.4,0.4-0.9,0.5-1.3c-0.4,0.3-1,0.6-1.1,1c-0.1,0.5-0.1,0.9,0.2,1.3
	c0.1,0.1,0.3,0.6,0.5,0.7c0.2,0.1,0.6-0.2,0.8-0.3c0.3-0.3,0.1-0.3-0.2-0.6c-0.2-0.2-0.4-0.4-0.5-0.6L1414.3,819.3z"/>
<path style="fill:#E6EEF2;" d="M1419.3,824.4c0.3-0.3,0.8-0.7,1.2-0.9c0.3-0.2,0.8-0.1,1.2-0.1c0.1,0.4-0.3,0.8-0.5,1.1
	c-0.2,0.4-0.3,0.8-0.6,1.2c-0.2-0.1-0.7-0.1-0.9-0.3c-0.2-0.2-0.3-0.6-0.4-0.9L1419.3,824.4z"/>
<path style="fill:#E6EEF2;" d="M1415.8,825.9c0,0.5,0.1,0.6,0.4,1c0.2,0.2,0.6,0.6,0.9,0.2c0.1-0.1,0-0.7-0.1-0.9
	c-0.1-0.2-0.7-0.5-1-0.6L1415.8,825.9z"/>
<path style="fill:#E6EEF2;" d="M1496.2,822.7c0-0.7,0-1.7,0.5-2.3c0.2-0.2,0.3-0.2,0.3-0.5c0-0.2-0.3-0.3-0.4-0.5
	c-0.1-0.3,0.3-0.9,0.5-0.5c0.1-0.4,0.3-1.2-0.5-0.9c-0.6,0.2-0.7,1-0.8,1.5c-0.1,0.6-0.1,1.3,0,1.9c0,0.5,0.2,1,0.2,1.6
	L1496.2,822.7z"/>
<path style="fill:#E6EEF2;" d="M1504.8,821.5c0.1-0.7,1.1-1.1,1.1-2c0-1-0.7-1-1.6-1c-0.7,0-1.3,0.3-1.9,0.4c-0.6,0-1.5-0.3-1.7-0.8
	c-0.5-1,1.1-1.2,0.5-2.1c-0.9,0.3-1.9,0.7-2.9,0.8c-0.1,0.6-0.6,0.9-0.6,1.5c0,0.5-0.2,0.8-0.3,1.3l0.1,0.2c0.3-0.3,0.9-0.7,0.9-1.1
	c0-0.2-0.2-0.4-0.1-0.6c0.1-0.1,0.5-0.5,0.6-0.6c0.1,0.3,0.2,0.6,0.2,1c0,0.2,0,0.3-0.1,0.5c-0.1,0.1-0.3,0.3-0.3,0.5
	c0,0.3,0.6,0.2,0.8,0.1c0.3-0.2,0.5-0.8,0.8-0.8c0.1,0.2,0.2,0.5,0.5,0.6c0.1,0,0.2,0,0.3,0c0.1,0,0.2,0.2,0.3,0.2
	c0.4,0.3,1,0,1.4,0.5c0.2,0.3,0.2,0.5,0.2,0.8c0,0.3,0,0.3-0.2,0.4c-0.2,0.1-0.4,0.2-0.6,0.3c-0.2,0.1-0.5,0.4-0.7,0
	c-0.1-0.3,0.2-0.5,0.2-0.8c-0.1-0.2-0.6-0.7-0.8-0.9c0,0.4,0.2,0.8-0.2,0.9c-0.6,0.2-0.4-0.5-0.3-0.9c0.1-0.4-0.1-0.8-0.5-0.4
	c-0.4,0.4-0.2,0.9-0.2,1.4c-0.4-0.4-0.8-0.7-1.4-0.6c-0.2,0-0.7,0.1-0.9,0.1c-0.3,0.1-0.2,0.3-0.1,0.6c0.1,0.1,0.1,0.6,0.2,0.6
	c0.3,0.1,0.4-0.3,0.7-0.3c0.3,0,0.7,0.6,0.9,0.8c0.2,0.4,0.1,0.4-0.3,0.6c-0.6,0.2-1.2,0.5-1.4,1.1c0.4,0.1,0.8-0.2,1.2,0
	c0.4,0.2,1,1,0.5,1.3c-0.4,0.3-1.3,0-1.8,0.3c-0.3,0.1-0.4,0.9,0.1,1.1l0.1,0.2c0,0.2,0,1.2-0.3,1l0.3,0.2c0.3,0,0.6-0.3,0.9-0.2
	c0.1,0,0.1,0.2,0.1,0.2c0.1,0.1,0.2,0.1,0.3,0.1c0.2,0,0.3,0,0.5,0.1c0.8,0.1,1.4,0.3,2.2,0.6c0.3,0.1,0.6,0.4,0.8,0.1
	c0.2-0.3,0.1-0.7-0.2-0.7c-0.4-0.1-0.7,0.1-0.4-0.4c0.3-0.4,0.6-0.6,0.9-1c0.3-0.5,0.6-0.8,1.1-1c0.4-0.2,0.8-0.2,1.2-0.5l0.1,0
	c0.4,0.2,0.6,0.3,0.9,0c0.2-0.2,0.5-0.8,0.8-0.5c0.1,0.1,0.1,0.4,0.1,0.5c-0.1,0.2-0.1,0.2-0.4,0.3c-0.3,0.1-0.8,0.3-0.7,0.7
	c0.3,0,0.7-0.2,1-0.3c0.1,0,0.4-0.3,0.5-0.2c0.1,0,0.2,0.3,0.1,0.4c-0.1,0.1-0.9,0.3-0.5,0.6c0.1,0.1,0.3,0,0.4,0.1
	c0.2,0.2,0.1,0.4,0.4,0.4c0.4,0.1,0.3-0.7,0.4-1c0-0.3,0.1-0.8,0-1.1c-0.1-0.3-0.5-0.7-0.7-1c-0.3-0.3-0.5-0.7-1-0.6
	c-0.2,0-0.4,0.2-0.6,0.1c-0.2,0-0.5-0.5-0.6-0.7c-0.1-0.2-0.3-0.4-0.3-0.6c-0.1-0.2,0-0.6-0.1-0.7L1504.8,821.5z"/>
<path style="fill:#E6EEF2;" d="M1509.9,832.9c-0.1,0.3-0.3,0.7-0.3,1c0,0.5,0.2,0.5,0.6,0.2c0.2-0.2,0.4-0.7,0.7-0.3
	c0.2,0.2,0,0.7,0.1,0.9c0.2-0.1,0.6-0.4,0.7-0.6c0.1-0.2-0.1-0.5,0-0.8c0.2-0.7,0.8-0.2,1.2,0.2c0.3,0.2,0.5,0.4,0.8,0.7
	c0.2,0.2,0.7,0.5,0.8,0.7c0.1,0.3-0.2,1.3-0.3,1.5c-0.2-0.2-0.1-0.8-0.5-0.7c-0.2,0.1-0.4,0.7-0.5,0.8c0-0.5,0.1-1.2-0.5-1.4
	c-0.3-0.1-0.6,0-0.8,0.3c-0.3,0.4,0.1,0.5,0.3,0.7c0.3,0.3,0.6,1.1,0.5,1.5c-0.1,0.5-1.1,0.5-1.3,1.1l0,0.1c0.1,0.5,0.9,0.2,1,0
	c0.1-0.2-0.1-0.4,0.3-0.5c0.3,0,0.4,0.2,0.4,0.4c0.9-0.1,1.6-1,2.6-1.2c0.9-0.2,1.9,0,2.9,0l0.1-0.1c0-0.3,0-0.5,0.1-0.8
	c0.1-0.3,0.4-0.5,0.2-0.8c-0.2-0.4-1.2-0.6-1.6-0.8c-1-0.6-2-1.3-3.1-1.9c-0.9-0.6-2.1-0.9-3-1.4c-0.4-0.2-0.7-0.4-1-0.8
	c-0.3-0.5-0.7-1.2-1.1-0.5c-0.4,0.5-0.1,0.7,0.3,1.1c0.4,0.4,0.5,0.7,0.5,1.3L1509.9,832.9L1509.9,832.9z"/>
<path style="fill:#E6EEF2;" d="M1462.5,826c0,0.4,0.2,0.8,0.5,1c0.3,0.1,0.9,0.1,1.1-0.1c0.2-0.2,0-0.3,0.2-0.5c0.1-0.1,0.5,0,0.7,0
	c0.4,0,0.7,0.2,1.1,0.3c-0.1-0.2-0.3-0.8-0.4-1c-0.3-0.4-0.5-0.1-0.5-0.7c0-0.7,0.1-0.6-0.4-0.9c-0.2-0.1-0.3-0.1-0.5-0.2
	c-0.1,0-0.2,0-0.3-0.1c-0.1-0.1,0-0.2,0-0.3c-0.2-0.3-0.4-0.5-0.8-0.5c-0.4,0.1-0.6,0.3-1,0.3c-0.5,0-0.4-0.1-0.7,0.5
	c-0.3,0.5-0.4,0.7-0.4,1.3c0,0.5-0.1,0.9,0.3,1c0.4,0,0.5-0.5,1-0.4L1462.5,826z"/>
</svg>
