<?xml version="1.0" encoding="utf-8"?>
<!-- Generator: Adobe Illustrator 21.1.0, SVG Export Plug-In . SVG Version: 6.00 Build 0)  -->
<svg version="1.1" id="Ebene_1" xmlns="http://www.w3.org/2000/svg" xmlns:xlink="http://www.w3.org/1999/xlink" x="0px" y="0px"
	 viewBox="0 0 990 708" style="enable-background:new 0 0 990 708;" xml:space="preserve">
<style type="text/css">
	.st0{fill:#F3F7F8;}
	.st1{fill:#003A52;}
	.st2{font-family:'Arial-BoldMT';}
	.st3{font-size:125.5783px;}
	.st4{fill:#FF4141;}
	.st5{fill:#FFFFFF;}
</style>
<path class="st0" d="M325.1,194.4c165,16.8,377.1-153.5,457.5,104.2C863,556.2,595.8,760.2,380.9,696.4S-23.3,434.8,3.4,272.9
	C48.9-3.8,214.4,183.1,325.1,194.4"/>
<text transform="matrix(1 0 0 1 358.7998 462.457)" class="st1 st2 st3">Abschluss</text>
<path class="st4" d="M313,271c38-18.1,73.1-27.7,106-30.5V188c-33.4,2.8-68.6,13.6-106,32.2V271z"/>
<path class="st4" d="M419,73c-31.7,1.1-66.9,12.9-106,34.3V159c39.7-20.2,74.8-30.9,106-32V73z"/>
<path class="st4" d="M566.9,279c22.1,0,49.3-8.4,81.1-25.3V203c-43.1,21.4-78.8,28.1-106,19.7v51.8C549.4,277.3,557.9,279,566.9,279
	"/>
<path class="st4" d="M541.3,107.6v53.7c-4-1.1-7.4-2.3-10.7-4c-1.1-0.6-4-1.7-9-4.5c-5.1-2.3-8.5-4-9.6-4.5c-1.1-0.6-4-1.7-8.5-4
	s-7.9-4-9.6-4.5c-1.7-0.6-5.1-1.7-9-3.4c-4.5-1.7-7.9-2.8-10.2-3.4c-2.3-0.6-5.7-1.1-9.6-2.3c-4-1.1-7.3-1.7-10.7-2.3
	c-2.8-0.6-6.8-0.6-10.7-1.1c-4-0.6-7.9-0.6-11.9-0.6c-4.5,0-9,0-13.6,0.6v61.1h5.1c18.7,0,36.8,2.8,53.2,7.9
	c16.4,5.7,34.5,13,54.3,22.6c3.4,1.7,7.4,2.8,10.7,4v-61.6c27.1,7.4,62.2-0.6,105.7-24.9V85c-31.1,16.4-59.4,24.9-84.2,24.9
	C554.3,109.9,547.5,109.3,541.3,107.6"/>
<path class="st4" d="M657.5,38.1c5.6-2.8,11.3-2.8,16.9,0.6c6.2,3.4,9,8.5,9.6,15.3v210.4c0,7.4-3.4,12.4-9.6,15.8
	c-1.7,0.6-3.4,1.7-4.5,2.3c-40.1,20.9-74,31.7-101.7,31.7c-16.4,0-30.5-3.4-43.5-9.6l-7.9-4c-11.9-5.7-20.9-10.2-27.1-13
	s-14.7-5.1-24.9-7.9c-10.2-2.8-20.3-4-31.1-4c-18.6,0-40.7,3.4-65,11.9s-45.2,17.5-62.7,28.3c-2.8,1.7-5.6,2.3-9,2.3s-6.2-0.6-9-2.3
	c-6.2-3.4-9-8.5-9-15.3V96.3c0-6.8,2.8-11.9,8.5-15.3c6.2-4,13.6-7.9,21.5-11.9s18.1-8.5,31.1-14.1c13-5.7,26.5-10.2,41.8-13.6
	c14.7-3.4,28.8-5.1,42.4-5.1c20.9,0,40.1,2.8,57.6,8.5c18.1,5.7,37.3,13.6,57.6,23.8c6.8,3.4,14.7,5.1,24.3,5.1
	c22.6,0,50.8-10.7,85.3-31.1C652.9,40.3,655.8,39.2,657.5,38.1z M313.5,106.5c39-21.5,74-33.4,105.6-34.5v54.3
	c-31.1,1.1-66.1,11.9-105.6,32.2V106.5z M531.5,218.5c3.4,1.7,7.3,2.8,10.7,4v-61.6c27.1,7.4,62.1-0.6,105.6-24.9V84.4
	c-31.1,16.4-59.3,24.9-84.2,24.9c-8.5,0-15.3-0.6-21.5-2.3v53.7c-4-1.1-7.3-2.3-10.7-4c-1.1-0.6-3.9-1.7-9-4.5
	c-5.1-2.3-8.5-4-9.6-4.5c-1.1-0.6-4-1.7-8.5-4s-7.9-4-9.6-4.5c-1.7-0.6-5.1-1.7-9-3.4c-4.5-1.7-7.9-2.8-10.2-3.4
	c-2.3-0.6-5.6-1.1-9.6-2.3c-3.9-1.1-7.3-1.7-10.7-2.3c-2.8-0.6-6.8-0.6-10.7-1.1c-4-0.6-7.9-0.6-11.9-0.6c-4.5,0-9,0-13.6,0.6v61.1
	h5.1c18.6,0,36.7,2.8,53.1,7.9C493.6,201.5,511.7,208.8,531.5,218.5z M313.5,271.6c37.8-18.1,72.9-27.7,105.6-30.5v-52.6
	c-33.3,2.8-68.3,13.6-105.6,32.2V271.6z M647.9,202.6c-42.9,21.5-78.5,28.3-105.6,19.8v52c7.3,2.8,15.8,4.5,24.8,4.5
	c22,0,49.1-8.5,80.8-25.4V202.6z"/>
<path class="st4" d="M542.5,222.5L542.5,222.5L542.5,222.5L542.5,222.5z"/>
<path class="st1" d="M243.8,1.1c-9.6,0-18,3.4-24.7,10.2S209,26.6,209,36.2c0,6.2,1.7,12.4,5.1,17.5c3.4,5.1,7.3,9.6,12.9,12.4
	v332.8v15.8V486h34.8v-87.1V66.7c5.1-3.4,9.6-7.3,12.9-12.4c3.4-5.1,5.1-11.3,5.1-17.5c-1.1-10.2-4.5-18.1-11.2-25.4
	C261.8,4.5,253.4,1.1,243.8,1.1z"/>
<path class="st5" d="M542,107.6c6.2,1.7,13,2.3,21.5,2.3c24.9,0,53.3-8.5,84.5-24.9v51.5c-43.6,24.3-78.8,32.2-106,24.9V223l0,0"/>
<path class="st5" d="M542,223c-3.4-1.1-7.3-2.3-10.7-4c-19.7-9.6-37.8-16.9-54.2-22.6c-16.4-5.1-34.4-7.9-53-7.9H419v-61
	c4.5-0.6,9-0.6,13.5-0.6c4,0,7.9,0,11.9,0.6c3.9,0.6,7.9,0.6,10.7,1.1c3.4,0.6,6.8,1.1,10.7,2.3c4,1.1,7.3,1.7,9.6,2.3
	c2.3,0.6,5.6,1.7,10.2,3.4c4,1.7,7.3,2.8,9,3.4c1.7,0.6,5.1,2.3,9.6,4.5c4.5,2.3,7.3,3.4,8.5,3.9c1.1,0.6,4.5,2.3,9.6,4.5
	c5.1,2.8,7.9,4,9,4.5c3.4,1.7,6.8,2.8,10.7,4"/>
<path class="st5" d="M542,222.7c27.2,8.4,62.9,1.7,106-19.7v50.7c-31.7,16.9-59,25.3-81.1,25.3c-9.1,0-17.6-1.7-24.9-4.5V222.7"/>
<path class="st5" d="M419,240.5c-32.9,2.8-68,12.4-106,30.5v-50.8c37.4-18.6,72.6-29.4,106-32.2V240.5z"/>
<path class="st5" d="M313,107.3c39.1-21.4,74.3-33.2,106-34.3v33.5V127c-31.2,1.1-66.3,11.8-106,32V107.3z"/>
<path class="st1" d="M665.5,36c-2.7,0-5.4,0.7-8.1,2.1c-1.7,1.1-4.5,2.3-8.5,4.5c-34.5,20.4-62.7,31.1-85.3,31.1
	c-9.6,0-17.5-1.7-24.3-5.1c-20.3-10.2-39.5-18.1-57.6-23.8c-17.5-5.7-36.7-8.5-57.6-8.5c-13.6,0-27.7,1.7-42.4,5.1
	c-15.1,3.4-28.7,8-41.7,13.6c-13,5.7-23.2,10.2-31.1,14.1c-7.9,4-15.2,7.9-21.5,11.9c-5.6,3.4-8.5,8.5-8.5,15.3v204.2
	c0,6.8,2.8,11.9,9,15.3c2.8,1.7,5.7,2.3,9,2.3c3.4,0,6.2-0.6,9-2.3c17.5-10.7,38.4-19.8,62.7-28.3c24.3-8.5,46.3-11.9,65-11.9
	c10.7,0,20.9,1.1,31.1,4c10.2,2.8,18.6,5.1,24.9,7.9c6.2,2.8,15.3,7.4,27.1,13l7.9,4c13,6.2,27.1,9.6,43.5,9.6
	c27.7,0,61.6-10.7,101.7-31.7c1.1-0.6,2.8-1.7,4.5-2.3c6.2-3.4,9.6-8.5,9.6-15.8V53.9c-0.6-6.8-3.4-11.9-9.6-15.3
	C671.4,36.8,668.5,36,665.5,36 M424.2,71.8c17.1,0,32.8,2.3,46.7,6.8h0.2l0.2,0.1c16.2,5.1,33.8,12.3,52.3,21.6
	c11.9,5.9,25,8.8,40.1,8.8c24.5,0,51.8-8.2,84.9-25.7v170c-32.9,16.7-60,25.1-80.4,25.1c-10.4,0-19.3-1.9-28-6l-7.6-3.8l-0.3-0.1
	l-0.3-0.2c-4.9-2.4-9.4-4.5-13.3-6.4c-5.6-2.7-10.4-5-14.3-6.8c-8.3-3.8-17.3-6.3-27.8-9.2l-2.2-0.6c-12.7-3.5-26-5.2-40.6-5.2
	c-24.5,0-50.3,4.7-76.6,13.9c-16.2,5.6-30.2,11.3-42.7,17.2v-165c3-1.7,6.5-3.5,10.4-5.4c7.1-3.6,16.9-7.9,29.3-13.3
	c11.4-5,23-8.7,35.4-11.5h0.1h0.1C401.8,73.2,413.4,71.8,424.2,71.8"/>
</svg>
