<?xml version="1.0" encoding="utf-8"?>
<!-- Generator: Adobe Illustrator 21.1.0, SVG Export Plug-In . SVG Version: 6.00 Build 0)  -->
<svg version="1.1" id="Ebene_1" xmlns="http://www.w3.org/2000/svg" xmlns:xlink="http://www.w3.org/1999/xlink" x="0px" y="0px"
	 viewBox="0 0 327.6 340.4" style="enable-background:new 0 0 327.6 340.4;" xml:space="preserve">
<style type="text/css">
	.st0{fill:#F3F7F8;}
	.st1{enable-background:new    ;}
	.st2{fill:#003A52;}
	.st3{fill:#FF4141;}
</style>
<path class="st0" d="M233.2,193.1c-39.1,56.2-20,166.9-129.3,144.4S-25.4,177.6,40.7,112.8c66.1-64.9,175.5-93.6,228.7-51.6
	C360.2,133,259.5,155.3,233.2,193.1"/>
<g class="st1">
	<path class="st2" d="M179.6,168.3h13c2.6,0,4.5,0.1,5.8,0.3c1.3,0.2,2.4,0.7,3.4,1.3c1,0.7,1.8,1.6,2.5,2.7c0.7,1.1,1,2.4,1,3.8
		c0,1.5-0.4,2.9-1.2,4.2c-0.8,1.3-1.9,2.2-3.3,2.9c2,0.6,3.5,1.6,4.6,3c1.1,1.4,1.6,3,1.6,4.9c0,1.5-0.3,2.9-1,4.3
		c-0.7,1.4-1.6,2.5-2.8,3.4c-1.2,0.8-2.7,1.4-4.4,1.5c-1.1,0.1-3.7,0.2-7.9,0.2h-11.1V168.3z M186.1,173.7v7.5h4.3
		c2.6,0,4.2,0,4.8-0.1c1.1-0.1,2-0.5,2.7-1.2c0.6-0.6,1-1.5,1-2.5c0-1-0.3-1.8-0.8-2.5c-0.6-0.6-1.4-1-2.5-1.1
		c-0.7-0.1-2.5-0.1-5.6-0.1H186.1z M186.1,186.6v8.7h6.1c2.4,0,3.9-0.1,4.5-0.2c1-0.2,1.8-0.6,2.4-1.3c0.6-0.7,0.9-1.6,0.9-2.8
		c0-1-0.2-1.8-0.7-2.5c-0.5-0.7-1.2-1.2-2.1-1.5c-0.9-0.3-2.8-0.5-5.8-0.5H186.1z"/>
	<path class="st2" d="M226.1,193.3l6.2,1c-0.8,2.3-2.1,4-3.8,5.2c-1.7,1.2-3.9,1.8-6.5,1.8c-4.1,0-7.1-1.3-9.1-4
		c-1.6-2.2-2.3-4.9-2.3-8.1c0-3.9,1-7,3.1-9.2c2-2.2,4.6-3.3,7.8-3.3c3.5,0,6.3,1.2,8.3,3.5c2,2.3,3,5.9,2.9,10.7H217
		c0,1.9,0.5,3.3,1.5,4.3c1,1,2.2,1.5,3.6,1.5c1,0,1.8-0.3,2.5-0.8C225.2,195.4,225.7,194.5,226.1,193.3z M226.4,187
		c0-1.8-0.5-3.2-1.4-4.1c-0.9-0.9-2-1.4-3.2-1.4c-1.4,0-2.5,0.5-3.4,1.5c-0.9,1-1.3,2.3-1.3,4H226.4z"/>
	<path class="st2" d="M237.2,202.4l7.1,0.9c0.1,0.8,0.4,1.4,0.8,1.7c0.6,0.4,1.5,0.7,2.8,0.7c1.6,0,2.9-0.2,3.7-0.7
		c0.5-0.3,1-0.9,1.2-1.6c0.2-0.5,0.3-1.5,0.3-2.9V197c-1.9,2.6-4.2,3.8-7.1,3.8c-3.2,0-5.7-1.3-7.5-4c-1.5-2.1-2.2-4.8-2.2-7.9
		c0-4,1-7,2.9-9.1c1.9-2.1,4.3-3.1,7.1-3.1c2.9,0,5.3,1.3,7.2,3.8v-3.3h5.9v21.2c0,2.8-0.2,4.9-0.7,6.3s-1.1,2.5-1.9,3.2
		c-0.8,0.8-1.9,1.4-3.3,1.8c-1.4,0.4-3.1,0.7-5.3,0.7c-4,0-6.8-0.7-8.5-2.1c-1.7-1.4-2.5-3.1-2.5-5.2
		C237.1,203,237.1,202.7,237.2,202.4z M242.7,188.6c0,2.5,0.5,4.3,1.5,5.5c1,1.2,2.2,1.7,3.6,1.7c1.5,0,2.8-0.6,3.9-1.8
		c1.1-1.2,1.6-3,1.6-5.3c0-2.4-0.5-4.3-1.5-5.5c-1-1.2-2.3-1.8-3.8-1.8c-1.5,0-2.7,0.6-3.7,1.7C243.2,184.4,242.7,186.2,242.7,188.6
		z"/>
	<path class="st2" d="M265.6,174v-5.8h6.3v5.8H265.6z M265.6,200.9v-23.6h6.3v23.6H265.6z"/>
	<path class="st2" d="M299.7,200.9h-6.3v-12.1c0-2.6-0.1-4.2-0.4-4.9c-0.3-0.7-0.7-1.3-1.3-1.7c-0.6-0.4-1.3-0.6-2.2-0.6
		c-1.1,0-2.1,0.3-2.9,0.9c-0.9,0.6-1.4,1.4-1.8,2.4c-0.3,1-0.5,2.8-0.5,5.4v10.7h-6.3v-23.6h5.8v3.5c2.1-2.7,4.7-4,7.8-4
		c1.4,0,2.6,0.2,3.8,0.7c1.1,0.5,2,1.1,2.6,1.9c0.6,0.8,1,1.6,1.2,2.6c0.2,1,0.3,2.4,0.3,4.2V200.9z"/>
	<path class="st2" d="M327.6,200.9h-6.3v-12.1c0-2.6-0.1-4.2-0.4-4.9c-0.3-0.7-0.7-1.3-1.3-1.7c-0.6-0.4-1.3-0.6-2.2-0.6
		c-1.1,0-2.1,0.3-2.9,0.9c-0.9,0.6-1.4,1.4-1.8,2.4c-0.3,1-0.5,2.8-0.5,5.4v10.7H306v-23.6h5.8v3.5c2.1-2.7,4.7-4,7.8-4
		c1.4,0,2.6,0.2,3.8,0.7c1.1,0.5,2,1.1,2.6,1.9c0.6,0.8,1,1.6,1.2,2.6c0.2,1,0.3,2.4,0.3,4.2V200.9z"/>
</g>
<path class="st3" d="M64.1,210.1h-0.1c-3.5,0-6.3,2.9-6.3,6.4c0,0,0,0,0,0v39.9c-0.2,3.5,2.5,6.5,6,6.6c3.5,0.2,6.5-2.5,6.6-6
	c0-0.2,0-0.4,0-0.6v-39.9C70.4,213.1,67.6,210.2,64.1,210.1"/>
<path class="st3" d="M93.8,177.5h-0.2c-3.5,0.1-6.3,2.9-6.2,6.4v36c-0.2,3.5,2.5,6.4,6,6.6c3.5,0.2,6.5-2.5,6.6-6c0-0.2,0-0.4,0-0.6
	v-36C100.1,180.4,97.3,177.5,93.8,177.5"/>
<path class="st3" d="M93.8,237.7h-0.2c-3.5,0.1-6.3,2.9-6.2,6.4v6.2c-0.2,3.5,2.5,6.5,6,6.6c3.5,0.2,6.5-2.5,6.6-6
	c0-0.2,0-0.4,0-0.6v-6.2C100.1,240.6,97.3,237.7,93.8,237.7"/>
<path class="st3" d="M123.6,201.4h-0.2c-3.5,0.1-6.3,2.9-6.2,6.4v24.8c-0.2,3.5,2.5,6.4,6,6.6s6.5-2.5,6.6-6c0-0.2,0-0.4,0-0.6
	v-24.8C129.9,204.3,127.1,201.5,123.6,201.4"/>
<path class="st2" d="M93.7,93.3c-8.5,0-15.4-6.9-15.4-15.3s6.9-15.3,15.4-15.3s15.4,6.9,15.4,15.3S102.2,93.3,93.7,93.3
	 M146.8,129.4c-2.4-8.9-9.4-21.9-19.3-24.3c1.5-7.1,2.3-14.3,2.3-21.5c0-30.7-13.2-60-36.2-80.5C70.8,23.6,57.6,52.9,57.6,83.6
	c0,7.2,0.8,14.4,2.2,21.5c-9.8,2.5-16.7,15.4-19.1,24.3c-3.2,11.8,1,36.8,5.6,54.1c11.1-11,17.8-18.2,23.3-24.3
	c7.4,4.1,15.7,6.3,24.1,6.3c8.4,0,16.7-2.2,24.1-6.3c5.5,6.1,12.2,13.3,23.4,24.3C145.8,166.3,150,141.3,146.8,129.4"/>
</svg>
