<?xml version="1.0" encoding="utf-8"?>
<!-- Generator: Adobe Illustrator 21.1.0, SVG Export Plug-In . SVG Version: 6.00 Build 0)  -->
<svg version="1.1" id="Ebene_1" xmlns="http://www.w3.org/2000/svg" xmlns:xlink="http://www.w3.org/1999/xlink" x="0px" y="0px"
	 viewBox="0 0 365.1 236.2" style="enable-background:new 0 0 365.1 236.2;" xml:space="preserve">
<style type="text/css">
	.st0{fill:#F3F7F8;}
	.st1{enable-background:new    ;}
	.st2{fill:#003A52;}
	.st3{fill:#FF4141;}
</style>
<path class="st0" d="M167,184.1c-48.1-26.6-134.8-2.2-125.8-91.2c9-88.9,116.9-116.3,174.1-69s89.2,132.2,60,178.1
	C225.4,280.3,199.3,201.9,167,184.1"/>
<g class="st1">
	<path class="st2" d="M2,147.1v-24.3h4.7v8.7c1.4-1.6,3.1-2.5,5.1-2.5c2.1,0,3.9,0.8,5.3,2.3c1.4,1.6,2.1,3.8,2.1,6.7
		c0,3-0.7,5.3-2.1,6.9c-1.4,1.6-3.2,2.4-5.2,2.4c-1,0-2-0.3-3-0.8s-1.8-1.2-2.5-2.2v2.6H2z M6.6,137.9c0,1.8,0.3,3.2,0.9,4
		c0.8,1.2,1.9,1.9,3.2,1.9c1,0,1.9-0.4,2.6-1.3c0.7-0.9,1.1-2.3,1.1-4.1c0-2-0.4-3.5-1.1-4.3c-0.7-0.9-1.7-1.3-2.8-1.3
		c-1.1,0-2,0.4-2.8,1.3C7,134.8,6.6,136.1,6.6,137.9z"/>
	<path class="st2" d="M33.1,141.5l4.6,0.8c-0.6,1.7-1.5,3-2.8,3.9c-1.3,0.9-2.9,1.3-4.8,1.3c-3.1,0-5.3-1-6.8-3
		c-1.2-1.6-1.7-3.6-1.7-6.1c0-2.9,0.8-5.2,2.3-6.8c1.5-1.6,3.4-2.5,5.8-2.5c2.6,0,4.7,0.9,6.2,2.6c1.5,1.7,2.2,4.4,2.2,7.9H26.3
		c0,1.4,0.4,2.5,1.1,3.2c0.7,0.8,1.6,1.2,2.7,1.2c0.7,0,1.3-0.2,1.8-0.6C32.5,143,32.8,142.3,33.1,141.5z M33.4,136.8
		c0-1.3-0.4-2.4-1-3.1c-0.7-0.7-1.5-1.1-2.4-1.1c-1,0-1.9,0.4-2.5,1.1c-0.7,0.7-1,1.7-1,3H33.4z"/>
	<path class="st2" d="M40.1,142l4.7-0.7c0.2,0.9,0.6,1.6,1.2,2.1c0.6,0.5,1.5,0.7,2.5,0.7c1.2,0,2.1-0.2,2.7-0.7
		c0.4-0.3,0.6-0.7,0.6-1.2c0-0.4-0.1-0.6-0.3-0.9c-0.2-0.2-0.8-0.4-1.6-0.6c-3.8-0.8-6.1-1.6-7.1-2.3c-1.4-0.9-2.1-2.3-2.1-4
		c0-1.5,0.6-2.8,1.8-3.8c1.2-1,3.1-1.6,5.6-1.6c2.4,0,4.2,0.4,5.4,1.2c1.2,0.8,2,1.9,2.4,3.5l-4.4,0.8c-0.2-0.7-0.5-1.2-1.1-1.6
		c-0.5-0.4-1.3-0.5-2.2-0.5c-1.2,0-2.1,0.2-2.6,0.5c-0.4,0.2-0.5,0.6-0.5,0.9c0,0.3,0.2,0.6,0.5,0.8c0.4,0.3,1.9,0.7,4.3,1.3
		c2.5,0.6,4.2,1.3,5.2,2.1c1,0.8,1.5,2,1.5,3.5c0,1.6-0.7,3-2,4.2c-1.3,1.2-3.3,1.7-6,1.7c-2.4,0-4.3-0.5-5.7-1.5
		C41.5,145,40.6,143.7,40.1,142z"/>
	<path class="st2" d="M59.5,138c0-1.5,0.4-3,1.1-4.5c0.8-1.4,1.8-2.5,3.2-3.3c1.4-0.8,3-1.1,4.7-1.1c2.7,0,4.8,0.9,6.5,2.6
		c1.7,1.7,2.5,3.9,2.5,6.5c0,2.7-0.9,4.9-2.6,6.6c-1.7,1.7-3.9,2.6-6.5,2.6c-1.6,0-3.1-0.4-4.6-1.1c-1.5-0.7-2.6-1.8-3.3-3.2
		C59.9,141.7,59.5,140,59.5,138z M64.3,138.3c0,1.7,0.4,3.1,1.2,4c0.8,0.9,1.8,1.4,3.1,1.4c1.2,0,2.2-0.5,3.1-1.4
		c0.8-0.9,1.2-2.3,1.2-4c0-1.7-0.4-3-1.2-4c-0.8-0.9-1.8-1.4-3.1-1.4c-1.2,0-2.2,0.5-3.1,1.4C64.7,135.2,64.3,136.5,64.3,138.3z"/>
	<path class="st2" d="M97.3,147.1h-4.7v-9c0-1.9-0.1-3.1-0.3-3.7c-0.2-0.6-0.5-1-1-1.3c-0.4-0.3-1-0.5-1.6-0.5
		c-0.8,0-1.5,0.2-2.2,0.7c-0.6,0.4-1.1,1-1.3,1.8c-0.2,0.7-0.4,2.1-0.4,4v8h-4.7v-17.6h4.3v2.6c1.5-2,3.5-3,5.8-3c1,0,2,0.2,2.8,0.6
		c0.8,0.4,1.5,0.8,1.9,1.4c0.4,0.6,0.7,1.2,0.9,2c0.2,0.7,0.3,1.8,0.3,3.1V147.1z"/>
	<path class="st2" d="M118.2,147.1h-4.3v-2.6c-0.7,1-1.6,1.8-2.5,2.2c-1,0.5-2,0.7-3,0.7c-2,0-3.7-0.8-5.2-2.4
		c-1.4-1.6-2.2-3.9-2.2-6.8c0-3,0.7-5.2,2.1-6.8c1.4-1.6,3.2-2.3,5.3-2.3c2,0,3.7,0.8,5.1,2.5v-8.7h4.7V147.1z M105.8,137.9
		c0,1.9,0.3,3.2,0.8,4.1c0.8,1.2,1.8,1.8,3.1,1.8c1.1,0,2-0.5,2.7-1.4c0.8-0.9,1.1-2.3,1.1-4.1c0-2-0.4-3.5-1.1-4.4
		c-0.7-0.9-1.7-1.3-2.8-1.3c-1.1,0-2,0.4-2.8,1.3C106.1,134.8,105.8,136.1,105.8,137.9z"/>
	<path class="st2" d="M132.9,141.5l4.6,0.8c-0.6,1.7-1.5,3-2.8,3.9c-1.3,0.9-2.9,1.3-4.8,1.3c-3.1,0-5.3-1-6.8-3
		c-1.2-1.6-1.7-3.6-1.7-6.1c0-2.9,0.8-5.2,2.3-6.8c1.5-1.6,3.4-2.5,5.8-2.5c2.6,0,4.7,0.9,6.2,2.6c1.5,1.7,2.2,4.4,2.2,7.9h-11.7
		c0,1.4,0.4,2.5,1.1,3.2c0.7,0.8,1.6,1.2,2.7,1.2c0.7,0,1.3-0.2,1.8-0.6C132.3,143,132.7,142.3,132.9,141.5z M133.2,136.8
		c0-1.3-0.4-2.4-1-3.1c-0.7-0.7-1.5-1.1-2.4-1.1c-1,0-1.9,0.4-2.5,1.1c-0.7,0.7-1,1.7-1,3H133.2z"/>
	<path class="st2" d="M146.1,147.1h-4.7v-17.6h4.3v2.5c0.7-1.2,1.4-2,2-2.3c0.6-0.4,1.3-0.6,2-0.6c1.1,0,2.1,0.3,3.1,0.9l-1.4,4.1
		c-0.8-0.5-1.5-0.8-2.2-0.8c-0.7,0-1.2,0.2-1.7,0.5c-0.5,0.4-0.8,1-1.1,1.9c-0.3,0.9-0.4,2.9-0.4,5.9V147.1z"/>
	<path class="st2" d="M165,141.5l4.6,0.8c-0.6,1.7-1.5,3-2.8,3.9c-1.3,0.9-2.9,1.3-4.8,1.3c-3.1,0-5.3-1-6.8-3
		c-1.2-1.6-1.7-3.6-1.7-6.1c0-2.9,0.8-5.2,2.3-6.8c1.5-1.6,3.4-2.5,5.8-2.5c2.6,0,4.7,0.9,6.2,2.6c1.5,1.7,2.2,4.4,2.2,7.9h-11.7
		c0,1.4,0.4,2.5,1.1,3.2c0.7,0.8,1.6,1.2,2.7,1.2c0.7,0,1.3-0.2,1.8-0.6C164.4,143,164.7,142.3,165,141.5z M165.3,136.8
		c0-1.3-0.4-2.4-1-3.1c-0.7-0.7-1.5-1.1-2.4-1.1c-1,0-1.9,0.4-2.5,1.1c-0.7,0.7-1,1.7-1,3H165.3z"/>
</g>
<g class="st1">
	<path class="st2" d="M2.4,181.3v-24.1h4.9v20h12.2v4.1H2.4z"/>
	<path class="st2" d="M33.1,175.7l4.6,0.8c-0.6,1.7-1.5,3-2.8,3.9c-1.3,0.9-2.9,1.3-4.8,1.3c-3.1,0-5.3-1-6.8-3
		c-1.2-1.6-1.7-3.6-1.7-6.1c0-2.9,0.8-5.2,2.3-6.8c1.5-1.6,3.4-2.5,5.8-2.5c2.6,0,4.7,0.9,6.2,2.6c1.5,1.7,2.2,4.4,2.2,7.9H26.3
		c0,1.4,0.4,2.5,1.1,3.2c0.7,0.8,1.6,1.2,2.7,1.2c0.7,0,1.3-0.2,1.8-0.6C32.5,177.3,32.8,176.6,33.1,175.7z M33.4,171
		c0-1.3-0.4-2.4-1-3.1c-0.7-0.7-1.5-1.1-2.4-1.1c-1,0-1.9,0.4-2.5,1.1c-0.7,0.7-1,1.7-1,3H33.4z"/>
	<path class="st2" d="M41.6,181.3v-24.3h4.7v8.7c1.4-1.6,3.1-2.5,5.1-2.5c2.1,0,3.9,0.8,5.3,2.3c1.4,1.6,2.1,3.8,2.1,6.7
		c0,3-0.7,5.3-2.1,6.9c-1.4,1.6-3.2,2.4-5.2,2.4c-1,0-2-0.3-3-0.8c-1-0.5-1.8-1.2-2.5-2.2v2.6H41.6z M46.2,172.2
		c0,1.8,0.3,3.2,0.9,4c0.8,1.2,1.9,1.9,3.2,1.9c1,0,1.9-0.4,2.6-1.3c0.7-0.9,1.1-2.3,1.1-4.1c0-2-0.4-3.5-1.1-4.3
		c-0.7-0.9-1.7-1.3-2.8-1.3c-1.1,0-2,0.4-2.8,1.3C46.6,169.1,46.2,170.4,46.2,172.2z"/>
	<path class="st2" d="M72.7,175.7l4.6,0.8c-0.6,1.7-1.5,3-2.8,3.9c-1.3,0.9-2.9,1.3-4.8,1.3c-3.1,0-5.3-1-6.8-3
		c-1.2-1.6-1.7-3.6-1.7-6.1c0-2.9,0.8-5.2,2.3-6.8c1.5-1.6,3.4-2.5,5.8-2.5c2.6,0,4.7,0.9,6.2,2.6c1.5,1.7,2.2,4.4,2.2,7.9H65.9
		c0,1.4,0.4,2.5,1.1,3.2c0.7,0.8,1.6,1.2,2.7,1.2c0.7,0,1.3-0.2,1.8-0.6C72,177.3,72.4,176.6,72.7,175.7z M72.9,171
		c0-1.3-0.4-2.4-1-3.1c-0.7-0.7-1.5-1.1-2.4-1.1c-1,0-1.9,0.4-2.5,1.1c-0.7,0.7-1,1.7-1,3H72.9z"/>
	<path class="st2" d="M97.3,181.3h-4.7v-9c0-1.9-0.1-3.1-0.3-3.7c-0.2-0.6-0.5-1-1-1.3c-0.4-0.3-1-0.5-1.6-0.5
		c-0.8,0-1.5,0.2-2.2,0.7c-0.6,0.4-1.1,1-1.3,1.8s-0.4,2.1-0.4,4v8h-4.7v-17.6h4.3v2.6c1.5-2,3.5-3,5.8-3c1,0,2,0.2,2.8,0.6
		c0.8,0.4,1.5,0.8,1.9,1.4c0.4,0.6,0.7,1.2,0.9,2c0.2,0.7,0.3,1.8,0.3,3.1V181.3z"/>
	<path class="st2" d="M100.4,176.3l4.7-0.7c0.2,0.9,0.6,1.6,1.2,2.1c0.6,0.5,1.5,0.7,2.5,0.7c1.2,0,2.1-0.2,2.7-0.7
		c0.4-0.3,0.6-0.7,0.6-1.2c0-0.4-0.1-0.6-0.3-0.9c-0.2-0.2-0.8-0.4-1.6-0.6c-3.8-0.8-6.1-1.6-7.1-2.3c-1.4-0.9-2.1-2.3-2.1-4
		c0-1.5,0.6-2.8,1.8-3.8c1.2-1,3.1-1.6,5.6-1.6c2.4,0,4.2,0.4,5.4,1.2c1.2,0.8,2,1.9,2.4,3.5l-4.4,0.8c-0.2-0.7-0.5-1.2-1.1-1.6
		c-0.5-0.4-1.3-0.5-2.2-0.5c-1.2,0-2.1,0.2-2.6,0.5c-0.4,0.2-0.5,0.6-0.5,0.9c0,0.3,0.2,0.6,0.5,0.8c0.4,0.3,1.9,0.7,4.3,1.3
		c2.5,0.6,4.2,1.3,5.2,2.1c1,0.8,1.5,2,1.5,3.5c0,1.6-0.7,3-2,4.2c-1.3,1.2-3.3,1.7-6,1.7c-2.4,0-4.3-0.5-5.7-1.5
		C101.7,179.3,100.8,178,100.4,176.3z"/>
	<path class="st2" d="M132.5,181.3v-2.6c-0.6,0.9-1.5,1.7-2.5,2.2c-1,0.5-2.1,0.8-3.3,0.8c-1.2,0-2.2-0.3-3.2-0.8
		c-0.9-0.5-1.6-1.2-2-2.2c-0.4-0.9-0.6-2.2-0.6-3.9v-11.1h4.7v8.1c0,2.5,0.1,4,0.3,4.5c0.2,0.6,0.5,1,0.9,1.3c0.5,0.3,1,0.5,1.7,0.5
		c0.8,0,1.5-0.2,2.1-0.7c0.6-0.4,1.1-1,1.3-1.6c0.2-0.6,0.3-2.2,0.3-4.7v-7.4h4.7v17.6H132.5z"/>
	<path class="st2" d="M141.3,163.8h4.3v2.4c1.5-1.9,3.4-2.8,5.5-2.8c1.1,0,2.1,0.2,2.9,0.7c0.8,0.5,1.5,1.2,2,2.1
		c0.8-0.9,1.6-1.6,2.5-2.1c0.9-0.5,1.8-0.7,2.9-0.7c1.3,0,2.4,0.3,3.3,0.8c0.9,0.5,1.6,1.3,2,2.3c0.3,0.8,0.5,2,0.5,3.6v11.2h-4.7
		v-10c0-1.7-0.2-2.9-0.5-3.4c-0.4-0.7-1.1-1-2-1c-0.7,0-1.3,0.2-1.8,0.6c-0.6,0.4-1,1-1.2,1.7c-0.3,0.8-0.4,2-0.4,3.6v8.4h-4.7v-9.6
		c0-1.7-0.1-2.8-0.2-3.3c-0.2-0.5-0.4-0.9-0.8-1.1c-0.3-0.2-0.8-0.4-1.4-0.4c-0.7,0-1.4,0.2-1.9,0.6c-0.6,0.4-1,0.9-1.2,1.7
		c-0.2,0.7-0.4,1.9-0.4,3.6v8.5h-4.7V163.8z"/>
	<path class="st2" d="M170.1,176.3l4.7-0.7c0.2,0.9,0.6,1.6,1.2,2.1c0.6,0.5,1.5,0.7,2.5,0.7c1.2,0,2.1-0.2,2.7-0.7
		c0.4-0.3,0.6-0.7,0.6-1.2c0-0.4-0.1-0.6-0.3-0.9c-0.2-0.2-0.8-0.4-1.6-0.6c-3.8-0.8-6.1-1.6-7.1-2.3c-1.4-0.9-2.1-2.3-2.1-4
		c0-1.5,0.6-2.8,1.8-3.8c1.2-1,3.1-1.6,5.6-1.6c2.4,0,4.2,0.4,5.4,1.2c1.2,0.8,2,1.9,2.4,3.5l-4.4,0.8c-0.2-0.7-0.5-1.2-1.1-1.6
		c-0.5-0.4-1.3-0.5-2.2-0.5c-1.2,0-2.1,0.2-2.6,0.5c-0.4,0.2-0.5,0.6-0.5,0.9c0,0.3,0.2,0.6,0.5,0.8c0.4,0.3,1.9,0.7,4.3,1.3
		c2.5,0.6,4.2,1.3,5.2,2.1c1,0.8,1.5,2,1.5,3.5c0,1.6-0.7,3-2,4.2s-3.3,1.7-6,1.7c-2.4,0-4.3-0.5-5.7-1.5
		C171.5,179.3,170.5,178,170.1,176.3z"/>
	<path class="st2" d="M198.7,163.8v3.7h-3.2v7.1c0,1.4,0,2.3,0.1,2.5c0.1,0.2,0.2,0.4,0.4,0.6c0.2,0.2,0.5,0.2,0.8,0.2
		c0.4,0,1.1-0.1,1.9-0.4l0.4,3.6c-1.1,0.5-2.3,0.7-3.7,0.7c-0.8,0-1.6-0.1-2.3-0.4c-0.7-0.3-1.2-0.6-1.5-1.1
		c-0.3-0.4-0.5-1.1-0.7-1.8c-0.1-0.5-0.1-1.6-0.1-3.3v-7.7h-2.1v-3.7h2.1v-3.5l4.7-2.7v6.2H198.7z"/>
	<path class="st2" d="M205.4,169.1l-4.2-0.8c0.5-1.7,1.3-3,2.5-3.8c1.2-0.8,2.9-1.2,5.2-1.2c2.1,0,3.6,0.2,4.6,0.7
		c1,0.5,1.7,1.1,2.1,1.9c0.4,0.8,0.6,2.1,0.6,4.2l0,5.4c0,1.5,0.1,2.7,0.2,3.4c0.1,0.7,0.4,1.5,0.8,2.4h-4.6
		c-0.1-0.3-0.3-0.8-0.4-1.4c-0.1-0.3-0.1-0.5-0.2-0.5c-0.8,0.8-1.6,1.4-2.5,1.7c-0.9,0.4-1.9,0.6-2.9,0.6c-1.8,0-3.2-0.5-4.3-1.5
		c-1-1-1.6-2.2-1.6-3.7c0-1,0.2-1.9,0.7-2.7c0.5-0.8,1.1-1.4,2-1.8c0.9-0.4,2.1-0.8,3.7-1.1c2.2-0.4,3.7-0.8,4.5-1.1v-0.5
		c0-0.9-0.2-1.5-0.7-1.9c-0.4-0.4-1.3-0.6-2.5-0.6c-0.8,0-1.5,0.2-1.9,0.5C206,167.7,205.7,168.3,205.4,169.1z M203.4,160.6v-4h4v4
		H203.4z M211.6,172.9c-0.6,0.2-1.5,0.4-2.8,0.7c-1.3,0.3-2.1,0.5-2.5,0.8c-0.6,0.4-0.9,1-0.9,1.6c0,0.7,0.2,1.2,0.7,1.7
		c0.5,0.5,1.1,0.7,1.9,0.7c0.8,0,1.6-0.3,2.4-0.8c0.6-0.4,0.9-0.9,1.1-1.5c0.1-0.4,0.2-1.2,0.2-2.3V172.9z M210.5,160.6v-4h4v4
		H210.5z"/>
	<path class="st2" d="M236.8,181.3h-4.7v-9c0-1.9-0.1-3.1-0.3-3.7c-0.2-0.6-0.5-1-1-1.3c-0.4-0.3-1-0.5-1.6-0.5
		c-0.8,0-1.5,0.2-2.2,0.7c-0.6,0.4-1.1,1-1.3,1.8s-0.4,2.1-0.4,4v8h-4.7v-17.6h4.3v2.6c1.5-2,3.5-3,5.8-3c1,0,2,0.2,2.8,0.6
		c0.8,0.4,1.5,0.8,1.9,1.4c0.4,0.6,0.7,1.2,0.9,2c0.2,0.7,0.3,1.8,0.3,3.1V181.3z"/>
	<path class="st2" d="M257.6,181.3h-4.3v-2.6c-0.7,1-1.6,1.8-2.5,2.2c-1,0.5-2,0.7-3,0.7c-2,0-3.7-0.8-5.2-2.4
		c-1.4-1.6-2.2-3.9-2.2-6.8c0-3,0.7-5.2,2.1-6.8c1.4-1.6,3.2-2.3,5.3-2.3c2,0,3.7,0.8,5.1,2.5v-8.7h4.7V181.3z M245.2,172.2
		c0,1.9,0.3,3.2,0.8,4.1c0.8,1.2,1.8,1.8,3.1,1.8c1.1,0,2-0.5,2.7-1.4c0.8-0.9,1.1-2.3,1.1-4.1c0-2-0.4-3.5-1.1-4.4
		c-0.7-0.9-1.7-1.3-2.8-1.3c-1.1,0-2,0.4-2.8,1.3C245.6,169.1,245.2,170.4,245.2,172.2z"/>
	<path class="st2" d="M272.4,175.7l4.6,0.8c-0.6,1.7-1.5,3-2.8,3.9c-1.3,0.9-2.9,1.3-4.8,1.3c-3.1,0-5.3-1-6.8-3
		c-1.2-1.6-1.7-3.6-1.7-6.1c0-2.9,0.8-5.2,2.3-6.8c1.5-1.6,3.4-2.5,5.8-2.5c2.6,0,4.7,0.9,6.2,2.6c1.5,1.7,2.2,4.4,2.2,7.9h-11.7
		c0,1.4,0.4,2.5,1.1,3.2c0.7,0.8,1.6,1.2,2.7,1.2c0.7,0,1.3-0.2,1.8-0.6C271.7,177.3,272.1,176.6,272.4,175.7z M272.6,171
		c0-1.3-0.4-2.4-1-3.1c-0.7-0.7-1.5-1.1-2.4-1.1c-1,0-1.9,0.4-2.5,1.1c-0.7,0.7-1,1.7-1,3H272.6z"/>
</g>
<path class="st2" d="M333.8,63.9c0.1,0.1,0.1,0.2,0.2,0.4l31.2,85.5h-11l-13.8-37.9H324l-12.4,37.9h-11.4l12.3-37.9h-82.6l13.8,37.9
	h-11.6l-24-65.8l-21.5,65.8H175l27.8-85.3c0.1-0.3,0.2-0.6,0.4-0.9c0,0,0.1-0.1,0.1-0.1c0.1-0.1,0.2-0.3,0.3-0.4
	c0.1-0.1,0.2-0.2,0.4-0.3c0.1-0.1,0.2-0.2,0.4-0.3c0.1-0.1,0.3-0.2,0.5-0.2c0.1-0.1,0.3-0.1,0.4-0.1c0.2,0,0.4-0.1,0.6-0.1h125.2
	c0.2,0,0.3,0,0.5,0.1c0.1,0,0.3,0.1,0.5,0.1c0.1,0.1,0.3,0.1,0.4,0.2s0.3,0.2,0.4,0.3c0.1,0.1,0.2,0.2,0.3,0.3
	c0.1,0.1,0.2,0.2,0.2,0.3c0.1,0.1,0.2,0.3,0.3,0.4c0,0,0,0.1,0,0.1C333.7,63.8,333.8,63.9,333.8,63.9z M335.2,105.4h7l-3.1-8.5
	l0.1,0l-4.1-11l-6.2-17.1H210.4l3.9,10.5l4,10.7l5.8,15.5H335.2z"/>
<path class="st3" d="M218.4,90l22.2,15.5h11.3l-37.5-26.2L218.4,90z"/>
<path class="st3" d="M226.6,68.8l52.2,36.7h0.4L227,68.8H226.6z"/>
<path class="st3" d="M267.5,105.5h0.1l-52.4-36.7L267.5,105.5z"/>
<path class="st3" d="M215.5,68.8l52.2,36.7h11.2l-52.2-36.7H215.5z"/>
<path class="st3" d="M254.1,68.8l52.4,36.7h0.2l-52.3-36.7H254.1z"/>
<path class="st3" d="M243,68.8l52.2,36.7h11.2l-52.2-36.7H243z"/>
<path class="st3" d="M271.4,68.8l52.3,36.7h0.3l-52.4-36.7H271.4z"/>
<path class="st3" d="M271.7,68.8l52.3,36.7h11.2l-52.2-36.7H271.7z"/>
<path class="st3" d="M310.6,69h-0.1l24.6,17L310.6,69z"/>
<path class="st3" d="M339.2,96.4l0.1,0.4l0.1,0.1l-4.1-11l-24.6-17.1h-11.3L339.2,96.4L339.2,96.4z"/>
</svg>
