<?xml version="1.0" encoding="utf-8"?>
<!-- Generator: Adobe Illustrator 21.1.0, SVG Export Plug-In . SVG Version: 6.00 Build 0)  -->
<svg version="1.1" id="Ebene_1" xmlns="http://www.w3.org/2000/svg" xmlns:xlink="http://www.w3.org/1999/xlink" x="0px" y="0px"
	 viewBox="0 0 933 746" style="enable-background:new 0 0 933 746;" xml:space="preserve">
<style type="text/css">
	.st0{fill:#F3F7F8;}
	.st1{fill:#003A52;}
	.st2{font-family:'Arial-BoldMT';}
	.st3{font-size:125.5783px;}
	.st4{fill:none;stroke:#003A52;stroke-width:6;}
	.st5{fill:#FF4141;}
</style>
<path class="st0" d="M216.2,387.8c76.7-147.1-2.9-407.1,266.1-386.3C751.2,22.3,841.5,346,702.8,522
	c-138.7,176-392.5,278.5-532.9,193.8C-70,570.9,164.7,486.5,216.2,387.8"/>
<text transform="matrix(1 0 0 1 49.4515 365.457)" class="st1 st2 st3">Verlauf</text>
<path class="st1" d="M805.9,519l-174.3-1.9c-8.6-0.1-15.4-7.1-15.3-15.7c0-0.1,0-0.2,0-0.3c-0.2-8.2,6.3-15.1,14.5-15.3
	c0.4,0,0.8,0,1.1,0l174.2,2.1h0.5c34.1-0.1,61.9-27.6,62.1-61.7v-19.6c0.2-34.2-27.3-62.1-61.6-62.5l-180.7-1.4
	c-57.1-0.4-103-47-102.6-104v-0.1c0.6-56.7,46.7-102.4,103.4-102.5h164.7c8.6,0.5,15.1,7.9,14.6,16.4c-0.5,7.9-6.7,14.1-14.6,14.6
	H627.4c-39.7,0.1-72,32-72.4,71.7c-0.3,39.9,31.8,72.6,71.8,72.9h0.1l180.7,1.4c51.5,0.5,92.8,42.5,92.5,93.9v19.6
	c-0.4,51.2-42.1,92.5-93.3,92.4H805.9z"/>
<path class="st4" d="M805.9,519l-174.3-1.9c-8.6-0.1-15.4-7.1-15.3-15.7c0-0.1,0-0.2,0-0.3c-0.2-8.2,6.3-15.1,14.5-15.3
	c0.4,0,0.8,0,1.1,0l174.2,2.1h0.5c34.1-0.1,61.9-27.6,62.1-61.7v-19.6c0.2-34.2-27.3-62.1-61.6-62.5l-180.7-1.4
	c-57.1-0.4-103-47-102.6-104v-0.1c0.6-56.7,46.7-102.4,103.4-102.5h164.7c8.6,0.5,15.1,7.9,14.6,16.4c-0.5,7.9-6.7,14.1-14.6,14.6
	H627.4c-39.7,0.1-72,32-72.4,71.7c-0.3,39.9,31.8,72.6,71.8,72.9h0.1l180.7,1.4c51.5,0.5,92.8,42.5,92.5,93.9v19.6
	c-0.4,51.2-42.1,92.5-93.3,92.4H805.9z"/>
<path class="st5" d="M906.4,90.7l26.1-22h-87.4c-7.9,0-14.3,6.3-14.3,14.1v0.1v76.8c0,10.6,31.5,10.6,31.5,0v-46.9h70.1L906.4,90.7z
	"/>
<path class="st5" d="M518.2,473.4c-24.2-24.1-24.2-63.2,0-87.3c24.2-24.1,63.5-24.1,87.7,0c24.2,24.1,24.2,63.2,0,87.3L562,517
	L518.2,473.4z M526.6,426.7c0,19.4,15.9,35.2,35.4,35.1c19.5,0,35.3-15.8,35.3-35.2v-0.1c0-19.4-15.9-35.2-35.4-35.1
	C542.4,391.5,526.6,407.3,526.6,426.7z"/>
</svg>
